  0
SECTION
  2
HEADER
  9
$ACADVER
  1
AC1015
  9
$ACADMAINTVER
 70
     6
  9
$DWGCODEPAGE
  3
ANSI_1252
  9
$INSBASE
 10
0.0
 20
0.0
 30
0.0
  9
$EXTMIN
 10
0.0
 20
0.0
 30
0.0
  9
$EXTMAX
 10
17.0
 20
11.0
 30
0.0
  9
$LIMMIN
 10
0.0
 20
0.0
  9
$LIMMAX
 10
17.0
 20
11.0
  9
$ORTHOMODE
 70
     0
  9
$REGENMODE
 70
     1
  9
$FILLMODE
 70
     1
  9
$QTEXTMODE
 70
     0
  9
$MIRRTEXT
 70
     1
  9
$LTSCALE
 40
1.0
  9
$ATTMODE
 70
     1
  9
$TEXTSIZE
 40
0.1377952756
  9
$TRACEWID
 40
0.05
  9
$TEXTSTYLE
  7
Standard
  9
$CLAYER
  8
0
  9
$CELTYPE
  6
ByLayer
  9
$CECOLOR
 62
   256
  9
$CELTSCALE
 40
1.0
  9
$DISPSILH
 70
     0
  9
$DIMSCALE
 40
1.0
  9
$DIMASZ
 40
0.13
  9
$DIMEXO
 40
0.0393700787
  9
$DIMDLI
 40
0.38
  9
$DIMRND
 40
0.0
  9
$DIMDLE
 40
0.0
  9
$DIMEXE
 40
0.0393700787
  9
$DIMTP
 40
0.0
  9
$DIMTM
 40
0.0
  9
$DIMTXT
 40
0.1377952756
  9
$DIMCEN
 40
0.09
  9
$DIMTSZ
 40
0.0
  9
$DIMTOL
 70
     0
  9
$DIMLIM
 70
     0
  9
$DIMTIH
 70
     1
  9
$DIMTOH
 70
     1
  9
$DIMSE1
 70
     0
  9
$DIMSE2
 70
     0
  9
$DIMTAD
 70
     1
  9
$DIMZIN
 70
     0
  9
$DIMBLK
  1

  9
$DIMASO
 70
     1
  9
$DIMSHO
 70
     1
  9
$DIMPOST
  1

  9
$DIMAPOST
  1

  9
$DIMALT
 70
     0
  9
$DIMALTD
 70
     2
  9
$DIMALTF
 40
25.4
  9
$DIMLFAC
 40
10.0
  9
$DIMTOFL
 70
     0
  9
$DIMTVP
 40
0.0
  9
$DIMTIX
 70
     0
  9
$DIMSOXD
 70
     0
  9
$DIMSAH
 70
     0
  9
$DIMBLK1
  1

  9
$DIMBLK2
  1

  9
$DIMSTYLE
  2
Standard
  9
$DIMCLRD
 70
     0
  9
$DIMCLRE
 70
     0
  9
$DIMCLRT
 70
     0
  9
$DIMTFAC
 40
1.0
  9
$DIMGAP
 40
0.06
  9
$DIMJUST
 70
     0
  9
$DIMSD1
 70
     0
  9
$DIMSD2
 70
     0
  9
$DIMTOLJ
 70
     1
  9
$DIMTZIN
 70
     0
  9
$DIMALTZ
 70
     0
  9
$DIMALTTZ
 70
     0
  9
$DIMUPT
 70
     0
  9
$DIMDEC
 70
     2
  9
$DIMTDEC
 70
     2
  9
$DIMALTU
 70
     2
  9
$DIMALTTD
 70
     2
  9
$DIMTXSTY
  7
Standard
  9
$DIMAUNIT
 70
     0
  9
$DIMADEC
 70
     2
  9
$DIMALTRND
 40
0.0
  9
$DIMAZIN
 70
     0
  9
$DIMDSEP
 70
    46
  9
$DIMATFIT
 70
     3
  9
$DIMFRAC
 70
     0
  9
$DIMLDRBLK
  1

  9
$DIMLUNIT
 70
     2
  9
$DIMLWD
 70
    -2
  9
$DIMLWE
 70
    -2
  9
$DIMTMOVE
 70
     0
  9
$LUNITS
 70
     2
  9
$LUPREC
 70
     2
  9
$SKETCHINC
 40
0.1
  9
$FILLETRAD
 40
0.5
  9
$AUNITS
 70
     0
  9
$AUPREC
 70
     2
  9
$MENU
  1
.
  9
$ELEVATION
 40
0.0
  9
$PELEVATION
 40
0.0
  9
$THICKNESS
 40
0.0
  9
$LIMCHECK
 70
     0
  9
$CHAMFERA
 40
0.0
  9
$CHAMFERB
 40
0.0
  9
$CHAMFERC
 40
0.0
  9
$CHAMFERD
 40
0.0
  9
$SKPOLY
 70
     0
  9
$TDCREATE
 40
2458265.671188148
  9
$TDUCREATE
 40
2458265.837854815
  9
$TDUPDATE
 40
2458265.671193229
  9
$TDUUPDATE
 40
2458265.837859896
  9
$TDINDWG
 40
0.0000000116
  9
$TDUSRTIMER
 40
0.0000000116
  9
$USRTIMER
 70
     1
  9
$ANGBASE
 50
0.0
  9
$ANGDIR
 70
     0
  9
$PDMODE
 70
     0
  9
$PDSIZE
 40
-1.0
  9
$PLINEWID
 40
0.0
  9
$SPLFRAME
 70
     0
  9
$SPLINETYPE
 70
     6
  9
$SPLINESEGS
 70
     8
  9
$HANDSEED
  5
318
  9
$SURFTAB1
 70
     6
  9
$SURFTAB2
 70
     6
  9
$SURFTYPE
 70
     6
  9
$SURFU
 70
     6
  9
$SURFV
 70
     6
  9
$UCSBASE
  2

  9
$UCSNAME
  2

  9
$UCSORG
 10
0.0
 20
0.0
 30
0.0
  9
$UCSXDIR
 10
1.0
 20
0.0
 30
0.0
  9
$UCSYDIR
 10
0.0
 20
1.0
 30
0.0
  9
$UCSORTHOREF
  2

  9
$UCSORTHOVIEW
 70
     0
  9
$UCSORGTOP
 10
0.0
 20
0.0
 30
0.0
  9
$UCSORGBOTTOM
 10
0.0
 20
0.0
 30
0.0
  9
$UCSORGLEFT
 10
0.0
 20
0.0
 30
0.0
  9
$UCSORGRIGHT
 10
0.0
 20
0.0
 30
0.0
  9
$UCSORGFRONT
 10
0.0
 20
0.0
 30
0.0
  9
$UCSORGBACK
 10
0.0
 20
0.0
 30
0.0
  9
$PUCSBASE
  2

  9
$PUCSNAME
  2

  9
$PUCSORG
 10
0.0
 20
0.0
 30
0.0
  9
$PUCSXDIR
 10
1.0
 20
0.0
 30
0.0
  9
$PUCSYDIR
 10
0.0
 20
1.0
 30
0.0
  9
$PUCSORTHOREF
  2

  9
$PUCSORTHOVIEW
 70
     0
  9
$PUCSORGTOP
 10
0.0
 20
0.0
 30
0.0
  9
$PUCSORGBOTTOM
 10
0.0
 20
0.0
 30
0.0
  9
$PUCSORGLEFT
 10
0.0
 20
0.0
 30
0.0
  9
$PUCSORGRIGHT
 10
0.0
 20
0.0
 30
0.0
  9
$PUCSORGFRONT
 10
0.0
 20
0.0
 30
0.0
  9
$PUCSORGBACK
 10
0.0
 20
0.0
 30
0.0
  9
$USERI1
 70
     0
  9
$USERI2
 70
     0
  9
$USERI3
 70
     0
  9
$USERI4
 70
     0
  9
$USERI5
 70
     0
  9
$USERR1
 40
0.0
  9
$USERR2
 40
0.0
  9
$USERR3
 40
0.0
  9
$USERR4
 40
0.0
  9
$USERR5
 40
0.0
  9
$WORLDVIEW
 70
     1
  9
$SHADEDGE
 70
     3
  9
$SHADEDIF
 70
    70
  9
$TILEMODE
 70
     1
  9
$MAXACTVP
 70
    64
  9
$PINSBASE
 10
0.0
 20
0.0
 30
0.0
  9
$PLIMCHECK
 70
     0
  9
$PEXTMIN
 10
1.0000000000E+20
 20
1.0000000000E+20
 30
1.0000000000E+20
  9
$PEXTMAX
 10
-1.0000000000E+20
 20
-1.0000000000E+20
 30
-1.0000000000E+20
  9
$PLIMMIN
 10
0.0
 20
0.0
  9
$PLIMMAX
 10
12.0
 20
9.0
  9
$UNITMODE
 70
     0
  9
$VISRETAIN
 70
     1
  9
$PLINEGEN
 70
     0
  9
$PSLTSCALE
 70
     1
  9
$TREEDEPTH
 70
  3020
  9
$CMLSTYLE
  2
Standard
  9
$CMLJUST
 70
     0
  9
$CMLSCALE
 40
1.0
  9
$PROXYGRAPHICS
 70
     1
  9
$MEASUREMENT
 70
     0
  9
$CELWEIGHT
370
    -1
  9
$ENDCAPS
280
     0
  9
$JOINSTYLE
280
     0
  9
$LWDISPLAY
290
     1
  9
$INSUNITS
 70
     1
  9
$HYPERLINKBASE
  1

  9
$STYLESHEET
  1

  9
$XEDIT
290
     1
  9
$CEPSNTYPE
380
     0
  9
$PSTYLEMODE
290
     1
  9
$FINGERPRINTGUID
  2
{EC3551C7-07BB-457A-94B0-8C2D6486E58A}
  9
$VERSIONGUID
  2
{FAEB1C32-E019-11D5-929B-00C0DF256EC4}
  9
$EXTNAMES
290
     1
  9
$PSVPSCALE
 40
0.0
  9
$OLESTARTUP
290
     0
  0
ENDSEC
  0
SECTION
  2
CLASSES
  0
CLASS
  1
ACDBDICTIONARYWDFLT
  2
AcDbDictionaryWithDefault
  3
ObjectDBX Classes
 90
        0
280
     0
281
     0
  0
CLASS
  1
VISUALSTYLE
  2
AcDbVisualStyle
  3
ObjectDBX Classes
 90
     4095
280
     0
281
     0
  0
CLASS
  1
MATERIAL
  2
AcDbMaterial
  3
ObjectDBX Classes
 90
     1153
280
     0
281
     0
  0
CLASS
  1
SCALE
  2
AcDbScale
  3
ObjectDBX Classes
 90
     1153
280
     0
281
     0
  0
CLASS
  1
TABLESTYLE
  2
AcDbTableStyle
  3
ObjectDBX Classes
 90
     4095
280
     0
281
     0
  0
CLASS
  1
MLEADERSTYLE
  2
AcDbMLeaderStyle
  3
ACDB_MLEADERSTYLE_CLASS
 90
     4095
280
     0
281
     0
  0
CLASS
  1
SUN
  2
AcDbSun
  3
SCENEOE
 90
     1153
280
     0
281
     0
  0
CLASS
  1
ACDBPLACEHOLDER
  2
AcDbPlaceHolder
  3
ObjectDBX Classes
 90
        0
280
     0
281
     0
  0
CLASS
  1
LAYOUT
  2
AcDbLayout
  3
ObjectDBX Classes
 90
        0
280
     0
281
     0
  0
ENDSEC
  0
SECTION
  2
TABLES
  0
TABLE
  2
VPORT
  5
8
330
0
100
AcDbSymbolTable
 70
     1
  0
VPORT
  5
29
330
8
100
AcDbSymbolTableRecord
100
AcDbViewportTableRecord
  2
*Active
 70
     0
 10
0.0
 20
0.0
 11
1.0
 21
1.0
 12
8.5
 22
5.5
 13
0.0
 23
0.0
 14
0.5
 24
0.5
 15
0.5
 25
0.5
 16
0.0
 26
0.0
 36
1.0
 17
0.0
 27
0.0
 37
0.0
 40
11.0
 41
1.5454545455
 42
50.0
 43
0.0
 44
0.0
 50
0.0
 51
0.0
 71
     0
 72
  2000
 73
     1
 74
     3
 75
     0
 76
     0
 77
     0
 78
     0
281
     0
 65
     1
110
0.0
120
0.0
130
0.0
111
1.0
121
0.0
131
0.0
112
0.0
122
1.0
132
0.0
 79
     0
146
0.0
  0
ENDTAB
  0
TABLE
  2
LTYPE
  5
5
330
0
100
AcDbSymbolTable
 70
     6
  0
LTYPE
  5
14
330
5
100
AcDbSymbolTableRecord
100
AcDbLinetypeTableRecord
  2
ByBlock
 70
     0
  3

 72
    65
 73
     0
 40
0.0
  0
LTYPE
  5
15
330
5
100
AcDbSymbolTableRecord
100
AcDbLinetypeTableRecord
  2
ByLayer
 70
     0
  3

 72
    65
 73
     0
 40
0.0
  0
LTYPE
  5
16
330
5
100
AcDbSymbolTableRecord
100
AcDbLinetypeTableRecord
  2
Continuous
 70
     0
  3
Solid line
 72
    65
 73
     0
 40
0.0
  0
LTYPE
  5
6E
330
5
100
AcDbSymbolTableRecord
100
AcDbLinetypeTableRecord
  2
HIDDEN
 70
     0
  3
Hidden __ __ __ __ __ __ __ __ __ __ __ __ __ __
 72
    65
 73
     2
 40
0.075
 49
0.05
 74
     0
 49
-0.025
 74
     0
  0
LTYPE
  5
6F
330
5
100
AcDbSymbolTableRecord
100
AcDbLinetypeTableRecord
  2
PHANTOM
 70
     0
  3
Phantom ______  __  __  ______  __  __  ______
 72
    65
 73
     6
 40
0.5
 49
0.25
 74
     0
 49
-0.05
 74
     0
 49
0.05
 74
     0
 49
-0.05
 74
     0
 49
0.05
 74
     0
 49
-0.05
 74
     0
  0
LTYPE
  5
70
330
5
100
AcDbSymbolTableRecord
100
AcDbLinetypeTableRecord
  2
CENTER
 70
     0
  3
Center ____ _ ____ _ ____ _ ____ _ ____ _ ____
 72
    65
 73
     4
 40
0.4
 49
0.25
 74
     0
 49
-0.05
 74
     0
 49
0.05
 74
     0
 49
-0.05
 74
     0
  0
LTYPE
  5
71
330
5
100
AcDbSymbolTableRecord
100
AcDbLinetypeTableRecord
  2
CENTERX2
 70
     0
  3
Center (2x) ________  __  ________  __  _____
 72
    65
 73
     4
 40
0.8
 49
0.5
 74
     0
 49
-0.1
 74
     0
 49
0.1
 74
     0
 49
-0.1
 74
     0
  0
LTYPE
  5
72
330
5
100
AcDbSymbolTableRecord
100
AcDbLinetypeTableRecord
  2
DOT2
 70
     0
  3
Dot (.5x) ........................................
 72
    65
 73
     2
 40
0.025
 49
0.0
 74
     0
 49
-0.025
 74
     0
  0
ENDTAB
  0
TABLE
  2
LAYER
  5
2
330
0
100
AcDbSymbolTable
 70
     2
  0
LAYER
  5
10
330
2
100
AcDbSymbolTableRecord
100
AcDbLayerTableRecord
  2
0
 70
     0
 62
     7
  6
Continuous
370
    -3
390
F
  0
LAYER
  5
73
330
2
100
AcDbSymbolTableRecord
100
AcDbLayerTableRecord
  2
FORMAT
 70
     0
 62
     7
  6
Continuous
370
    -3
390
F
  0
ENDTAB
  0
TABLE
  2
STYLE
  5
3
330
0
100
AcDbSymbolTable
 70
     2
  0
STYLE
  5
11
330
3
100
AcDbSymbolTableRecord
100
AcDbTextStyleTableRecord
  2
Standard
 70
     0
 40
0.0
 41
1.0
 50
0.0
 71
     0
 42
0.1377952756
  3
txt
  4

  0
STYLE
  5
84
330
3
100
AcDbSymbolTableRecord
100
AcDbTextStyleTableRecord
  2
SLDTEXTSTYLE0
 70
     0
 40
0.0
 41
0.75
 50
0.0
 71
     0
 42
0.1377952756
  3
TXT
  4

  0
ENDTAB
  0
TABLE
  2
VIEW
  5
6
330
0
100
AcDbSymbolTable
 70
     0
  0
ENDTAB
  0
TABLE
  2
UCS
  5
7
330
0
100
AcDbSymbolTable
 70
     0
  0
ENDTAB
  0
TABLE
  2
APPID
  5
9
330
0
100
AcDbSymbolTable
 70
     1
  0
APPID
  5
12
330
9
100
AcDbSymbolTableRecord
100
AcDbRegAppTableRecord
  2
ACAD
 70
     0
  0
ENDTAB
  0
TABLE
  2
DIMSTYLE
  5
A
330
0
100
AcDbSymbolTable
 70
     3
100
AcDbDimStyleTable
  0
DIMSTYLE
105
27
330
A
100
AcDbSymbolTableRecord
100
AcDbDimStyleTableRecord
  2
Standard
 70
     0
178
     0
340
11
  0
DIMSTYLE
105
112
102
{ACAD_REACTORS
330
111
330
11C
330
18A
102
}
330
A
100
AcDbSymbolTableRecord
100
AcDbDimStyleTableRecord
  2
SLDDIMSTYLE0
 70
     0
 41
0.13
 44
0.0
 45
0.000000001
 73
     0
 74
     0
 77
     1
 78
    12
 79
     3
140
0.1377952756
144
5.0
147
0.0344488189
173
     1
178
     0
271
     1
272
     1
276
     2
284
    12
340
84
  0
DIMSTYLE
105
1FC
102
{ACAD_REACTORS
330
1FB
330
206
102
}
330
A
100
AcDbSymbolTableRecord
100
AcDbDimStyleTableRecord
  2
SLDDIMSTYLE1
 70
     0
 41
0.13
 44
0.0
 45
0.000000001
 73
     0
 74
     0
 77
     1
 78
     4
 79
     1
140
0.1377952756
144
5.0
147
0.0344488189
173
     1
178
     0
271
     1
272
     1
276
     2
284
    12
340
84
  0
ENDTAB
  0
TABLE
  2
BLOCK_RECORD
  5
1
330
0
100
AcDbSymbolTable
 70
     6
  0
BLOCK_RECORD
  5
1F
330
1
100
AcDbSymbolTableRecord
100
AcDbBlockTableRecord
  2
*Model_Space
340
22
  0
BLOCK_RECORD
  5
1B
330
1
100
AcDbSymbolTableRecord
100
AcDbBlockTableRecord
  2
*Paper_Space
340
1E
  0
BLOCK_RECORD
  5
23
330
1
100
AcDbSymbolTableRecord
100
AcDbBlockTableRecord
  2
*Paper_Space0
340
26
  0
BLOCK_RECORD
  5
113
330
1
100
AcDbSymbolTableRecord
100
AcDbBlockTableRecord
  2
_D
340
0
  0
BLOCK_RECORD
  5
11D
330
1
100
AcDbSymbolTableRecord
100
AcDbBlockTableRecord
  2
_D_1
340
0
  0
BLOCK_RECORD
  5
18B
330
1
100
AcDbSymbolTableRecord
100
AcDbBlockTableRecord
  2
_D_2
340
0
  0
BLOCK_RECORD
  5
1FD
330
1
100
AcDbSymbolTableRecord
100
AcDbBlockTableRecord
  2
_D_3
340
0
  0
BLOCK_RECORD
  5
207
330
1
100
AcDbSymbolTableRecord
100
AcDbBlockTableRecord
  2
_D_4
340
0
  0
ENDTAB
  0
ENDSEC
  0
SECTION
  2
BLOCKS
  0
BLOCK
  5
20
330
1F
100
AcDbEntity
  8
0
100
AcDbBlockBegin
  2
*Model_Space
 70
     0
 10
0.0
 20
0.0
 30
0.0
  3
*Model_Space
  1

  0
ENDBLK
  5
21
330
1F
100
AcDbEntity
  8
0
100
AcDbBlockEnd
  0
BLOCK
  5
1C
330
1B
100
AcDbEntity
 67
     1
  8
0
100
AcDbBlockBegin
  2
*Paper_Space
 70
     0
 10
0.0
 20
0.0
 30
0.0
  3
*Paper_Space
  1

  0
ENDBLK
  5
1D
330
1B
100
AcDbEntity
 67
     1
  8
0
100
AcDbBlockEnd
  0
BLOCK
  5
24
330
23
100
AcDbEntity
  8
0
100
AcDbBlockBegin
  2
*Paper_Space0
 70
     0
 10
0.0
 20
0.0
 30
0.0
  3
*Paper_Space0
  1

  0
ENDBLK
  5
25
330
23
100
AcDbEntity
  8
0
100
AcDbBlockEnd
  0
BLOCK
  5
114
330
113
100
AcDbEntity
  8
0
100
AcDbBlockBegin
  2
_D
 70
     0
 10
0.0
 20
0.0
 30
0.0
  3
_D
  1

  0
SOLID
  5
116
330
113
100
AcDbEntity
  8
0
  6
Continuous
 62
     7
370
    18
100
AcDbTrace
 10
10.4157431614
 20
4.548166269
 30
0.0
 11
10.3957431614
 21
4.418166269
 31
0.0
 12
10.4357431614
 22
4.418166269
 32
0.0
 13
10.4357431614
 23
4.418166269
 33
0.0
  0
SOLID
  5
117
330
113
100
AcDbEntity
  8
0
  6
Continuous
 62
     7
370
    18
100
AcDbTrace
 10
10.4157431614
 20
2.903166269
 30
0.0
 11
10.4357431614
 21
3.033166269
 31
0.0
 12
10.3957431614
 22
3.033166269
 32
0.0
 13
10.3957431614
 23
3.033166269
 33
0.0
  0
LINE
  5
118
330
113
100
AcDbEntity
  8
0
  6
Continuous
 62
     7
370
    18
100
AcDbLine
 10
9.9139124528
 20
4.548166269
 30
0.0
 11
10.4551132402
 21
4.548166269
 31
0.0
  0
LINE
  5
119
330
113
100
AcDbEntity
  8
0
  6
Continuous
 62
     7
370
    18
100
AcDbLine
 10
9.9164124528
 20
2.903166269
 30
0.0
 11
10.4551132402
 21
2.903166269
 31
0.0
  0
LINE
  5
11A
330
113
100
AcDbEntity
  8
0
  6
Continuous
 62
     7
370
    18
100
AcDbLine
 10
10.4157431614
 20
4.548166269
 30
0.0
 11
10.4157431614
 21
2.903166269
 31
0.0
  0
MTEXT
  5
11B
330
113
100
AcDbEntity
  8
0
  6
Continuous
 62
     7
370
    18
100
AcDbMText
 10
10.2381157238
 20
3.5983970242
 30
0.0
 40
0.1377952756
 41
0.0
 71
     1
 72
     1
  1
8.2
  7
SLDTEXTSTYLE0
 11
-7.044195017643634E-15
 21
1.0
 31
0.0
 73
     1
 44
1.0
  0
ENDBLK
  5
115
330
113
100
AcDbEntity
  8
0
100
AcDbBlockEnd
  0
BLOCK
  5
11E
330
11D
100
AcDbEntity
  8
0
100
AcDbBlockBegin
  2
_D_1
 70
     0
 10
0.0
 20
0.0
 30
0.0
  3
_D_1
  1

  0
SOLID
  5
120
330
11D
100
AcDbEntity
  8
0
  6
Continuous
 62
     7
370
    18
100
AcDbTrace
 10
2.164542374
 20
2.5094654816
 30
0.0
 11
2.294542374
 21
2.4894654816
 31
0.0
 12
2.294542374
 22
2.5294654816
 32
0.0
 13
2.294542374
 23
2.5294654816
 33
0.0
  0
SOLID
  5
121
330
11D
100
AcDbEntity
  8
0
  6
Continuous
 62
     7
370
    18
100
AcDbTrace
 10
9.877042374
 20
2.5094654816
 30
0.0
 11
9.747042374
 21
2.5294654816
 31
0.0
 12
9.747042374
 22
2.4894654816
 32
0.0
 13
9.747042374
 23
2.4894654816
 33
0.0
  0
LINE
  5
122
330
11D
100
AcDbEntity
  8
0
  6
Continuous
 62
     7
370
    18
100
AcDbLine
 10
2.164542374
 20
2.8637961902
 30
0.0
 11
2.164542374
 21
2.4700954028
 31
0.0
  0
LINE
  5
123
330
11D
100
AcDbEntity
  8
0
  6
Continuous
 62
     7
370
    18
100
AcDbLine
 10
9.877042374
 20
2.8637961902
 30
0.0
 11
9.877042374
 21
2.4700954028
 31
0.0
  0
LINE
  5
124
330
11D
100
AcDbEntity
  8
0
  6
Continuous
 62
     7
370
    18
100
AcDbLine
 10
2.164542374
 20
2.5094654816
 30
0.0
 11
9.877042374
 21
2.5094654816
 31
0.0
  0
MTEXT
  5
125
330
11D
100
AcDbEntity
  8
0
  6
Continuous
 62
     7
370
    18
100
AcDbMText
 10
5.842615424
 20
2.6870929191
 30
0.0
 40
0.1377952756
 41
0.0
 71
     1
 72
     1
  1
38.6
  7
SLDTEXTSTYLE0
 73
     1
 44
1.0
  0
ENDBLK
  5
11F
330
11D
100
AcDbEntity
  8
0
100
AcDbBlockEnd
  0
BLOCK
  5
18C
330
18B
100
AcDbEntity
  8
0
100
AcDbBlockBegin
  2
_D_2
 70
     0
 10
0.0
 20
0.0
 30
0.0
  3
_D_2
  1

  0
SOLID
  5
18E
330
18B
100
AcDbEntity
  8
0
  6
Continuous
 62
     7
370
    18
100
AcDbTrace
 10
13.5643131846
 20
4.9418670564
 30
0.0
 11
13.4343131846
 21
4.9618670564
 31
0.0
 12
13.4343131846
 22
4.9218670564
 32
0.0
 13
13.4343131846
 23
4.9218670564
 33
0.0
  0
SOLID
  5
18F
330
18B
100
AcDbEntity
  8
0
  6
Continuous
 62
     7
370
    18
100
AcDbTrace
 10
11.8668131846
 20
4.9418670564
 30
0.0
 11
11.9968131846
 21
4.9218670564
 31
0.0
 12
11.9968131846
 22
4.9618670564
 32
0.0
 13
11.9968131846
 23
4.9618670564
 33
0.0
  0
LINE
  5
190
330
18B
100
AcDbEntity
  8
0
  6
Continuous
 62
     7
370
    18
100
AcDbLine
 10
13.5643131846
 20
4.5875363477
 30
0.0
 11
13.5643131846
 21
4.9812371351
 31
0.0
  0
LINE
  5
191
330
18B
100
AcDbEntity
  8
0
  6
Continuous
 62
     7
370
    18
100
AcDbLine
 10
11.8668131846
 20
4.5875363477
 30
0.0
 11
11.8668131846
 21
4.9812371351
 31
0.0
  0
LINE
  5
192
330
18B
100
AcDbEntity
  8
0
  6
Continuous
 62
     7
370
    18
100
AcDbLine
 10
13.5643131846
 20
4.9418670564
 30
0.0
 11
11.8668131846
 21
4.9418670564
 31
0.0
  0
MTEXT
  5
193
330
18B
100
AcDbEntity
  8
0
  6
Continuous
 62
     7
370
    18
100
AcDbMText
 10
12.5882939398
 20
5.1194944939
 30
0.0
 40
0.1377952756
 41
0.0
 71
     1
 72
     1
  1
8.5
  7
SLDTEXTSTYLE0
 73
     1
 44
1.0
  0
ENDBLK
  5
18D
330
18B
100
AcDbEntity
  8
0
100
AcDbBlockEnd
  0
BLOCK
  5
1FE
330
1FD
100
AcDbEntity
  8
0
100
AcDbBlockBegin
  2
_D_3
 70
     0
 10
0.0
 20
0.0
 30
0.0
  3
_D_3
  1

  0
SOLID
  5
200
330
1FD
100
AcDbEntity
  8
0
  6
Continuous
 62
     7
370
    18
100
AcDbTrace
 10
2.022042374
 20
8.7267506604
 30
0.0
 11
2.152042374
 21
8.7067506604
 31
0.0
 12
2.152042374
 22
8.7467506604
 32
0.0
 13
2.152042374
 23
8.7467506604
 33
0.0
  0
SOLID
  5
201
330
1FD
100
AcDbEntity
  8
0
  6
Continuous
 62
     7
370
    18
100
AcDbTrace
 10
10.019542374
 20
8.7267506604
 30
0.0
 11
9.889542374
 21
8.7467506604
 31
0.0
 12
9.889542374
 22
8.7067506604
 32
0.0
 13
9.889542374
 23
8.7067506604
 33
0.0
  0
LINE
  5
202
330
1FD
100
AcDbEntity
  8
0
  6
Continuous
 62
     7
370
    18
100
AcDbLine
 10
2.022042374
 20
8.3711699517
 30
0.0
 11
2.022042374
 21
8.7661207391
 31
0.0
  0
LINE
  5
203
330
1FD
100
AcDbEntity
  8
0
  6
Continuous
 62
     7
370
    18
100
AcDbLine
 10
10.019542374
 20
8.3711699517
 30
0.0
 11
10.019542374
 21
8.7661207391
 31
0.0
  0
LINE
  5
204
330
1FD
100
AcDbEntity
  8
0
  6
Continuous
 62
     7
370
    18
100
AcDbLine
 10
2.022042374
 20
8.7267506604
 30
0.0
 11
10.019542374
 21
8.7267506604
 31
0.0
  0
MTEXT
  5
205
330
1FD
100
AcDbEntity
  8
0
  6
Continuous
 62
     7
370
    18
100
AcDbMText
 10
5.842615424
 20
8.904378098
 30
0.0
 40
0.1377952756
 41
0.0
 71
     1
 72
     1
  1
40.0
  7
SLDTEXTSTYLE0
 73
     1
 44
1.0
  0
ENDBLK
  5
1FF
330
1FD
100
AcDbEntity
  8
0
100
AcDbBlockEnd
  0
BLOCK
  5
208
330
207
100
AcDbEntity
  8
0
100
AcDbBlockBegin
  2
_D_4
 70
     0
 10
0.0
 20
0.0
 30
0.0
  3
_D_4
  1

  0
SOLID
  5
20A
330
207
100
AcDbEntity
  8
0
  6
Continuous
 62
     7
370
    18
100
AcDbTrace
 10
3.022042374
 20
6.2393490856
 30
0.0
 11
3.152042374
 21
6.2193490856
 31
0.0
 12
3.152042374
 22
6.2593490856
 32
0.0
 13
3.152042374
 23
6.2593490856
 33
0.0
  0
SOLID
  5
20B
330
207
100
AcDbEntity
  8
0
  6
Continuous
 62
     7
370
    18
100
AcDbTrace
 10
9.022042374
 20
6.2393490856
 30
0.0
 11
8.892042374
 21
6.2593490856
 31
0.0
 12
8.892042374
 22
6.2193490856
 32
0.0
 13
8.892042374
 23
6.2193490856
 33
0.0
  0
LINE
  5
20C
330
207
100
AcDbEntity
  8
0
  6
Continuous
 62
     7
370
    18
100
AcDbLine
 10
3.022042374
 20
7.4436797943
 30
0.0
 11
3.022042374
 21
6.1999790069
 31
0.0
  0
LINE
  5
20D
330
207
100
AcDbEntity
  8
0
  6
Continuous
 62
     7
370
    18
100
AcDbLine
 10
9.022042374
 20
7.4436797943
 30
0.0
 11
9.022042374
 21
6.1999790069
 31
0.0
  0
LINE
  5
20E
330
207
100
AcDbEntity
  8
0
  6
Continuous
 62
     7
370
    18
100
AcDbLine
 10
3.022042374
 20
6.2393490856
 30
0.0
 11
9.022042374
 21
6.2393490856
 31
0.0
  0
MTEXT
  5
20F
330
207
100
AcDbEntity
  8
0
  6
Continuous
 62
     7
370
    18
100
AcDbMText
 10
5.842615424
 20
6.4169765232
 30
0.0
 40
0.1377952756
 41
0.0
 71
     1
 72
     1
  1
30.0
  7
SLDTEXTSTYLE0
 73
     1
 44
1.0
  0
ENDBLK
  5
209
330
207
100
AcDbEntity
  8
0
100
AcDbBlockEnd
  0
ENDSEC
  0
SECTION
  2
ENTITIES
  0
LINE
  5
74
330
1F
100
AcDbEntity
  8
0
  6
Continuous
 62
     7
370
    50
100
AcDbLine
 10
0.5
 20
0.5
 30
0.0
 11
0.5
 21
10.5
 31
0.0
  0
LINE
  5
75
330
1F
100
AcDbEntity
  8
0
  6
Continuous
 62
     7
370
    50
100
AcDbLine
 10
0.5
 20
10.5
 30
0.0
 11
16.5
 21
10.5
 31
0.0
  0
LINE
  5
76
330
1F
100
AcDbEntity
  8
0
  6
Continuous
 62
     7
370
    50
100
AcDbLine
 10
16.5
 20
10.5
 30
0.0
 11
16.5
 21
0.5
 31
0.0
  0
LINE
  5
77
330
1F
100
AcDbEntity
  8
0
  6
Continuous
 62
     7
370
    50
100
AcDbLine
 10
16.5
 20
0.5
 30
0.0
 11
0.5
 21
0.5
 31
0.0
  0
LINE
  5
78
330
1F
100
AcDbEntity
  8
0
  6
Continuous
 62
     7
370
    25
100
AcDbLine
 10
0.125
 20
5.5
 30
0.0
 11
0.5
 21
5.5
 31
0.0
  0
LINE
  5
79
330
1F
100
AcDbEntity
  8
0
  6
Continuous
 62
     7
370
    25
100
AcDbLine
 10
8.5
 20
10.875
 30
0.0
 11
8.5
 21
10.5
 31
0.0
  0
LINE
  5
7A
330
1F
100
AcDbEntity
  8
0
  6
Continuous
 62
     7
370
    25
100
AcDbLine
 10
16.875
 20
5.5
 30
0.0
 11
16.5
 21
5.5
 31
0.0
  0
LINE
  5
7B
330
1F
100
AcDbEntity
  8
0
  6
Continuous
 62
     7
370
    25
100
AcDbLine
 10
8.5
 20
0.125
 30
0.0
 11
8.5
 21
0.5
 31
0.0
  0
LINE
  5
7C
330
1F
100
AcDbEntity
  8
0
  6
Continuous
 62
     7
370
    25
100
AcDbLine
 10
0.5
 20
5.5
 30
0.0
 11
0.125
 21
5.5
 31
0.0
  0
LINE
  5
7D
330
1F
100
AcDbEntity
  8
0
  6
Continuous
 62
     7
370
    25
100
AcDbLine
 10
16.5
 20
5.5
 30
0.0
 11
16.875
 21
5.5
 31
0.0
  0
LINE
  5
7E
330
1F
100
AcDbEntity
  8
0
  6
Continuous
 62
     7
370
    25
100
AcDbLine
 10
4.25
 20
10.5
 30
0.0
 11
4.25
 21
10.875
 31
0.0
  0
LINE
  5
7F
330
1F
100
AcDbEntity
  8
0
  6
Continuous
 62
     7
370
    25
100
AcDbLine
 10
4.25
 20
0.5
 30
0.0
 11
4.25
 21
0.125
 31
0.0
  0
LINE
  5
80
330
1F
100
AcDbEntity
  8
0
  6
Continuous
 62
     7
370
    25
100
AcDbLine
 10
8.5
 20
10.5
 30
0.0
 11
8.5
 21
10.875
 31
0.0
  0
LINE
  5
81
330
1F
100
AcDbEntity
  8
0
  6
Continuous
 62
     7
370
    25
100
AcDbLine
 10
8.5
 20
0.5
 30
0.0
 11
8.5
 21
0.125
 31
0.0
  0
LINE
  5
82
330
1F
100
AcDbEntity
  8
0
  6
Continuous
 62
     7
370
    25
100
AcDbLine
 10
12.75
 20
10.5
 30
0.0
 11
12.75
 21
10.875
 31
0.0
  0
LINE
  5
83
330
1F
100
AcDbEntity
  8
0
  6
Continuous
 62
     7
370
    25
100
AcDbLine
 10
12.75
 20
0.5
 30
0.0
 11
12.75
 21
0.125
 31
0.0
  0
MTEXT
  5
85
330
1F
100
AcDbEntity
  8
0
  6
Continuous
 62
     7
370
     0
100
AcDbMText
 10
0.240416667
 20
2.7490429292
 30
0.0
 40
0.24
 41
0.0
 71
     2
 72
     1
  1
A
  7
SLDTEXTSTYLE0
 73
     1
 44
1.0
  0
MTEXT
  5
86
330
1F
100
AcDbEntity
  8
0
  6
Continuous
 62
     7
370
     0
100
AcDbMText
 10
16.740416667
 20
2.7490429292
 30
0.0
 40
0.24
 41
0.0
 71
     2
 72
     1
  1
A
  7
SLDTEXTSTYLE0
 73
     1
 44
1.0
  0
MTEXT
  5
87
330
1F
100
AcDbEntity
  8
0
  6
Continuous
 62
     7
370
     0
100
AcDbMText
 10
0.2481666625
 20
8.2490429292
 30
0.0
 40
0.24
 41
0.0
 71
     2
 72
     1
  1
B
  7
SLDTEXTSTYLE0
 73
     1
 44
1.0
  0
MTEXT
  5
88
330
1F
100
AcDbEntity
  8
0
  6
Continuous
 62
     7
370
     0
100
AcDbMText
 10
16.7481666625
 20
8.2490429292
 30
0.0
 40
0.24
 41
0.0
 71
     2
 72
     1
  1
B
  7
SLDTEXTSTYLE0
 73
     1
 44
1.0
  0
MTEXT
  5
89
330
1F
100
AcDbEntity
  8
0
  6
Continuous
 62
     7
370
     0
100
AcDbMText
 10
2.1225833335
 20
0.3725862363
 30
0.0
 40
0.24
 41
0.0
 71
     2
 72
     1
  1
4
  7
SLDTEXTSTYLE0
 73
     1
 44
1.0
  0
MTEXT
  5
8A
330
1F
100
AcDbEntity
  8
0
  6
Continuous
 62
     7
370
     0
100
AcDbMText
 10
2.1225833335
 20
10.8725862363
 30
0.0
 40
0.24
 41
0.0
 71
     2
 72
     1
  1
4
  7
SLDTEXTSTYLE0
 73
     1
 44
1.0
  0
MTEXT
  5
8B
330
1F
100
AcDbEntity
  8
0
  6
Continuous
 62
     7
370
     0
100
AcDbMText
 10
6.3725833335
 20
0.3725862363
 30
0.0
 40
0.24
 41
0.0
 71
     2
 72
     1
  1
3
  7
SLDTEXTSTYLE0
 73
     1
 44
1.0
  0
MTEXT
  5
8C
330
1F
100
AcDbEntity
  8
0
  6
Continuous
 62
     7
370
     0
100
AcDbMText
 10
6.3725833335
 20
10.8725862363
 30
0.0
 40
0.24
 41
0.0
 71
     2
 72
     1
  1
3
  7
SLDTEXTSTYLE0
 73
     1
 44
1.0
  0
MTEXT
  5
8D
330
1F
100
AcDbEntity
  8
0
  6
Continuous
 62
     7
370
     0
100
AcDbMText
 10
10.6225833335
 20
0.3725862363
 30
0.0
 40
0.24
 41
0.0
 71
     2
 72
     1
  1
2
  7
SLDTEXTSTYLE0
 73
     1
 44
1.0
  0
MTEXT
  5
8E
330
1F
100
AcDbEntity
  8
0
  6
Continuous
 62
     7
370
     0
100
AcDbMText
 10
10.6225833335
 20
10.8725862363
 30
0.0
 40
0.24
 41
0.0
 71
     2
 72
     1
  1
2
  7
SLDTEXTSTYLE0
 73
     1
 44
1.0
  0
MTEXT
  5
8F
330
1F
100
AcDbEntity
  8
0
  6
Continuous
 62
     7
370
     0
100
AcDbMText
 10
14.8725833335
 20
0.3725862363
 30
0.0
 40
0.24
 41
0.0
 71
     2
 72
     1
  1
1
  7
SLDTEXTSTYLE0
 73
     1
 44
1.0
  0
MTEXT
  5
90
330
1F
100
AcDbEntity
  8
0
  6
Continuous
 62
     7
370
     0
100
AcDbMText
 10
14.8725833335
 20
10.8725862363
 30
0.0
 40
0.24
 41
0.0
 71
     2
 72
     1
  1
1
  7
SLDTEXTSTYLE0
 73
     1
 44
1.0
  0
ARC
  5
91
330
1F
100
AcDbEntity
  8
0
  6
Continuous
 62
     7
370
    25
100
AcDbCircle
 10
9.994542374
 20
4.223166269
 30
0.0
 40
0.0250000000000012
100
AcDbArc
 50
0.0
 51
90.0
  0
LINE
  5
92
330
1F
100
AcDbEntity
  8
0
  6
Continuous
 62
     7
370
    25
100
AcDbLine
 10
10.0195421972
 20
3.8731663939
 30
0.0
 11
10.0195421972
 21
4.2231662761
 31
0.0
  0
ARC
  5
93
330
1F
100
AcDbEntity
  8
0
  6
Continuous
 62
     7
370
    25
100
AcDbCircle
 10
9.994542374
 20
3.873166269
 30
0.0
 40
0.0250000000000008
100
AcDbArc
 50
270.0
 51
0.0
  0
LINE
  5
94
330
1F
100
AcDbEntity
  8
0
  6
Continuous
 62
     7
370
    25
100
AcDbLine
 10
9.9098978105
 20
3.8481662347
 30
0.0
 11
9.9945425074
 21
3.8481662347
 31
0.0
  0
ARC
  5
95
330
1F
100
AcDbEntity
  8
0
  6
Continuous
 62
     7
370
    25
100
AcDbCircle
 10
9.8922200436
 20
3.8304885994
 30
0.0
 40
0.0250000000000006
100
AcDbArc
 50
45.0
 51
225.0
  0
LINE
  5
96
330
1F
100
AcDbEntity
  8
0
  6
Continuous
 62
     7
370
    25
100
AcDbLine
 10
9.8745424003
 20
3.5481662017
 30
0.0
 11
9.8745424003
 21
3.8128108245
 31
0.0
  0
ARC
  5
97
330
1F
100
AcDbEntity
  8
0
  6
Continuous
 62
     7
370
    25
100
AcDbCircle
 10
9.1247200436
 20
3.5304885994
 30
0.0
 40
0.0250000000000006
100
AcDbArc
 50
45.0
 51
225.0
  0
LINE
  5
98
330
1F
100
AcDbEntity
  8
0
  6
Continuous
 62
     7
370
    25
100
AcDbLine
 10
9.1070424879
 20
3.4031661701
 30
0.0
 11
9.1070424879
 21
3.5128110261
 31
0.0
  0
LINE
  5
99
330
1F
100
AcDbEntity
  8
0
  6
Continuous
 62
     7
370
    25
100
AcDbLine
 10
8.532042581
 20
3.4031661701
 30
0.0
 11
9.1070424879
 21
3.4031661701
 31
0.0
  0
LINE
  5
9A
330
1F
100
AcDbEntity
  8
0
  6
Continuous
 62
     7
370
    25
100
AcDbLine
 10
8.532042581
 20
3.5128110261
 30
0.0
 11
8.532042581
 21
3.4031661701
 31
0.0
  0
ARC
  5
9B
330
1F
100
AcDbEntity
  8
0
  6
Continuous
 62
     7
370
    25
100
AcDbCircle
 10
8.5143647045
 20
3.5304885994
 30
0.0
 40
0.0250000000000006
100
AcDbArc
 50
315.0
 51
135.0
  0
ARC
  5
9C
330
1F
100
AcDbEntity
  8
0
  6
Continuous
 62
     7
370
    25
100
AcDbCircle
 10
7.7247200436
 20
3.5304885994
 30
0.0
 40
0.0249999999999999
100
AcDbArc
 50
45.0
 51
225.0
  0
LINE
  5
9D
330
1F
100
AcDbEntity
  8
0
  6
Continuous
 62
     7
370
    25
100
AcDbLine
 10
7.7070424901
 20
3.4031661701
 30
0.0
 11
7.7070424901
 21
3.5128110261
 31
0.0
  0
LINE
  5
9E
330
1F
100
AcDbEntity
  8
0
  6
Continuous
 62
     7
370
    25
100
AcDbLine
 10
7.1320423486
 20
3.4031661701
 30
0.0
 11
7.7070424901
 21
3.4031661701
 31
0.0
  0
ARC
  5
9F
330
1F
100
AcDbEntity
  8
0
  6
Continuous
 62
     7
370
    25
100
AcDbCircle
 10
7.1143647045
 20
3.5304885994
 30
0.0
 40
0.0249999999999999
100
AcDbArc
 50
315.0
 51
135.0
  0
ARC
  5
A0
330
1F
100
AcDbEntity
  8
0
  6
Continuous
 62
     7
370
    25
100
AcDbCircle
 10
6.3247200436
 20
3.5304885994
 30
0.0
 40
0.0249999999999999
100
AcDbArc
 50
45.0
 51
225.0
  0
LINE
  5
A1
330
1F
100
AcDbEntity
  8
0
  6
Continuous
 62
     7
370
    25
100
AcDbLine
 10
6.3070422577
 20
3.4031661701
 30
0.0
 11
6.3070422577
 21
3.5128110261
 31
0.0
  0
LINE
  5
A2
330
1F
100
AcDbEntity
  8
0
  6
Continuous
 62
     7
370
    25
100
AcDbLine
 10
5.7320423508
 20
3.4031661701
 30
0.0
 11
6.3070422577
 21
3.4031661701
 31
0.0
  0
LINE
  5
A3
330
1F
100
AcDbEntity
  8
0
  6
Continuous
 62
     7
370
    25
100
AcDbLine
 10
5.7320423508
 20
3.5128110261
 30
0.0
 11
5.7320423508
 21
3.4031661701
 31
0.0
  0
ARC
  5
A4
330
1F
100
AcDbEntity
  8
0
  6
Continuous
 62
     7
370
    25
100
AcDbCircle
 10
5.7143647045
 20
3.5304885994
 30
0.0
 40
0.0249999999999999
100
AcDbArc
 50
315.0
 51
135.0
  0
ARC
  5
A5
330
1F
100
AcDbEntity
  8
0
  6
Continuous
 62
     7
370
    25
100
AcDbCircle
 10
4.9247200436
 20
3.5304885994
 30
0.0
 40
0.0250000000000003
100
AcDbArc
 50
45.0
 51
225.0
  0
LINE
  5
A6
330
1F
100
AcDbEntity
  8
0
  6
Continuous
 62
     7
370
    25
100
AcDbLine
 10
4.9070423773
 20
3.4031661701
 30
0.0
 11
4.9070423773
 21
3.5128110261
 31
0.0
  0
LINE
  5
A7
330
1F
100
AcDbEntity
  8
0
  6
Continuous
 62
     7
370
    25
100
AcDbLine
 10
4.3320423531
 20
3.4031661701
 30
0.0
 11
4.9070423773
 21
3.4031661701
 31
0.0
  0
LINE
  5
A8
330
1F
100
AcDbEntity
  8
0
  6
Continuous
 62
     7
370
    25
100
AcDbLine
 10
4.3320423531
 20
3.5128110261
 30
0.0
 11
4.3320423531
 21
3.4031661701
 31
0.0
  0
ARC
  5
A9
330
1F
100
AcDbEntity
  8
0
  6
Continuous
 62
     7
370
    25
100
AcDbCircle
 10
4.3143647045
 20
3.5304885994
 30
0.0
 40
0.0250000000000009
100
AcDbArc
 50
315.0
 51
135.0
  0
ARC
  5
AA
330
1F
100
AcDbEntity
  8
0
  6
Continuous
 62
     7
370
    25
100
AcDbCircle
 10
3.5247200436
 20
3.5304885994
 30
0.0
 40
0.0249999999999999
100
AcDbArc
 50
45.0
 51
225.0
  0
LINE
  5
AB
330
1F
100
AcDbEntity
  8
0
  6
Continuous
 62
     7
370
    25
100
AcDbLine
 10
3.5070423722
 20
3.4031661701
 30
0.0
 11
3.5070423722
 21
3.5128110261
 31
0.0
  0
LINE
  5
AC
330
1F
100
AcDbEntity
  8
0
  6
Continuous
 62
     7
370
    25
100
AcDbLine
 10
2.9320423553
 20
3.4031661701
 30
0.0
 11
3.5070423722
 21
3.4031661701
 31
0.0
  0
LINE
  5
AD
330
1F
100
AcDbEntity
  8
0
  6
Continuous
 62
     7
370
    25
100
AcDbLine
 10
2.9320423553
 20
3.5128110261
 30
0.0
 11
2.9320423553
 21
3.4031661701
 31
0.0
  0
ARC
  5
AE
330
1F
100
AcDbEntity
  8
0
  6
Continuous
 62
     7
370
    25
100
AcDbCircle
 10
2.9143647045
 20
3.5304885994
 30
0.0
 40
0.0249999999999999
100
AcDbArc
 50
315.0
 51
135.0
  0
LINE
  5
AF
330
1F
100
AcDbEntity
  8
0
  6
Continuous
 62
     7
370
    25
100
AcDbLine
 10
2.1645423255
 20
3.5481662017
 30
0.0
 11
2.167042318
 21
3.5481662017
 31
0.0
  0
LINE
  5
B0
330
1F
100
AcDbEntity
  8
0
  6
Continuous
 62
     7
370
    25
100
AcDbLine
 10
2.1645423255
 20
3.5481662017
 30
0.0
 11
2.1645423255
 21
3.8128108245
 31
0.0
  0
ARC
  5
B1
330
1F
100
AcDbEntity
  8
0
  6
Continuous
 62
     7
370
    25
100
AcDbCircle
 10
2.1468647045
 20
3.8304885994
 30
0.0
 40
0.0250000000000003
100
AcDbArc
 50
315.0
 51
135.0
  0
LINE
  5
B2
330
1F
100
AcDbEntity
  8
0
  6
Continuous
 62
     7
370
    25
100
AcDbLine
 10
2.1291870326
 20
3.8481662347
 30
0.0
 11
2.0445423358
 21
3.8481662347
 31
0.0
  0
ARC
  5
B3
330
1F
100
AcDbEntity
  8
0
  6
Continuous
 62
     7
370
    25
100
AcDbCircle
 10
2.044542374
 20
3.873166269
 30
0.0
 40
0.0250000000000008
100
AcDbArc
 50
180.0
 51
270.0
  0
LINE
  5
B4
330
1F
100
AcDbEntity
  8
0
  6
Continuous
 62
     7
370
    25
100
AcDbLine
 10
2.0195424113
 20
4.2231662761
 30
0.0
 11
2.0195424113
 21
3.8731663939
 31
0.0
  0
ARC
  5
B5
330
1F
100
AcDbEntity
  8
0
  6
Continuous
 62
     7
370
    25
100
AcDbCircle
 10
2.044542374
 20
4.223166269
 30
0.0
 40
0.0250000000000008
100
AcDbArc
 50
90.0
 51
180.0
  0
ARC
  5
B6
330
1F
100
AcDbEntity
  8
0
  6
Continuous
 62
     7
370
    25
100
AcDbCircle
 10
2.1468647045
 20
4.2658439385
 30
0.0
 40
0.0249999999999999
100
AcDbArc
 50
225.0
 51
45.0
  0
LINE
  5
B7
330
1F
100
AcDbEntity
  8
0
  6
Continuous
 62
     7
370
    25
100
AcDbLine
 10
2.1645423255
 20
4.2835213762
 30
0.0
 11
2.1645423255
 21
4.5481664683
 31
0.0
  0
LINE
  5
B8
330
1F
100
AcDbEntity
  8
0
  6
Continuous
 62
     7
370
    25
100
AcDbLine
 10
9.8745424003
 20
4.5481664683
 30
0.0
 11
2.1645423255
 21
4.5481664683
 31
0.0
  0
LINE
  5
B9
330
1F
100
AcDbEntity
  8
0
  6
Continuous
 62
     7
370
    25
100
AcDbLine
 10
9.8745424003
 20
4.2835213762
 30
0.0
 11
9.8745424003
 21
4.5481664683
 31
0.0
  0
ARC
  5
BA
330
1F
100
AcDbEntity
  8
0
  6
Continuous
 62
     7
370
    25
100
AcDbCircle
 10
9.8922200436
 20
4.2658439385
 30
0.0
 40
0.0249999999999999
100
AcDbArc
 50
135.0
 51
315.0
  0
LINE
  5
BB
330
1F
100
AcDbEntity
  8
0
  6
Continuous
 62
     7
370
    25
100
AcDbLine
 10
9.9945425074
 20
4.2481664352
 30
0.0
 11
9.9098978105
 21
4.2481664352
 31
0.0
  0
LINE
  5
BC
330
1F
100
AcDbEntity
  8
0
  6
Continuous
 62
     7
370
    25
100
AcDbLine
 10
2.0445423358
 20
4.2481664352
 30
0.0
 11
2.1291870326
 21
4.2481664352
 31
0.0
  0
LINE
  5
BD
330
1F
100
AcDbEntity
  8
0
  6
Continuous
 62
     7
370
    25
100
AcDbLine
 10
7.1320423486
 20
3.5128110261
 30
0.0
 11
7.1320423486
 21
3.4031661701
 31
0.0
  0
LINE
  5
BE
330
1F
100
AcDbEntity
  8
0
  6
Continuous
 62
     7
370
    25
100
AcDbLine
 10
2.1645423255
 20
4.5481664683
 30
0.0
 11
2.0220424037
 21
4.5481664683
 31
0.0
  0
LINE
  5
BF
330
1F
100
AcDbEntity
  8
0
  6
Continuous
 62
     7
370
    25
100
AcDbLine
 10
2.1645423255
 20
4.2606660455
 30
0.0
 11
2.1645423255
 21
4.5481664683
 31
0.0
  0
LINE
  5
C0
330
1F
100
AcDbEntity
  8
0
  6
Continuous
 62
     7
370
    25
100
AcDbLine
 10
2.1645423255
 20
4.2606660455
 30
0.0
 11
2.0220424037
 21
4.2606660455
 31
0.0
  0
LINE
  5
C1
330
1F
100
AcDbEntity
  8
0
  6
Continuous
 62
     7
370
    25
100
AcDbLine
 10
2.0220424037
 20
4.2606660455
 30
0.0
 11
2.0220424037
 21
4.5481664683
 31
0.0
  0
LINE
  5
C2
330
1F
100
AcDbEntity
  8
0
  6
Continuous
 62
     7
370
    25
100
AcDbLine
 10
2.0220424037
 20
3.1031663717
 30
0.0
 11
2.1645423255
 21
3.1031663717
 31
0.0
  0
LINE
  5
C3
330
1F
100
AcDbEntity
  8
0
  6
Continuous
 62
     7
370
    25
100
AcDbLine
 10
2.1645423255
 20
3.8356661552
 30
0.0
 11
2.0220424037
 21
3.8356661552
 31
0.0
  0
LINE
  5
C4
330
1F
100
AcDbEntity
  8
0
  6
Continuous
 62
     7
370
    25
100
AcDbLine
 10
2.1645423255
 20
3.8356661552
 30
0.0
 11
2.1645423255
 21
3.1031663717
 31
0.0
  0
LINE
  5
C5
330
1F
100
AcDbEntity
  8
0
  6
Continuous
 62
     7
370
    25
100
AcDbLine
 10
2.0220424037
 20
3.8356661552
 30
0.0
 11
2.0220424037
 21
3.1031663717
 31
0.0
  0
LINE
  5
C6
330
1F
100
AcDbEntity
  8
0
  6
Continuous
 62
     7
370
    25
100
AcDbLine
 10
2.1645423255
 20
2.9031662715
 30
0.0
 11
2.0220424037
 21
2.9031662715
 31
0.0
  0
LINE
  5
C7
330
1F
100
AcDbEntity
  8
0
  6
Continuous
 62
     7
370
    25
100
AcDbLine
 10
2.1645423255
 20
3.1031663717
 30
0.0
 11
2.1645423255
 21
2.9031662715
 31
0.0
  0
LINE
  5
C8
330
1F
100
AcDbEntity
  8
0
  6
Continuous
 62
     7
370
    25
100
AcDbLine
 10
2.0220424037
 20
2.9031662715
 30
0.0
 11
2.0220424037
 21
3.1031663717
 31
0.0
  0
LINE
  5
C9
330
1F
100
AcDbEntity
  8
0
  6
Continuous
 62
     7
370
    25
100
AcDbLine
 10
2.1645423255
 20
4.2481664352
 30
0.0
 11
2.1645423255
 21
4.2606660455
 31
0.0
  0
LINE
  5
CA
330
1F
100
AcDbEntity
  8
0
  6
Continuous
 62
     7
370
    25
100
AcDbLine
 10
2.0220424037
 20
4.2340636008
 30
0.0
 11
2.0220424037
 21
4.2606660455
 31
0.0
  0
LINE
  5
CB
330
1F
100
AcDbEntity
  8
0
  6
Continuous
 62
     7
370
    25
100
AcDbLine
 10
2.1645423255
 20
3.8356661552
 30
0.0
 11
2.1645423255
 21
3.8481662347
 31
0.0
  0
LINE
  5
CC
330
1F
100
AcDbEntity
  8
0
  6
Continuous
 62
     7
370
    25
100
AcDbLine
 10
2.0220424037
 20
3.8356661552
 30
0.0
 11
2.0220424037
 21
3.8622690692
 31
0.0
  0
LINE
  5
CD
330
1F
100
AcDbEntity
  8
0
  6
Continuous
 62
     7
370
    25
100
AcDbLine
 10
9.8770425101
 20
3.8356661552
 30
0.0
 11
10.0195421972
 21
3.8356661552
 31
0.0
  0
LINE
  5
CE
330
1F
100
AcDbEntity
  8
0
  6
Continuous
 62
     7
370
    25
100
AcDbLine
 10
10.0195421972
 20
3.8356661552
 30
0.0
 11
10.0195421972
 21
3.1031663717
 31
0.0
  0
LINE
  5
CF
330
1F
100
AcDbEntity
  8
0
  6
Continuous
 62
     7
370
    25
100
AcDbLine
 10
9.8770425101
 20
3.1031663717
 30
0.0
 11
10.0195421972
 21
3.1031663717
 31
0.0
  0
LINE
  5
D0
330
1F
100
AcDbEntity
  8
0
  6
Continuous
 62
     7
370
    25
100
AcDbLine
 10
9.8770425101
 20
3.8356661552
 30
0.0
 11
9.8770425101
 21
3.5481662017
 31
0.0
  0
LINE
  5
D1
330
1F
100
AcDbEntity
  8
0
  6
Continuous
 62
     7
370
    25
100
AcDbLine
 10
9.8770425101
 20
3.4031661701
 30
0.0
 11
9.8770425101
 21
3.1031663717
 31
0.0
  0
LINE
  5
D2
330
1F
100
AcDbEntity
  8
0
  6
Continuous
 62
     7
370
    25
100
AcDbLine
 10
10.0195421972
 20
3.1031663717
 30
0.0
 11
10.0195421972
 21
2.9031662715
 31
0.0
  0
LINE
  5
D3
330
1F
100
AcDbEntity
  8
0
  6
Continuous
 62
     7
370
    25
100
AcDbLine
 10
10.0195421972
 20
2.9031662715
 30
0.0
 11
9.8770425101
 21
2.9031662715
 31
0.0
  0
LINE
  5
D4
330
1F
100
AcDbEntity
  8
0
  6
Continuous
 62
     7
370
    25
100
AcDbLine
 10
9.8770425101
 20
2.9031662715
 30
0.0
 11
9.8770425101
 21
3.1031663717
 31
0.0
  0
LINE
  5
D5
330
1F
100
AcDbEntity
  8
0
  6
Continuous
 62
     7
370
    25
100
AcDbLine
 10
9.8770425101
 20
4.2606660455
 30
0.0
 11
9.8770425101
 21
4.5481664683
 31
0.0
  0
LINE
  5
D6
330
1F
100
AcDbEntity
  8
0
  6
Continuous
 62
     7
370
    25
100
AcDbLine
 10
10.0195421972
 20
4.2606660455
 30
0.0
 11
10.0195421972
 21
4.5481664683
 31
0.0
  0
LINE
  5
D7
330
1F
100
AcDbEntity
  8
0
  6
Continuous
 62
     7
370
    25
100
AcDbLine
 10
9.8770425101
 20
4.5481664683
 30
0.0
 11
10.0195421972
 21
4.5481664683
 31
0.0
  0
LINE
  5
D8
330
1F
100
AcDbEntity
  8
0
  6
Continuous
 62
     7
370
    25
100
AcDbLine
 10
9.8770425101
 20
4.2606660455
 30
0.0
 11
10.0195421972
 21
4.2606660455
 31
0.0
  0
LINE
  5
D9
330
1F
100
AcDbEntity
  8
0
  6
Continuous
 62
     7
370
    25
100
AcDbLine
 10
10.019450209
 20
4.2253111046
 30
0.0
 11
10.0195421972
 21
4.2253111046
 31
0.0
  0
LINE
  5
DA
330
1F
100
AcDbEntity
  8
0
  6
Continuous
 62
     7
370
    25
100
AcDbLine
 10
10.0195421972
 20
4.2253111046
 30
0.0
 11
10.0195421972
 21
4.2606660455
 31
0.0
  0
LINE
  5
DB
330
1F
100
AcDbEntity
  8
0
  6
Continuous
 62
     7
370
    25
100
AcDbLine
 10
9.8770425101
 20
4.2459784285
 30
0.0
 11
9.8770425101
 21
4.2606660455
 31
0.0
  0
LINE
  5
DC
330
1F
100
AcDbEntity
  8
0
  6
Continuous
 62
     7
370
    25
100
AcDbLine
 10
10.019450209
 20
3.8710215654
 30
0.0
 11
10.0195421972
 21
3.8710215654
 31
0.0
  0
LINE
  5
DD
330
1F
100
AcDbEntity
  8
0
  6
Continuous
 62
     7
370
    25
100
AcDbLine
 10
10.0195421972
 20
3.8356661552
 30
0.0
 11
10.0195421972
 21
3.8710215654
 31
0.0
  0
LINE
  5
DE
330
1F
100
AcDbEntity
  8
0
  6
Continuous
 62
     7
370
    25
100
AcDbLine
 10
9.8770425101
 20
3.8356661552
 30
0.0
 11
9.8770425101
 21
3.8503542415
 31
0.0
  0
LINE
  5
DF
330
1F
100
AcDbEntity
  8
0
  6
Continuous
 62
     7
370
    25
100
AcDbLine
 10
10.0195421972
 20
4.2253111046
 30
0.0
 11
10.0195421972
 21
4.2231662761
 31
0.0
  0
LINE
  5
E0
330
1F
100
AcDbEntity
  8
0
  6
Continuous
 62
     7
370
    25
100
AcDbLine
 10
10.0195421972
 20
3.8710215654
 30
0.0
 11
10.0195421972
 21
3.8731663939
 31
0.0
  0
LINE
  5
E1
330
1F
100
AcDbEntity
  8
0
  6
Continuous
 62
     7
370
    25
100
AcDbLine
 10
2.9220423855
 20
3.4031661701
 30
0.0
 11
2.9220423855
 21
3.5481662017
 31
0.0
  0
LINE
  5
E2
330
1F
100
AcDbEntity
  8
0
  6
Continuous
 62
     7
370
    25
100
AcDbLine
 10
2.167042318
 20
3.4031661701
 30
0.0
 11
2.9220423855
 21
3.4031661701
 31
0.0
  0
LINE
  5
E3
330
1F
100
AcDbEntity
  8
0
  6
Continuous
 62
     7
370
    25
100
AcDbLine
 10
2.167042318
 20
3.5481662017
 30
0.0
 11
2.9220423855
 21
3.5481662017
 31
0.0
  0
LINE
  5
E4
330
1F
100
AcDbEntity
  8
0
  6
Continuous
 62
     7
370
    25
100
AcDbLine
 10
2.167042318
 20
3.4031661701
 30
0.0
 11
2.167042318
 21
3.5481662017
 31
0.0
  0
LINE
  5
E5
330
1F
100
AcDbEntity
  8
0
  6
Continuous
 62
     7
370
    25
100
AcDbLine
 10
3.5220423709
 20
3.5481662017
 30
0.0
 11
3.5220423709
 21
3.4031661701
 31
0.0
  0
LINE
  5
E6
330
1F
100
AcDbEntity
  8
0
  6
Continuous
 62
     7
370
    25
100
AcDbLine
 10
3.5220423709
 20
3.4031661701
 30
0.0
 11
4.3220423833
 21
3.4031661701
 31
0.0
  0
LINE
  5
E7
330
1F
100
AcDbEntity
  8
0
  6
Continuous
 62
     7
370
    25
100
AcDbLine
 10
4.3220423833
 20
3.4031661701
 30
0.0
 11
4.3220423833
 21
3.5481662017
 31
0.0
  0
LINE
  5
E8
330
1F
100
AcDbEntity
  8
0
  6
Continuous
 62
     7
370
    25
100
AcDbLine
 10
3.5220423709
 20
3.5481662017
 30
0.0
 11
4.3220423833
 21
3.5481662017
 31
0.0
  0
LINE
  5
E9
330
1F
100
AcDbEntity
  8
0
  6
Continuous
 62
     7
370
    25
100
AcDbLine
 10
7.7220422102
 20
3.4031661701
 30
0.0
 11
8.5220421418
 21
3.4031661701
 31
0.0
  0
LINE
  5
EA
330
1F
100
AcDbEntity
  8
0
  6
Continuous
 62
     7
370
    25
100
AcDbLine
 10
8.5220421418
 20
3.4031661701
 30
0.0
 11
8.5220421418
 21
3.5481662017
 31
0.0
  0
LINE
  5
EB
330
1F
100
AcDbEntity
  8
0
  6
Continuous
 62
     7
370
    25
100
AcDbLine
 10
7.7220422102
 20
3.5481662017
 30
0.0
 11
7.7220422102
 21
3.4031661701
 31
0.0
  0
LINE
  5
EC
330
1F
100
AcDbEntity
  8
0
  6
Continuous
 62
     7
370
    25
100
AcDbLine
 10
7.7220422102
 20
3.5481662017
 30
0.0
 11
8.5220421418
 21
3.5481662017
 31
0.0
  0
LINE
  5
ED
330
1F
100
AcDbEntity
  8
0
  6
Continuous
 62
     7
370
    25
100
AcDbLine
 10
6.3220424471
 20
3.4031661701
 30
0.0
 11
7.1220423787
 21
3.4031661701
 31
0.0
  0
LINE
  5
EE
330
1F
100
AcDbEntity
  8
0
  6
Continuous
 62
     7
370
    25
100
AcDbLine
 10
7.1220423787
 20
3.4031661701
 30
0.0
 11
7.1220423787
 21
3.5481662017
 31
0.0
  0
LINE
  5
EF
330
1F
100
AcDbEntity
  8
0
  6
Continuous
 62
     7
370
    25
100
AcDbLine
 10
6.3220424471
 20
3.5481662017
 30
0.0
 11
6.3220424471
 21
3.4031661701
 31
0.0
  0
LINE
  5
F0
330
1F
100
AcDbEntity
  8
0
  6
Continuous
 62
     7
370
    25
100
AcDbLine
 10
6.3220424471
 20
3.5481662017
 30
0.0
 11
7.1220423787
 21
3.5481662017
 31
0.0
  0
LINE
  5
F1
330
1F
100
AcDbEntity
  8
0
  6
Continuous
 62
     7
370
    25
100
AcDbLine
 10
9.1220422079
 20
3.4031661701
 30
0.0
 11
9.8770425101
 21
3.4031661701
 31
0.0
  0
LINE
  5
F2
330
1F
100
AcDbEntity
  8
0
  6
Continuous
 62
     7
370
    25
100
AcDbLine
 10
9.8770425101
 20
3.4031661701
 30
0.0
 11
9.8770425101
 21
3.5481662017
 31
0.0
  0
LINE
  5
F3
330
1F
100
AcDbEntity
  8
0
  6
Continuous
 62
     7
370
    25
100
AcDbLine
 10
9.1220422079
 20
3.5481662017
 30
0.0
 11
9.1220422079
 21
3.4031661701
 31
0.0
  0
LINE
  5
F4
330
1F
100
AcDbEntity
  8
0
  6
Continuous
 62
     7
370
    25
100
AcDbLine
 10
9.1220422079
 20
3.5481662017
 30
0.0
 11
9.8770425101
 21
3.5481662017
 31
0.0
  0
LINE
  5
F5
330
1F
100
AcDbEntity
  8
0
  6
Continuous
 62
     7
370
    25
100
AcDbLine
 10
5.722042381
 20
3.4031661701
 30
0.0
 11
5.722042381
 21
3.5481662017
 31
0.0
  0
LINE
  5
F6
330
1F
100
AcDbEntity
  8
0
  6
Continuous
 62
     7
370
    25
100
AcDbLine
 10
4.922042332
 20
3.4031661701
 30
0.0
 11
5.722042381
 21
3.4031661701
 31
0.0
  0
LINE
  5
F7
330
1F
100
AcDbEntity
  8
0
  6
Continuous
 62
     7
370
    25
100
AcDbLine
 10
4.922042332
 20
3.5481662017
 30
0.0
 11
4.922042332
 21
3.4031661701
 31
0.0
  0
LINE
  5
F8
330
1F
100
AcDbEntity
  8
0
  6
Continuous
 62
     7
370
    25
100
AcDbLine
 10
4.922042332
 20
3.5481662017
 30
0.0
 11
5.722042381
 21
3.5481662017
 31
0.0
  0
LINE
  5
F9
330
1F
100
AcDbEntity
  8
0
  6
Continuous
 62
     7
370
    25
100
AcDbLine
 10
6.3220424471
 20
3.4031661701
 30
0.0
 11
6.3070422577
 21
3.4031661701
 31
0.0
  0
LINE
  5
FA
330
1F
100
AcDbEntity
  8
0
  6
Continuous
 62
     7
370
    25
100
AcDbLine
 10
6.3220424471
 20
3.5481662017
 30
0.0
 11
6.3070422577
 21
3.5481662017
 31
0.0
  0
LINE
  5
FB
330
1F
100
AcDbEntity
  8
0
  6
Continuous
 62
     7
370
    25
100
AcDbLine
 10
3.5220423709
 20
3.4031661701
 30
0.0
 11
3.5070423722
 21
3.4031661701
 31
0.0
  0
LINE
  5
FC
330
1F
100
AcDbEntity
  8
0
  6
Continuous
 62
     7
370
    25
100
AcDbLine
 10
3.5220423709
 20
3.5481662017
 30
0.0
 11
3.5070423722
 21
3.5481662017
 31
0.0
  0
LINE
  5
FD
330
1F
100
AcDbEntity
  8
0
  6
Continuous
 62
     7
370
    25
100
AcDbLine
 10
7.7220422102
 20
3.4031661701
 30
0.0
 11
7.7070424901
 21
3.4031661701
 31
0.0
  0
LINE
  5
FE
330
1F
100
AcDbEntity
  8
0
  6
Continuous
 62
     7
370
    25
100
AcDbLine
 10
7.7220422102
 20
3.5481662017
 30
0.0
 11
7.7070424901
 21
3.5481662017
 31
0.0
  0
LINE
  5
FF
330
1F
100
AcDbEntity
  8
0
  6
Continuous
 62
     7
370
    25
100
AcDbLine
 10
4.3320423531
 20
3.4031661701
 30
0.0
 11
4.3220423833
 21
3.4031661701
 31
0.0
  0
LINE
  5
100
330
1F
100
AcDbEntity
  8
0
  6
Continuous
 62
     7
370
    25
100
AcDbLine
 10
4.3320423531
 20
3.5481662017
 30
0.0
 11
4.3220423833
 21
3.5481662017
 31
0.0
  0
LINE
  5
101
330
1F
100
AcDbEntity
  8
0
  6
Continuous
 62
     7
370
    25
100
AcDbLine
 10
7.1320423486
 20
3.4031661701
 30
0.0
 11
7.1220423787
 21
3.4031661701
 31
0.0
  0
LINE
  5
102
330
1F
100
AcDbEntity
  8
0
  6
Continuous
 62
     7
370
    25
100
AcDbLine
 10
7.1320423486
 20
3.5481662017
 30
0.0
 11
7.1220423787
 21
3.5481662017
 31
0.0
  0
LINE
  5
103
330
1F
100
AcDbEntity
  8
0
  6
Continuous
 62
     7
370
    25
100
AcDbLine
 10
4.922042332
 20
3.4031661701
 30
0.0
 11
4.9070423773
 21
3.4031661701
 31
0.0
  0
LINE
  5
104
330
1F
100
AcDbEntity
  8
0
  6
Continuous
 62
     7
370
    25
100
AcDbLine
 10
4.922042332
 20
3.5481662017
 30
0.0
 11
4.9070423773
 21
3.5481662017
 31
0.0
  0
LINE
  5
105
330
1F
100
AcDbEntity
  8
0
  6
Continuous
 62
     7
370
    25
100
AcDbLine
 10
8.532042581
 20
3.4031661701
 30
0.0
 11
8.5220421418
 21
3.4031661701
 31
0.0
  0
LINE
  5
106
330
1F
100
AcDbEntity
  8
0
  6
Continuous
 62
     7
370
    25
100
AcDbLine
 10
8.532042581
 20
3.5481662017
 30
0.0
 11
8.5220421418
 21
3.5481662017
 31
0.0
  0
LINE
  5
107
330
1F
100
AcDbEntity
  8
0
  6
Continuous
 62
     7
370
    25
100
AcDbLine
 10
9.1220422079
 20
3.4031661701
 30
0.0
 11
9.1070424879
 21
3.4031661701
 31
0.0
  0
LINE
  5
108
330
1F
100
AcDbEntity
  8
0
  6
Continuous
 62
     7
370
    25
100
AcDbLine
 10
9.1220422079
 20
3.5481662017
 30
0.0
 11
9.1070424879
 21
3.5481662017
 31
0.0
  0
LINE
  5
109
330
1F
100
AcDbEntity
  8
0
  6
Continuous
 62
     7
370
    25
100
AcDbLine
 10
2.9320423553
 20
3.4031661701
 30
0.0
 11
2.9220423855
 21
3.4031661701
 31
0.0
  0
LINE
  5
10A
330
1F
100
AcDbEntity
  8
0
  6
Continuous
 62
     7
370
    25
100
AcDbLine
 10
2.9320423553
 20
3.5481662017
 30
0.0
 11
2.9220423855
 21
3.5481662017
 31
0.0
  0
LINE
  5
10B
330
1F
100
AcDbEntity
  8
0
  6
Continuous
 62
     7
370
    25
100
AcDbLine
 10
5.7320423508
 20
3.4031661701
 30
0.0
 11
5.722042381
 21
3.4031661701
 31
0.0
  0
LINE
  5
10C
330
1F
100
AcDbEntity
  8
0
  6
Continuous
 62
     7
370
    25
100
AcDbLine
 10
5.7320423508
 20
3.5481662017
 30
0.0
 11
5.722042381
 21
3.5481662017
 31
0.0
  0
LINE
  5
10D
330
1F
100
AcDbEntity
  8
0
  6
Continuous
 62
     7
370
    25
100
AcDbLine
 10
2.1645423255
 20
3.4031661701
 30
0.0
 11
2.167042318
 21
3.4031661701
 31
0.0
  0
LINE
  5
10E
330
1F
100
AcDbEntity
  8
0
  6
Continuous
 62
     7
370
    25
100
AcDbLine
 10
10.022042307
 20
3.5481662017
 30
0.0
 11
10.022042307
 21
3.4031661701
 31
0.0
  0
LINE
  5
10F
330
1F
100
AcDbEntity
  8
0
  6
Continuous
 62
     7
370
    25
100
AcDbLine
 10
10.022042307
 20
3.4031661701
 30
0.0
 11
10.0195421972
 21
3.4031661701
 31
0.0
  0
LINE
  5
110
330
1F
100
AcDbEntity
  8
0
  6
Continuous
 62
     7
370
    25
100
AcDbLine
 10
10.0195421972
 20
3.5481662017
 30
0.0
 11
10.022042307
 21
3.5481662017
 31
0.0
  0
DIMENSION
  5
111
330
1F
100
AcDbEntity
  8
0
  6
Continuous
 62
     7
370
    18
100
AcDbDimension
  2
_D
 10
10.4157431614
 20
2.903166269
 30
0.0
 11
10.4157431614
 21
3.725666269
 31
0.0
 70
   160
  1
<>
 71
     2
 42
-1.0
  3
SLDDIMSTYLE0
100
AcDbAlignedDimension
 13
9.874542374
 23
4.548166269
 33
0.0
 14
9.877042374
 24
2.903166269
 34
0.0
 50
90.0
100
AcDbRotatedDimension
  0
DIMENSION
  5
11C
330
1F
100
AcDbEntity
  8
0
  6
Continuous
 62
     7
370
    18
100
AcDbDimension
  2
_D_1
 10
9.877042374
 20
2.5094654816
 30
0.0
 11
6.020792374
 21
2.5094654816
 31
0.0
 70
   160
  1
<>
 71
     2
 42
-1.0
  3
SLDDIMSTYLE0
100
AcDbAlignedDimension
 13
2.164542374
 23
2.903166269
 33
0.0
 14
9.877042374
 24
2.903166269
 34
0.0
 50
0.0
100
AcDbRotatedDimension
  0
LINE
  5
126
330
1F
100
AcDbEntity
  8
0
  6
Continuous
 62
     7
370
    25
100
AcDbLine
 10
12.01181328
 20
3.8481662347
 30
0.0
 11
11.8668130137
 21
3.8481662347
 31
0.0
  0
LINE
  5
127
330
1F
100
AcDbEntity
  8
0
  6
Continuous
 62
     7
370
    25
100
AcDbLine
 10
11.8668130137
 20
3.8481662347
 30
0.0
 11
11.8668130137
 21
3.8731663939
 31
0.0
  0
LINE
  5
128
330
1F
100
AcDbEntity
  8
0
  6
Continuous
 62
     7
370
    25
100
AcDbLine
 10
11.8668130137
 20
3.8731663939
 30
0.0
 11
12.01181328
 21
3.8731663939
 31
0.0
  0
LINE
  5
129
330
1F
100
AcDbEntity
  8
0
  6
Continuous
 62
     7
370
    25
100
AcDbLine
 10
12.01181328
 20
3.8681042231
 30
0.0
 11
12.01181328
 21
3.8481662347
 31
0.0
  0
LINE
  5
12A
330
1F
100
AcDbEntity
  8
0
  6
Continuous
 62
     7
370
    25
100
AcDbLine
 10
11.8668130137
 20
3.8731663939
 30
0.0
 11
11.8668130137
 21
4.2231662761
 31
0.0
  0
LINE
  5
12B
330
1F
100
AcDbEntity
  8
0
  6
Continuous
 62
     7
370
    25
100
AcDbLine
 10
12.01181328
 20
4.2231662761
 30
0.0
 11
11.8668130137
 21
4.2231662761
 31
0.0
  0
LINE
  5
12C
330
1F
100
AcDbEntity
  8
0
  6
Continuous
 62
     7
370
    25
100
AcDbLine
 10
12.01181328
 20
3.8731663939
 30
0.0
 11
12.01181328
 21
4.2231662761
 31
0.0
  0
LINE
  5
12D
330
1F
100
AcDbEntity
  8
0
  6
Continuous
 62
     7
370
    25
100
AcDbLine
 10
11.8668130137
 20
4.2481664352
 30
0.0
 11
12.01181328
 21
4.2481664352
 31
0.0
  0
LINE
  5
12E
330
1F
100
AcDbEntity
  8
0
  6
Continuous
 62
     7
370
    25
100
AcDbLine
 10
11.8668130137
 20
4.2231662761
 30
0.0
 11
11.8668130137
 21
4.2481664352
 31
0.0
  0
LINE
  5
12F
330
1F
100
AcDbEntity
  8
0
  6
Continuous
 62
     7
370
    25
100
AcDbLine
 10
12.01181328
 20
4.2481664352
 30
0.0
 11
12.01181328
 21
4.2282284469
 31
0.0
  0
LINE
  5
130
330
1F
100
AcDbEntity
  8
0
  6
Continuous
 62
     7
370
    25
100
AcDbLine
 10
11.8668130137
 20
3.8481662347
 30
0.0
 11
11.8668130137
 21
3.8356661552
 31
0.0
  0
LINE
  5
131
330
1F
100
AcDbEntity
  8
0
  6
Continuous
 62
     7
370
    25
100
AcDbLine
 10
12.01181328
 20
3.8481662347
 30
0.0
 11
12.01181328
 21
3.8385839668
 31
0.0
  0
LINE
  5
132
330
1F
100
AcDbEntity
  8
0
  6
Continuous
 62
     7
370
    25
100
AcDbLine
 10
11.8668130137
 20
4.2481664352
 30
0.0
 11
11.8668130137
 21
4.2606660455
 31
0.0
  0
LINE
  5
133
330
1F
100
AcDbEntity
  8
0
  6
Continuous
 62
     7
370
    25
100
AcDbLine
 10
12.01181328
 20
4.2481664352
 30
0.0
 11
12.01181328
 21
4.2577487032
 31
0.0
  0
LINE
  5
134
330
1F
100
AcDbEntity
  8
0
  6
Continuous
 62
     7
370
    25
100
AcDbLine
 10
13.4193131378
 20
3.8731663939
 30
0.0
 11
13.5643134041
 21
3.8731663939
 31
0.0
  0
LINE
  5
135
330
1F
100
AcDbEntity
  8
0
  6
Continuous
 62
     7
370
    25
100
AcDbLine
 10
13.4193131378
 20
3.8731663939
 30
0.0
 11
13.4193131378
 21
4.2231662761
 31
0.0
  0
LINE
  5
136
330
1F
100
AcDbEntity
  8
0
  6
Continuous
 62
     7
370
    25
100
AcDbLine
 10
13.5643134041
 20
4.2231662761
 30
0.0
 11
13.4193131378
 21
4.2231662761
 31
0.0
  0
LINE
  5
137
330
1F
100
AcDbEntity
  8
0
  6
Continuous
 62
     7
370
    25
100
AcDbLine
 10
13.5643134041
 20
3.8731663939
 30
0.0
 11
13.5643134041
 21
4.2231662761
 31
0.0
  0
LINE
  5
138
330
1F
100
AcDbEntity
  8
0
  6
Continuous
 62
     7
370
    25
100
AcDbLine
 10
13.4193131378
 20
4.2481664352
 30
0.0
 11
13.5643134041
 21
4.2481664352
 31
0.0
  0
LINE
  5
139
330
1F
100
AcDbEntity
  8
0
  6
Continuous
 62
     7
370
    25
100
AcDbLine
 10
13.4193131378
 20
4.2282284469
 30
0.0
 11
13.4193131378
 21
4.2481664352
 31
0.0
  0
LINE
  5
13A
330
1F
100
AcDbEntity
  8
0
  6
Continuous
 62
     7
370
    25
100
AcDbLine
 10
13.5643134041
 20
4.2481664352
 30
0.0
 11
13.5643134041
 21
4.2231662761
 31
0.0
  0
LINE
  5
13B
330
1F
100
AcDbEntity
  8
0
  6
Continuous
 62
     7
370
    25
100
AcDbLine
 10
13.5643134041
 20
3.8481662347
 30
0.0
 11
13.4193131378
 21
3.8481662347
 31
0.0
  0
LINE
  5
13C
330
1F
100
AcDbEntity
  8
0
  6
Continuous
 62
     7
370
    25
100
AcDbLine
 10
13.4193131378
 20
3.8481662347
 30
0.0
 11
13.4193131378
 21
3.8681042231
 31
0.0
  0
LINE
  5
13D
330
1F
100
AcDbEntity
  8
0
  6
Continuous
 62
     7
370
    25
100
AcDbLine
 10
13.5643134041
 20
3.8731663939
 30
0.0
 11
13.5643134041
 21
3.8481662347
 31
0.0
  0
LINE
  5
13E
330
1F
100
AcDbEntity
  8
0
  6
Continuous
 62
     7
370
    25
100
AcDbLine
 10
13.4193131378
 20
3.8481662347
 30
0.0
 11
13.4193131378
 21
3.8385839668
 31
0.0
  0
LINE
  5
13F
330
1F
100
AcDbEntity
  8
0
  6
Continuous
 62
     7
370
    25
100
AcDbLine
 10
13.5643134041
 20
3.8481662347
 30
0.0
 11
13.5643134041
 21
3.8356661552
 31
0.0
  0
LINE
  5
140
330
1F
100
AcDbEntity
  8
0
  6
Continuous
 62
     7
370
    25
100
AcDbLine
 10
13.4193131378
 20
4.2481664352
 30
0.0
 11
13.4193131378
 21
4.2577487032
 31
0.0
  0
LINE
  5
141
330
1F
100
AcDbEntity
  8
0
  6
Continuous
 62
     7
370
    25
100
AcDbLine
 10
13.5643134041
 20
4.2481664352
 30
0.0
 11
13.5643134041
 21
4.2606660455
 31
0.0
  0
ARC
  5
142
330
1F
100
AcDbEntity
  8
0
  6
Continuous
 62
     7
370
    25
100
AcDbCircle
 10
12.8707408541
 20
3.4208439385
 30
0.0
 40
0.0250000000000006
100
AcDbArc
 50
135.0
 51
315.0
  0
ARC
  5
143
330
1F
100
AcDbEntity
  8
0
  6
Continuous
 62
     7
370
    25
100
AcDbCircle
 10
13.260385515
 20
3.4208439385
 30
0.0
 40
0.0250000000000006
100
AcDbArc
 50
225.0
 51
45.0
  0
LINE
  5
144
330
1F
100
AcDbEntity
  8
0
  6
Continuous
 62
     7
370
    25
100
AcDbLine
 10
13.2780632709
 20
3.5128110261
 30
0.0
 11
13.2780632709
 21
3.4385215803
 31
0.0
  0
ARC
  5
145
330
1F
100
AcDbEntity
  8
0
  6
Continuous
 62
     7
370
    25
100
AcDbCircle
 10
13.260385515
 20
3.5304885994
 30
0.0
 40
0.0250000000000003
100
AcDbArc
 50
315.0
 51
135.0
  0
ARC
  5
146
330
1F
100
AcDbEntity
  8
0
  6
Continuous
 62
     7
370
    25
100
AcDbCircle
 10
12.8707408541
 20
3.5304885994
 30
0.0
 40
0.0250000000000009
100
AcDbArc
 50
45.0
 51
225.0
  0
LINE
  5
147
330
1F
100
AcDbEntity
  8
0
  6
Continuous
 62
     7
370
    25
100
AcDbLine
 10
12.8530633805
 20
3.5128110261
 30
0.0
 11
12.8530633805
 21
3.4385215803
 31
0.0
  0
ARC
  5
148
330
1F
100
AcDbEntity
  8
0
  6
Continuous
 62
     7
370
    25
100
AcDbCircle
 10
12.1707408541
 20
3.5304885994
 30
0.0
 40
0.0250000000000009
100
AcDbArc
 50
45.0
 51
225.0
  0
LINE
  5
149
330
1F
100
AcDbEntity
  8
0
  6
Continuous
 62
     7
370
    25
100
AcDbLine
 10
12.1530631469
 20
3.5128110261
 30
0.0
 11
12.1530631469
 21
3.4385215803
 31
0.0
  0
ARC
  5
14A
330
1F
100
AcDbEntity
  8
0
  6
Continuous
 62
     7
370
    25
100
AcDbCircle
 10
12.1707408541
 20
3.4208439385
 30
0.0
 40
0.0250000000000006
100
AcDbArc
 50
135.0
 51
315.0
  0
ARC
  5
14B
330
1F
100
AcDbEntity
  8
0
  6
Continuous
 62
     7
370
    25
100
AcDbCircle
 10
12.560385515
 20
3.4208439385
 30
0.0
 40
0.0250000000000006
100
AcDbArc
 50
225.0
 51
45.0
  0
LINE
  5
14C
330
1F
100
AcDbEntity
  8
0
  6
Continuous
 62
     7
370
    25
100
AcDbLine
 10
12.5780630373
 20
3.5128110261
 30
0.0
 11
12.5780630373
 21
3.4385215803
 31
0.0
  0
ARC
  5
14D
330
1F
100
AcDbEntity
  8
0
  6
Continuous
 62
     7
370
    25
100
AcDbCircle
 10
12.560385515
 20
3.5304885994
 30
0.0
 40
0.0250000000000009
100
AcDbArc
 50
315.0
 51
135.0
  0
LINE
  5
14E
330
1F
100
AcDbEntity
  8
0
  6
Continuous
 62
     7
370
    25
100
AcDbLine
 10
13.4218132476
 20
4.2231662761
 30
0.0
 11
13.420562958
 21
4.2231662761
 31
0.0
  0
LINE
  5
14F
330
1F
100
AcDbEntity
  8
0
  6
Continuous
 62
     7
370
    25
100
AcDbLine
 10
13.420562958
 20
4.2231662761
 30
0.0
 11
13.420562958
 21
3.8731663939
 31
0.0
  0
LINE
  5
150
330
1F
100
AcDbEntity
  8
0
  6
Continuous
 62
     7
370
    25
100
AcDbLine
 10
13.420562958
 20
3.8731663939
 30
0.0
 11
13.4218132476
 21
3.8731663939
 31
0.0
  0
LINE
  5
151
330
1F
100
AcDbEntity
  8
0
  6
Continuous
 62
     7
370
    25
100
AcDbLine
 10
13.4218132476
 20
3.8710215654
 30
0.0
 11
13.4218132476
 21
3.8731663939
 31
0.0
  0
ARC
  5
152
330
1F
100
AcDbEntity
  8
0
  6
Continuous
 62
     7
370
    25
100
AcDbCircle
 10
13.4394908541
 20
3.8533439385
 30
0.0
 40
0.0250000000000009
100
AcDbArc
 50
135.0
 51
315.0
  0
LINE
  5
153
330
1F
100
AcDbEntity
  8
0
  6
Continuous
 62
     7
370
    25
100
AcDbLine
 10
13.4571686578
 20
3.8356661552
 30
0.0
 11
13.5643134041
 21
3.8356661552
 31
0.0
  0
LINE
  5
154
330
1F
100
AcDbEntity
  8
0
  6
Continuous
 62
     7
370
    25
100
AcDbLine
 10
13.5643134041
 20
3.8356661552
 30
0.0
 11
13.5643134041
 21
3.1031663717
 31
0.0
  0
LINE
  5
155
330
1F
100
AcDbEntity
  8
0
  6
Continuous
 62
     7
370
    25
100
AcDbLine
 10
12.0668133486
 20
2.9031662715
 30
0.0
 11
13.3643130692
 21
2.9031662715
 31
0.0
  0
LINE
  5
156
330
1F
100
AcDbEntity
  8
0
  6
Continuous
 62
     7
370
    25
100
AcDbLine
 10
11.8668130137
 20
3.8356661552
 30
0.0
 11
11.8668130137
 21
3.1031663717
 31
0.0
  0
LINE
  5
157
330
1F
100
AcDbEntity
  8
0
  6
Continuous
 62
     7
370
    25
100
AcDbLine
 10
11.97395776
 20
3.8356661552
 30
0.0
 11
11.8668130137
 21
3.8356661552
 31
0.0
  0
ARC
  5
158
330
1F
100
AcDbEntity
  8
0
  6
Continuous
 62
     7
370
    25
100
AcDbCircle
 10
11.991635515
 20
3.8533439385
 30
0.0
 40
0.0250000000000003
100
AcDbArc
 50
225.0
 51
45.0
  0
LINE
  5
159
330
1F
100
AcDbEntity
  8
0
  6
Continuous
 62
     7
370
    25
100
AcDbLine
 10
12.0093131702
 20
3.8710215654
 30
0.0
 11
12.0093131702
 21
3.8731663939
 31
0.0
  0
LINE
  5
15A
330
1F
100
AcDbEntity
  8
0
  6
Continuous
 62
     7
370
    25
100
AcDbLine
 10
12.0105629905
 20
3.8731663939
 30
0.0
 11
12.0093131702
 21
3.8731663939
 31
0.0
  0
LINE
  5
15B
330
1F
100
AcDbEntity
  8
0
  6
Continuous
 62
     7
370
    25
100
AcDbLine
 10
12.0105629905
 20
4.2231662761
 30
0.0
 11
12.0105629905
 21
3.8731663939
 31
0.0
  0
LINE
  5
15C
330
1F
100
AcDbEntity
  8
0
  6
Continuous
 62
     7
370
    25
100
AcDbLine
 10
12.0093131702
 20
4.2231662761
 30
0.0
 11
12.0105629905
 21
4.2231662761
 31
0.0
  0
LINE
  5
15D
330
1F
100
AcDbEntity
  8
0
  6
Continuous
 62
     7
370
    25
100
AcDbLine
 10
12.0093131702
 20
4.2253111046
 30
0.0
 11
12.0093131702
 21
4.2231662761
 31
0.0
  0
ARC
  5
15E
330
1F
100
AcDbEntity
  8
0
  6
Continuous
 62
     7
370
    25
100
AcDbCircle
 10
11.991635515
 20
4.2429885994
 30
0.0
 40
0.0250000000000006
100
AcDbArc
 50
315.0
 51
135.0
  0
LINE
  5
15F
330
1F
100
AcDbEntity
  8
0
  6
Continuous
 62
     7
370
    25
100
AcDbLine
 10
11.97395776
 20
4.2606660455
 30
0.0
 11
11.8668130137
 21
4.2606660455
 31
0.0
  0
LINE
  5
160
330
1F
100
AcDbEntity
  8
0
  6
Continuous
 62
     7
370
    25
100
AcDbLine
 10
11.8668130137
 20
4.2606660455
 30
0.0
 11
11.8668130137
 21
4.5481664683
 31
0.0
  0
LINE
  5
161
330
1F
100
AcDbEntity
  8
0
  6
Continuous
 62
     7
370
    25
100
AcDbLine
 10
13.5643134041
 20
4.5481664683
 30
0.0
 11
11.8668130137
 21
4.5481664683
 31
0.0
  0
LINE
  5
162
330
1F
100
AcDbEntity
  8
0
  6
Continuous
 62
     7
370
    25
100
AcDbLine
 10
13.5643134041
 20
4.2606660455
 30
0.0
 11
13.5643134041
 21
4.5481664683
 31
0.0
  0
LINE
  5
163
330
1F
100
AcDbEntity
  8
0
  6
Continuous
 62
     7
370
    25
100
AcDbLine
 10
13.4571686578
 20
4.2606660455
 30
0.0
 11
13.5643134041
 21
4.2606660455
 31
0.0
  0
ARC
  5
164
330
1F
100
AcDbEntity
  8
0
  6
Continuous
 62
     7
370
    25
100
AcDbCircle
 10
13.4394908541
 20
4.2429885994
 30
0.0
 40
0.0250000000000012
100
AcDbArc
 50
45.0
 51
225.0
  0
LINE
  5
165
330
1F
100
AcDbEntity
  8
0
  6
Continuous
 62
     7
370
    25
100
AcDbLine
 10
13.4218132476
 20
4.2253111046
 30
0.0
 11
13.4218132476
 21
4.2231662761
 31
0.0
  0
ARC
  5
166
330
1F
100
AcDbEntity
  8
0
  6
Continuous
 62
     7
370
    25
100
AcDbCircle
 10
12.0668131846
 20
3.103166269
 30
0.0
 40
0.2000000000000011
100
AcDbArc
 50
180.0
 51
270.0
  0
ARC
  5
167
330
1F
100
AcDbEntity
  8
0
  6
Continuous
 62
     7
370
    25
100
AcDbCircle
 10
13.3643131846
 20
3.103166269
 30
0.0
 40
0.2000000000000002
100
AcDbArc
 50
270.0
 51
0.0
  0
LINE
  5
168
330
1F
100
AcDbEntity
  8
0
  6
Continuous
 62
     7
370
    25
100
AcDbLine
 10
12.89056315
 20
3.5481662017
 30
0.0
 11
12.89056315
 21
3.4031661701
 31
0.0
  0
LINE
  5
169
330
1F
100
AcDbEntity
  8
0
  6
Continuous
 62
     7
370
    25
100
AcDbLine
 10
13.2405630321
 20
3.4031661701
 30
0.0
 11
13.2405630321
 21
3.5481662017
 31
0.0
  0
LINE
  5
16A
330
1F
100
AcDbEntity
  8
0
  6
Continuous
 62
     7
370
    25
100
AcDbLine
 10
12.89056315
 20
3.4031661701
 30
0.0
 11
13.2405630321
 21
3.4031661701
 31
0.0
  0
LINE
  5
16B
330
1F
100
AcDbEntity
  8
0
  6
Continuous
 62
     7
370
    25
100
AcDbLine
 10
12.89056315
 20
3.5481662017
 30
0.0
 11
13.2405630321
 21
3.5481662017
 31
0.0
  0
LINE
  5
16C
330
1F
100
AcDbEntity
  8
0
  6
Continuous
 62
     7
370
    25
100
AcDbLine
 10
13.2655631913
 20
3.5481662017
 30
0.0
 11
13.2655631913
 21
3.4031661701
 31
0.0
  0
LINE
  5
16D
330
1F
100
AcDbEntity
  8
0
  6
Continuous
 62
     7
370
    25
100
AcDbLine
 10
13.2655631913
 20
3.4031661701
 30
0.0
 11
13.2405630321
 21
3.4031661701
 31
0.0
  0
LINE
  5
16E
330
1F
100
AcDbEntity
  8
0
  6
Continuous
 62
     7
370
    25
100
AcDbLine
 10
13.2405630321
 20
3.5481662017
 30
0.0
 11
13.2655631913
 21
3.5481662017
 31
0.0
  0
LINE
  5
16F
330
1F
100
AcDbEntity
  8
0
  6
Continuous
 62
     7
370
    25
100
AcDbLine
 10
12.8655629908
 20
3.4031661701
 30
0.0
 11
12.8655629908
 21
3.5481662017
 31
0.0
  0
LINE
  5
170
330
1F
100
AcDbEntity
  8
0
  6
Continuous
 62
     7
370
    25
100
AcDbLine
 10
12.89056315
 20
3.4031661701
 30
0.0
 11
12.8655629908
 21
3.4031661701
 31
0.0
  0
LINE
  5
171
330
1F
100
AcDbEntity
  8
0
  6
Continuous
 62
     7
370
    25
100
AcDbLine
 10
12.8655629908
 20
3.5481662017
 30
0.0
 11
12.89056315
 21
3.5481662017
 31
0.0
  0
LINE
  5
172
330
1F
100
AcDbEntity
  8
0
  6
Continuous
 62
     7
370
    25
100
AcDbLine
 10
12.1905633857
 20
3.5481662017
 30
0.0
 11
12.1905633857
 21
3.4031661701
 31
0.0
  0
LINE
  5
173
330
1F
100
AcDbEntity
  8
0
  6
Continuous
 62
     7
370
    25
100
AcDbLine
 10
12.5405632678
 20
3.4031661701
 30
0.0
 11
12.5405632678
 21
3.5481662017
 31
0.0
  0
LINE
  5
174
330
1F
100
AcDbEntity
  8
0
  6
Continuous
 62
     7
370
    25
100
AcDbLine
 10
12.1905633857
 20
3.4031661701
 30
0.0
 11
12.5405632678
 21
3.4031661701
 31
0.0
  0
LINE
  5
175
330
1F
100
AcDbEntity
  8
0
  6
Continuous
 62
     7
370
    25
100
AcDbLine
 10
12.1905633857
 20
3.5481662017
 30
0.0
 11
12.5405632678
 21
3.5481662017
 31
0.0
  0
LINE
  5
176
330
1F
100
AcDbEntity
  8
0
  6
Continuous
 62
     7
370
    25
100
AcDbLine
 10
12.5655629577
 20
3.5481662017
 30
0.0
 11
12.5655629577
 21
3.4031661701
 31
0.0
  0
LINE
  5
177
330
1F
100
AcDbEntity
  8
0
  6
Continuous
 62
     7
370
    25
100
AcDbLine
 10
12.5655629577
 20
3.4031661701
 30
0.0
 11
12.5405632678
 21
3.4031661701
 31
0.0
  0
LINE
  5
178
330
1F
100
AcDbEntity
  8
0
  6
Continuous
 62
     7
370
    25
100
AcDbLine
 10
12.5405632678
 20
3.5481662017
 30
0.0
 11
12.5655629577
 21
3.5481662017
 31
0.0
  0
LINE
  5
179
330
1F
100
AcDbEntity
  8
0
  6
Continuous
 62
     7
370
    25
100
AcDbLine
 10
12.1655632265
 20
3.4031661701
 30
0.0
 11
12.1655632265
 21
3.5481662017
 31
0.0
  0
LINE
  5
17A
330
1F
100
AcDbEntity
  8
0
  6
Continuous
 62
     7
370
    25
100
AcDbLine
 10
12.1905633857
 20
3.4031661701
 30
0.0
 11
12.1655632265
 21
3.4031661701
 31
0.0
  0
LINE
  5
17B
330
1F
100
AcDbEntity
  8
0
  6
Continuous
 62
     7
370
    25
100
AcDbLine
 10
12.1655632265
 20
3.5481662017
 30
0.0
 11
12.1905633857
 21
3.5481662017
 31
0.0
  0
LINE
  5
17C
330
1F
100
AcDbEntity
  8
0
  6
Continuous
 62
     7
370
    25
100
AcDbLine
 10
13.2655631913
 20
3.4031661701
 30
0.0
 11
13.2780632709
 21
3.4031661701
 31
0.0
  0
LINE
  5
17D
330
1F
100
AcDbEntity
  8
0
  6
Continuous
 62
     7
370
    25
100
AcDbLine
 10
13.2655631913
 20
3.5481662017
 30
0.0
 11
13.2780632709
 21
3.5481662017
 31
0.0
  0
LINE
  5
17E
330
1F
100
AcDbEntity
  8
0
  6
Continuous
 62
     7
370
    25
100
AcDbLine
 10
12.5780630373
 20
3.4031661701
 30
0.0
 11
12.5655629577
 21
3.4031661701
 31
0.0
  0
LINE
  5
17F
330
1F
100
AcDbEntity
  8
0
  6
Continuous
 62
     7
370
    25
100
AcDbLine
 10
12.5780630373
 20
3.5481662017
 30
0.0
 11
12.5655629577
 21
3.5481662017
 31
0.0
  0
LINE
  5
180
330
1F
100
AcDbEntity
  8
0
  6
Continuous
 62
     7
370
    25
100
AcDbLine
 10
12.8530633805
 20
3.4031661701
 30
0.0
 11
12.8655629908
 21
3.4031661701
 31
0.0
  0
LINE
  5
181
330
1F
100
AcDbEntity
  8
0
  6
Continuous
 62
     7
370
    25
100
AcDbLine
 10
12.8530633805
 20
3.5481662017
 30
0.0
 11
12.8655629908
 21
3.5481662017
 31
0.0
  0
LINE
  5
182
330
1F
100
AcDbEntity
  8
0
  6
Continuous
 62
     7
370
    25
100
AcDbLine
 10
12.1655632265
 20
3.4031661701
 30
0.0
 11
12.1530631469
 21
3.4031661701
 31
0.0
  0
LINE
  5
183
330
1F
100
AcDbEntity
  8
0
  6
Continuous
 62
     7
370
    25
100
AcDbLine
 10
12.1655632265
 20
3.5481662017
 30
0.0
 11
12.1530631469
 21
3.5481662017
 31
0.0
  0
LINE
  5
184
330
1F
100
AcDbEntity
  8
0
  6
Continuous
 62
     7
370
    25
100
AcDbLine
 10
13.5655632243
 20
3.4031661701
 30
0.0
 11
13.5655632243
 21
3.5481662017
 31
0.0
  0
LINE
  5
185
330
1F
100
AcDbEntity
  8
0
  6
Continuous
 62
     7
370
    25
100
AcDbLine
 10
13.5643134041
 20
3.4031661701
 30
0.0
 11
13.5655632243
 21
3.4031661701
 31
0.0
  0
LINE
  5
186
330
1F
100
AcDbEntity
  8
0
  6
Continuous
 62
     7
370
    25
100
AcDbLine
 10
13.5643134041
 20
3.5481662017
 30
0.0
 11
13.5655632243
 21
3.5481662017
 31
0.0
  0
LINE
  5
187
330
1F
100
AcDbEntity
  8
0
  6
Continuous
 62
     7
370
    25
100
AcDbLine
 10
11.8655631935
 20
3.4031661701
 30
0.0
 11
11.8655631935
 21
3.5481662017
 31
0.0
  0
LINE
  5
188
330
1F
100
AcDbEntity
  8
0
  6
Continuous
 62
     7
370
    25
100
AcDbLine
 10
11.8655631935
 20
3.4031661701
 30
0.0
 11
11.8668130137
 21
3.4031661701
 31
0.0
  0
LINE
  5
189
330
1F
100
AcDbEntity
  8
0
  6
Continuous
 62
     7
370
    25
100
AcDbLine
 10
11.8655631935
 20
3.5481662017
 30
0.0
 11
11.8668130137
 21
3.5481662017
 31
0.0
  0
DIMENSION
  5
18A
330
1F
100
AcDbEntity
  8
0
  6
Continuous
 62
     7
370
    18
100
AcDbDimension
  2
_D_2
 10
11.8668131846
 20
4.9418670564
 30
0.0
 11
12.7155631846
 21
4.9418670564
 31
0.0
 70
   160
  1
<>
 71
     2
 42
-1.0
  3
SLDDIMSTYLE0
100
AcDbAlignedDimension
 13
13.5643131846
 23
4.548166269
 33
0.0
 14
11.8668131846
 24
4.548166269
 34
0.0
100
AcDbRotatedDimension
  0
LINE
  5
194
330
1F
100
AcDbEntity
  8
0
  6
Continuous
 62
     7
370
    25
100
AcDbLine
 10
9.8745424003
 20
6.6342997022
 30
0.0
 11
2.1645423255
 21
6.6342997022
 31
0.0
  0
LINE
  5
195
330
1F
100
AcDbEntity
  8
0
  6
Continuous
 62
     7
370
    25
100
AcDbLine
 10
9.8745424003
 20
6.7792999684
 30
0.0
 11
9.8745424003
 21
6.6342997022
 31
0.0
  0
LINE
  5
196
330
1F
100
AcDbEntity
  8
0
  6
Continuous
 62
     7
370
    25
100
AcDbLine
 10
9.8745424003
 20
6.7792999684
 30
0.0
 11
2.1645423255
 21
6.7792999684
 31
0.0
  0
LINE
  5
197
330
1F
100
AcDbEntity
  8
0
  6
Continuous
 62
     7
370
    25
100
AcDbLine
 10
2.1645423255
 20
6.7792999684
 30
0.0
 11
2.1645423255
 21
6.6342997022
 31
0.0
  0
LINE
  5
198
330
1F
100
AcDbEntity
  8
0
  6
Continuous
 62
     7
370
    25
100
AcDbLine
 10
9.8770425101
 20
6.6342997022
 30
0.0
 11
9.8745424003
 21
6.6342997022
 31
0.0
  0
LINE
  5
199
330
1F
100
AcDbEntity
  8
0
  6
Continuous
 62
     7
370
    25
100
AcDbLine
 10
9.8770425101
 20
6.7792999684
 30
0.0
 11
9.8745424003
 21
6.7792999684
 31
0.0
  0
LINE
  5
19A
330
1F
100
AcDbEntity
  8
0
  6
Continuous
 62
     7
370
    25
100
AcDbLine
 10
2.0195424113
 20
6.6342997022
 30
0.0
 11
2.0195424113
 21
6.7792999684
 31
0.0
  0
LINE
  5
19B
330
1F
100
AcDbEntity
  8
0
  6
Continuous
 62
     7
370
    25
100
AcDbLine
 10
2.0220424037
 20
6.6342997022
 30
0.0
 11
2.0195424113
 21
6.6342997022
 31
0.0
  0
LINE
  5
19C
330
1F
100
AcDbEntity
  8
0
  6
Continuous
 62
     7
370
    25
100
AcDbLine
 10
2.0195424113
 20
6.7792999684
 30
0.0
 11
2.0220424037
 21
6.7792999684
 31
0.0
  0
LINE
  5
19D
330
1F
100
AcDbEntity
  8
0
  6
Continuous
 62
     7
370
    25
100
AcDbLine
 10
9.8745424003
 20
8.1867998262
 30
0.0
 11
2.1645423255
 21
8.1867998262
 31
0.0
  0
LINE
  5
19E
330
1F
100
AcDbEntity
  8
0
  6
Continuous
 62
     7
370
    25
100
AcDbLine
 10
9.8745424003
 20
8.3318000925
 30
0.0
 11
9.8745424003
 21
8.1867998262
 31
0.0
  0
LINE
  5
19F
330
1F
100
AcDbEntity
  8
0
  6
Continuous
 62
     7
370
    25
100
AcDbLine
 10
2.1645423255
 20
8.3318000925
 30
0.0
 11
2.1645423255
 21
8.1867998262
 31
0.0
  0
LINE
  5
1A0
330
1F
100
AcDbEntity
  8
0
  6
Continuous
 62
     7
370
    25
100
AcDbLine
 10
9.8745424003
 20
8.3318000925
 30
0.0
 11
2.1645423255
 21
8.3318000925
 31
0.0
  0
LINE
  5
1A1
330
1F
100
AcDbEntity
  8
0
  6
Continuous
 62
     7
370
    25
100
AcDbLine
 10
9.8770425101
 20
8.1867998262
 30
0.0
 11
9.8745424003
 21
8.1867998262
 31
0.0
  0
LINE
  5
1A2
330
1F
100
AcDbEntity
  8
0
  6
Continuous
 62
     7
370
    25
100
AcDbLine
 10
9.8770425101
 20
8.3318000925
 30
0.0
 11
9.8745424003
 21
8.3318000925
 31
0.0
  0
LINE
  5
1A3
330
1F
100
AcDbEntity
  8
0
  6
Continuous
 62
     7
370
    25
100
AcDbLine
 10
2.0195424113
 20
8.1867998262
 30
0.0
 11
2.0195424113
 21
8.3318000925
 31
0.0
  0
LINE
  5
1A4
330
1F
100
AcDbEntity
  8
0
  6
Continuous
 62
     7
370
    25
100
AcDbLine
 10
2.0220424037
 20
8.1867998262
 30
0.0
 11
2.0195424113
 21
8.1867998262
 31
0.0
  0
LINE
  5
1A5
330
1F
100
AcDbEntity
  8
0
  6
Continuous
 62
     7
370
    25
100
AcDbLine
 10
2.0195424113
 20
8.3318000925
 30
0.0
 11
2.0220424037
 21
8.3318000925
 31
0.0
  0
LINE
  5
1A6
330
1F
100
AcDbEntity
  8
0
  6
Continuous
 62
     7
370
    25
100
AcDbLine
 10
2.1645423255
 20
8.3318000925
 30
0.0
 11
2.0220424037
 21
8.3318000925
 31
0.0
  0
LINE
  5
1A7
330
1F
100
AcDbEntity
  8
0
  6
Continuous
 62
     7
370
    25
100
AcDbLine
 10
2.1645423255
 20
6.6342997022
 30
0.0
 11
2.1645423255
 21
8.3318000925
 31
0.0
  0
LINE
  5
1A8
330
1F
100
AcDbEntity
  8
0
  6
Continuous
 62
     7
370
    25
100
AcDbLine
 10
2.1645423255
 20
6.6342997022
 30
0.0
 11
2.0220424037
 21
6.6342997022
 31
0.0
  0
LINE
  5
1A9
330
1F
100
AcDbEntity
  8
0
  6
Continuous
 62
     7
370
    25
100
AcDbLine
 10
2.0220424037
 20
6.6342997022
 30
0.0
 11
2.0220424037
 21
8.3318000925
 31
0.0
  0
LINE
  5
1AA
330
1F
100
AcDbEntity
  8
0
  6
Continuous
 62
     7
370
    25
100
AcDbLine
 10
9.8770425101
 20
6.6342997022
 30
0.0
 11
10.0195421972
 21
6.6342997022
 31
0.0
  0
LINE
  5
1AB
330
1F
100
AcDbEntity
  8
0
  6
Continuous
 62
     7
370
    25
100
AcDbLine
 10
9.8770425101
 20
8.3318000925
 30
0.0
 11
9.8770425101
 21
6.6342997022
 31
0.0
  0
LINE
  5
1AC
330
1F
100
AcDbEntity
  8
0
  6
Continuous
 62
     7
370
    25
100
AcDbLine
 10
9.8770425101
 20
8.3318000925
 30
0.0
 11
10.0195421972
 21
8.3318000925
 31
0.0
  0
LINE
  5
1AD
330
1F
100
AcDbEntity
  8
0
  6
Continuous
 62
     7
370
    25
100
AcDbLine
 10
10.0195421972
 20
8.3318000925
 30
0.0
 11
10.0195421972
 21
6.6342997022
 31
0.0
  0
ARC
  5
1AE
330
1F
100
AcDbEntity
  8
0
  6
Continuous
 62
     7
370
    25
100
AcDbCircle
 10
3.5043647045
 20
8.2057275425
 30
0.0
 40
0.0250000000000001
100
AcDbArc
 50
229.2097977257
 51
310.7902022743
  0
LINE
  5
1AF
330
1F
100
AcDbEntity
  8
0
  6
Continuous
 62
     7
370
    25
100
AcDbLine
 10
3.5220423709
 20
8.3330499127
 30
0.0
 11
3.5220423709
 21
8.3318000925
 31
0.0
  0
LINE
  5
1B0
330
1F
100
AcDbEntity
  8
0
  6
Continuous
 62
     7
370
    25
100
AcDbLine
 10
4.3220423833
 20
8.3330499127
 30
0.0
 11
3.5220423709
 21
8.3330499127
 31
0.0
  0
LINE
  5
1B1
330
1F
100
AcDbEntity
  8
0
  6
Continuous
 62
     7
370
    25
100
AcDbLine
 10
4.3220423833
 20
8.3318000925
 30
0.0
 11
4.3220423833
 21
8.3330499127
 31
0.0
  0
ARC
  5
1B2
330
1F
100
AcDbEntity
  8
0
  6
Continuous
 62
     7
370
    25
100
AcDbCircle
 10
4.3397200436
 20
8.2057275425
 30
0.0
 40
0.0249999999999999
100
AcDbArc
 50
229.2097977257
 51
310.7902022743
  0
ARC
  5
1B3
330
1F
100
AcDbEntity
  8
0
  6
Continuous
 62
     7
370
    25
100
AcDbCircle
 10
4.9043647045
 20
8.2057275425
 30
0.0
 40
0.0250000000000001
100
AcDbArc
 50
229.2097977257
 51
310.7902022743
  0
LINE
  5
1B4
330
1F
100
AcDbEntity
  8
0
  6
Continuous
 62
     7
370
    25
100
AcDbLine
 10
4.922042332
 20
8.3330499127
 30
0.0
 11
4.922042332
 21
8.3318000925
 31
0.0
  0
LINE
  5
1B5
330
1F
100
AcDbEntity
  8
0
  6
Continuous
 62
     7
370
    25
100
AcDbLine
 10
5.722042381
 20
8.3330499127
 30
0.0
 11
4.922042332
 21
8.3330499127
 31
0.0
  0
LINE
  5
1B6
330
1F
100
AcDbEntity
  8
0
  6
Continuous
 62
     7
370
    25
100
AcDbLine
 10
5.722042381
 20
8.3318000925
 30
0.0
 11
5.722042381
 21
8.3330499127
 31
0.0
  0
ARC
  5
1B7
330
1F
100
AcDbEntity
  8
0
  6
Continuous
 62
     7
370
    25
100
AcDbCircle
 10
5.7397200436
 20
8.2057275425
 30
0.0
 40
0.0249999999999993
100
AcDbArc
 50
229.2097977257
 51
310.7902022743
  0
ARC
  5
1B8
330
1F
100
AcDbEntity
  8
0
  6
Continuous
 62
     7
370
    25
100
AcDbCircle
 10
6.3043647045
 20
8.2057275425
 30
0.0
 40
0.0250000000000001
100
AcDbArc
 50
229.2097977257
 51
310.7902022743
  0
LINE
  5
1B9
330
1F
100
AcDbEntity
  8
0
  6
Continuous
 62
     7
370
    25
100
AcDbLine
 10
6.3220424471
 20
8.3330499127
 30
0.0
 11
6.3220424471
 21
8.3318000925
 31
0.0
  0
LINE
  5
1BA
330
1F
100
AcDbEntity
  8
0
  6
Continuous
 62
     7
370
    25
100
AcDbLine
 10
7.1220423787
 20
8.3330499127
 30
0.0
 11
6.3220424471
 21
8.3330499127
 31
0.0
  0
LINE
  5
1BB
330
1F
100
AcDbEntity
  8
0
  6
Continuous
 62
     7
370
    25
100
AcDbLine
 10
7.1220423787
 20
8.3318000925
 30
0.0
 11
7.1220423787
 21
8.3330499127
 31
0.0
  0
ARC
  5
1BC
330
1F
100
AcDbEntity
  8
0
  6
Continuous
 62
     7
370
    25
100
AcDbCircle
 10
7.1397200436
 20
8.2057275425
 30
0.0
 40
0.0249999999999993
100
AcDbArc
 50
229.2097977257
 51
310.7902022743
  0
ARC
  5
1BD
330
1F
100
AcDbEntity
  8
0
  6
Continuous
 62
     7
370
    25
100
AcDbCircle
 10
7.7043647045
 20
8.2057275425
 30
0.0
 40
0.0250000000000001
100
AcDbArc
 50
229.2097977257
 51
310.7902022743
  0
LINE
  5
1BE
330
1F
100
AcDbEntity
  8
0
  6
Continuous
 62
     7
370
    25
100
AcDbLine
 10
7.7220422102
 20
8.3330499127
 30
0.0
 11
7.7220422102
 21
8.3318000925
 31
0.0
  0
LINE
  5
1BF
330
1F
100
AcDbEntity
  8
0
  6
Continuous
 62
     7
370
    25
100
AcDbLine
 10
8.5220421418
 20
8.3330499127
 30
0.0
 11
7.7220422102
 21
8.3330499127
 31
0.0
  0
LINE
  5
1C0
330
1F
100
AcDbEntity
  8
0
  6
Continuous
 62
     7
370
    25
100
AcDbLine
 10
8.5220421418
 20
8.3318000925
 30
0.0
 11
8.5220421418
 21
8.3330499127
 31
0.0
  0
ARC
  5
1C1
330
1F
100
AcDbEntity
  8
0
  6
Continuous
 62
     7
370
    25
100
AcDbCircle
 10
8.5397200436
 20
8.2057275425
 30
0.0
 40
0.0249999999999993
100
AcDbArc
 50
229.2097977257
 51
310.7902022743
  0
ARC
  5
1C2
330
1F
100
AcDbEntity
  8
0
  6
Continuous
 62
     7
370
    25
100
AcDbCircle
 10
9.1043647045
 20
8.2057275425
 30
0.0
 40
0.0250000000000007
100
AcDbArc
 50
229.2097977257
 51
310.7902022743
  0
LINE
  5
1C3
330
1F
100
AcDbEntity
  8
0
  6
Continuous
 62
     7
370
    25
100
AcDbLine
 10
9.8770425101
 20
8.3330499127
 30
0.0
 11
9.1220422079
 21
8.3330499127
 31
0.0
  0
LINE
  5
1C4
330
1F
100
AcDbEntity
  8
0
  6
Continuous
 62
     7
370
    25
100
AcDbLine
 10
9.8770425101
 20
8.3318000925
 30
0.0
 11
9.8770425101
 21
8.3330499127
 31
0.0
  0
ARC
  5
1C5
330
1F
100
AcDbEntity
  8
0
  6
Continuous
 62
     7
370
    25
100
AcDbCircle
 10
9.8947200436
 20
8.0507275425
 30
0.0
 40
0.0250000000000012
100
AcDbArc
 50
135.0
 51
225.0
  0
ARC
  5
1C6
330
1F
100
AcDbEntity
  8
0
  6
Continuous
 62
     7
370
    25
100
AcDbCircle
 10
9.997042374
 20
8.008049873
 30
0.0
 40
0.0250000000000023
100
AcDbArc
 50
0.0
 51
25.8419327632
  0
LINE
  5
1C7
330
1F
100
AcDbEntity
  8
0
  6
Continuous
 62
     7
370
    25
100
AcDbLine
 10
10.022042307
 20
7.6580498384
 30
0.0
 11
10.022042307
 21
8.0080497205
 31
0.0
  0
ARC
  5
1C8
330
1F
100
AcDbEntity
  8
0
  6
Continuous
 62
     7
370
    25
100
AcDbCircle
 10
9.997042374
 20
7.658049873
 30
0.0
 40
0.0250000000000021
100
AcDbArc
 50
334.1580672368
 51
360.0
  0
ARC
  5
1C9
330
1F
100
AcDbEntity
  8
0
  6
Continuous
 62
     7
370
    25
100
AcDbCircle
 10
9.8947200436
 20
7.6153722035
 30
0.0
 40
0.0250000000000006
100
AcDbArc
 50
135.0
 51
225.0
  0
ARC
  5
1CA
330
1F
100
AcDbEntity
  8
0
  6
Continuous
 62
     7
370
    25
100
AcDbCircle
 10
9.8947200436
 20
7.3507275425
 30
0.0
 40
0.0249999999999993
100
AcDbArc
 50
135.0
 51
225.0
  0
ARC
  5
1CB
330
1F
100
AcDbEntity
  8
0
  6
Continuous
 62
     7
370
    25
100
AcDbCircle
 10
9.997042374
 20
7.308049873
 30
0.0
 40
0.0250000000000021
100
AcDbArc
 50
0.0
 51
25.8419327632
  0
LINE
  5
1CC
330
1F
100
AcDbEntity
  8
0
  6
Continuous
 62
     7
370
    25
100
AcDbLine
 10
10.022042307
 20
6.9580500742
 30
0.0
 11
10.022042307
 21
7.3080499563
 31
0.0
  0
ARC
  5
1CD
330
1F
100
AcDbEntity
  8
0
  6
Continuous
 62
     7
370
    25
100
AcDbCircle
 10
9.997042374
 20
6.958049873
 30
0.0
 40
0.0250000000000021
100
AcDbArc
 50
334.1580672369
 51
0.0
  0
ARC
  5
1CE
330
1F
100
AcDbEntity
  8
0
  6
Continuous
 62
     7
370
    25
100
AcDbCircle
 10
9.8947200436
 20
6.9153722035
 30
0.0
 40
0.0250000000000018
100
AcDbArc
 50
135.0
 51
225.0
  0
LINE
  5
1CF
330
1F
100
AcDbEntity
  8
0
  6
Continuous
 62
     7
370
    25
100
AcDbLine
 10
9.8770425101
 20
6.6330498819
 30
0.0
 11
9.8770425101
 21
6.6342997022
 31
0.0
  0
LINE
  5
1D0
330
1F
100
AcDbEntity
  8
0
  6
Continuous
 62
     7
370
    25
100
AcDbLine
 10
9.1220422079
 20
6.6330498819
 30
0.0
 11
9.8770425101
 21
6.6330498819
 31
0.0
  0
LINE
  5
1D1
330
1F
100
AcDbEntity
  8
0
  6
Continuous
 62
     7
370
    25
100
AcDbLine
 10
9.1220422079
 20
6.6330498819
 30
0.0
 11
9.1220422079
 21
6.6342997022
 31
0.0
  0
ARC
  5
1D2
330
1F
100
AcDbEntity
  8
0
  6
Continuous
 62
     7
370
    25
100
AcDbCircle
 10
9.1043647045
 20
6.7603722035
 30
0.0
 40
0.0250000000000014
100
AcDbArc
 50
49.2097977259
 51
130.7902022741
  0
ARC
  5
1D3
330
1F
100
AcDbEntity
  8
0
  6
Continuous
 62
     7
370
    25
100
AcDbCircle
 10
8.5397200436
 20
6.7603722035
 30
0.0
 40
0.0250000000000014
100
AcDbArc
 50
49.2097977259
 51
130.7902022741
  0
LINE
  5
1D4
330
1F
100
AcDbEntity
  8
0
  6
Continuous
 62
     7
370
    25
100
AcDbLine
 10
8.5220421418
 20
6.6342997022
 30
0.0
 11
8.5220421418
 21
6.6330498819
 31
0.0
  0
LINE
  5
1D5
330
1F
100
AcDbEntity
  8
0
  6
Continuous
 62
     7
370
    25
100
AcDbLine
 10
7.7220422102
 20
6.6330498819
 30
0.0
 11
8.5220421418
 21
6.6330498819
 31
0.0
  0
LINE
  5
1D6
330
1F
100
AcDbEntity
  8
0
  6
Continuous
 62
     7
370
    25
100
AcDbLine
 10
7.7220422102
 20
6.6330498819
 30
0.0
 11
7.7220422102
 21
6.6342997022
 31
0.0
  0
ARC
  5
1D7
330
1F
100
AcDbEntity
  8
0
  6
Continuous
 62
     7
370
    25
100
AcDbCircle
 10
7.7043647045
 20
6.7603722035
 30
0.0
 40
0.0250000000000009
100
AcDbArc
 50
49.2097977259
 51
130.7902022741
  0
ARC
  5
1D8
330
1F
100
AcDbEntity
  8
0
  6
Continuous
 62
     7
370
    25
100
AcDbCircle
 10
7.1397200436
 20
6.7603722035
 30
0.0
 40
0.0250000000000003
100
AcDbArc
 50
49.2097977259
 51
130.7902022741
  0
LINE
  5
1D9
330
1F
100
AcDbEntity
  8
0
  6
Continuous
 62
     7
370
    25
100
AcDbLine
 10
7.1220423787
 20
6.6342997022
 30
0.0
 11
7.1220423787
 21
6.6330498819
 31
0.0
  0
LINE
  5
1DA
330
1F
100
AcDbEntity
  8
0
  6
Continuous
 62
     7
370
    25
100
AcDbLine
 10
6.3220424471
 20
6.6330498819
 30
0.0
 11
7.1220423787
 21
6.6330498819
 31
0.0
  0
LINE
  5
1DB
330
1F
100
AcDbEntity
  8
0
  6
Continuous
 62
     7
370
    25
100
AcDbLine
 10
6.3220424471
 20
6.6330498819
 30
0.0
 11
6.3220424471
 21
6.6342997022
 31
0.0
  0
ARC
  5
1DC
330
1F
100
AcDbEntity
  8
0
  6
Continuous
 62
     7
370
    25
100
AcDbCircle
 10
6.3043647045
 20
6.7603722035
 30
0.0
 40
0.0250000000000003
100
AcDbArc
 50
49.2097977259
 51
130.7902022741
  0
ARC
  5
1DD
330
1F
100
AcDbEntity
  8
0
  6
Continuous
 62
     7
370
    25
100
AcDbCircle
 10
5.7397200436
 20
6.7603722035
 30
0.0
 40
0.0250000000000003
100
AcDbArc
 50
49.2097977259
 51
130.7902022741
  0
LINE
  5
1DE
330
1F
100
AcDbEntity
  8
0
  6
Continuous
 62
     7
370
    25
100
AcDbLine
 10
5.722042381
 20
6.6342997022
 30
0.0
 11
5.722042381
 21
6.6330498819
 31
0.0
  0
LINE
  5
1DF
330
1F
100
AcDbEntity
  8
0
  6
Continuous
 62
     7
370
    25
100
AcDbLine
 10
4.922042332
 20
6.6330498819
 30
0.0
 11
5.722042381
 21
6.6330498819
 31
0.0
  0
LINE
  5
1E0
330
1F
100
AcDbEntity
  8
0
  6
Continuous
 62
     7
370
    25
100
AcDbLine
 10
4.922042332
 20
6.6330498819
 30
0.0
 11
4.922042332
 21
6.6342997022
 31
0.0
  0
ARC
  5
1E1
330
1F
100
AcDbEntity
  8
0
  6
Continuous
 62
     7
370
    25
100
AcDbCircle
 10
4.9043647045
 20
6.7603722035
 30
0.0
 40
0.0250000000000009
100
AcDbArc
 50
49.2097977259
 51
130.7902022741
  0
ARC
  5
1E2
330
1F
100
AcDbEntity
  8
0
  6
Continuous
 62
     7
370
    25
100
AcDbCircle
 10
4.3397200436
 20
6.7603722035
 30
0.0
 40
0.0250000000000003
100
AcDbArc
 50
49.2097977259
 51
130.7902022741
  0
LINE
  5
1E3
330
1F
100
AcDbEntity
  8
0
  6
Continuous
 62
     7
370
    25
100
AcDbLine
 10
4.3220423833
 20
6.6342997022
 30
0.0
 11
4.3220423833
 21
6.6330498819
 31
0.0
  0
LINE
  5
1E4
330
1F
100
AcDbEntity
  8
0
  6
Continuous
 62
     7
370
    25
100
AcDbLine
 10
3.5220423709
 20
6.6330498819
 30
0.0
 11
4.3220423833
 21
6.6330498819
 31
0.0
  0
LINE
  5
1E5
330
1F
100
AcDbEntity
  8
0
  6
Continuous
 62
     7
370
    25
100
AcDbLine
 10
3.5220423709
 20
6.6330498819
 30
0.0
 11
3.5220423709
 21
6.6342997022
 31
0.0
  0
ARC
  5
1E6
330
1F
100
AcDbEntity
  8
0
  6
Continuous
 62
     7
370
    25
100
AcDbCircle
 10
3.5043647045
 20
6.7603722035
 30
0.0
 40
0.0250000000000003
100
AcDbArc
 50
49.2097977259
 51
130.7902022741
  0
ARC
  5
1E7
330
1F
100
AcDbEntity
  8
0
  6
Continuous
 62
     7
370
    25
100
AcDbCircle
 10
2.9397200436
 20
6.7603722035
 30
0.0
 40
0.0250000000000006
100
AcDbArc
 50
49.2097977259
 51
130.7902022741
  0
LINE
  5
1E8
330
1F
100
AcDbEntity
  8
0
  6
Continuous
 62
     7
370
    25
100
AcDbLine
 10
2.9220423855
 20
6.6342997022
 30
0.0
 11
2.9220423855
 21
6.6330498819
 31
0.0
  0
LINE
  5
1E9
330
1F
100
AcDbEntity
  8
0
  6
Continuous
 62
     7
370
    25
100
AcDbLine
 10
2.167042318
 20
6.6330498819
 30
0.0
 11
2.9220423855
 21
6.6330498819
 31
0.0
  0
LINE
  5
1EA
330
1F
100
AcDbEntity
  8
0
  6
Continuous
 62
     7
370
    25
100
AcDbLine
 10
2.167042318
 20
6.6330498819
 30
0.0
 11
2.167042318
 21
6.6342997022
 31
0.0
  0
LINE
  5
1EB
330
1F
100
AcDbEntity
  8
0
  6
Continuous
 62
     7
370
    25
100
AcDbLine
 10
2.167042318
 20
6.7792999684
 30
0.0
 11
2.167042318
 21
6.8976945047
 31
0.0
  0
ARC
  5
1EC
330
1F
100
AcDbEntity
  8
0
  6
Continuous
 62
     7
370
    25
100
AcDbCircle
 10
2.1493647045
 20
6.9153722035
 30
0.0
 40
0.025000000000001
100
AcDbArc
 50
315.0
 51
52.6194028698
  0
ARC
  5
1ED
330
1F
100
AcDbEntity
  8
0
  6
Continuous
 62
     7
370
    25
100
AcDbCircle
 10
2.1493647045
 20
7.3507275425
 30
0.0
 40
0.0249999999999999
100
AcDbArc
 50
307.3805971302
 51
45.0
  0
LINE
  5
1EE
330
1F
100
AcDbEntity
  8
0
  6
Continuous
 62
     7
370
    25
100
AcDbLine
 10
2.167042318
 20
7.3684050564
 30
0.0
 11
2.167042318
 21
7.5976947383
 31
0.0
  0
ARC
  5
1EF
330
1F
100
AcDbEntity
  8
0
  6
Continuous
 62
     7
370
    25
100
AcDbCircle
 10
2.1493647045
 20
7.6153722035
 30
0.0
 40
0.0249999999999998
100
AcDbArc
 50
315.0
 51
52.6194028698
  0
ARC
  5
1F0
330
1F
100
AcDbEntity
  8
0
  6
Continuous
 62
     7
370
    25
100
AcDbCircle
 10
2.1493647045
 20
8.0507275425
 30
0.0
 40
0.0250000000000006
100
AcDbArc
 50
307.3805971302
 51
45.0
  0
LINE
  5
1F1
330
1F
100
AcDbEntity
  8
0
  6
Continuous
 62
     7
370
    25
100
AcDbLine
 10
2.167042318
 20
8.0684052899
 30
0.0
 11
2.167042318
 21
8.1867998262
 31
0.0
  0
LINE
  5
1F2
330
1F
100
AcDbEntity
  8
0
  6
Continuous
 62
     7
370
    25
100
AcDbLine
 10
2.167042318
 20
8.3318000925
 30
0.0
 11
2.167042318
 21
8.3330499127
 31
0.0
  0
LINE
  5
1F3
330
1F
100
AcDbEntity
  8
0
  6
Continuous
 62
     7
370
    25
100
AcDbLine
 10
2.9220423855
 20
8.3330499127
 30
0.0
 11
2.167042318
 21
8.3330499127
 31
0.0
  0
LINE
  5
1F4
330
1F
100
AcDbEntity
  8
0
  6
Continuous
 62
     7
370
    25
100
AcDbLine
 10
2.9220423855
 20
8.3318000925
 30
0.0
 11
2.9220423855
 21
8.3330499127
 31
0.0
  0
ARC
  5
1F5
330
1F
100
AcDbEntity
  8
0
  6
Continuous
 62
     7
370
    25
100
AcDbCircle
 10
2.9397200436
 20
8.2057275425
 30
0.0
 40
0.0249999999999999
100
AcDbArc
 50
229.2097977257
 51
310.7902022743
  0
LINE
  5
1F6
330
1F
100
AcDbEntity
  8
0
  6
Continuous
 62
     7
370
    25
100
AcDbLine
 10
9.0220425098
 20
7.6830499976
 30
0.0
 11
3.022042377
 21
7.6830499976
 31
0.0
  0
ARC
  5
1F7
330
1F
100
AcDbEntity
  8
0
  6
Continuous
 62
     7
370
    25
100
AcDbCircle
 10
3.022042374
 20
7.483049873
 30
0.0
 40
0.2000000000000002
100
AcDbArc
 50
90.0
 51
270.0
  0
LINE
  5
1F8
330
1F
100
AcDbEntity
  8
0
  6
Continuous
 62
     7
370
    25
100
AcDbLine
 10
3.022042377
 20
7.2830497971
 30
0.0
 11
9.0220425098
 21
7.2830497971
 31
0.0
  0
ARC
  5
1F9
330
1F
100
AcDbEntity
  8
0
  6
Continuous
 62
     7
370
    25
100
AcDbCircle
 10
9.022042374
 20
7.483049873
 30
0.0
 40
0.2000000000000011
100
AcDbArc
 50
270.0
 51
90.0
  0
LINE
  5
1FA
330
1F
100
AcDbEntity
  8
0
  6
Continuous
 62
     7
370
    25
100
AcDbLine
 10
9.1220422079
 20
8.3330499127
 30
0.0
 11
9.1220422079
 21
8.3318000925
 31
0.0
  0
DIMENSION
  5
1FB
330
1F
100
AcDbEntity
  8
0
  6
Continuous
 62
     7
370
    18
100
AcDbDimension
  2
_D_3
 10
10.019542374
 20
8.7267506604
 30
0.0
 11
6.020792374
 21
8.7267506604
 31
0.0
 70
   160
  1
<>
 71
     2
 42
-1.0
  3
SLDDIMSTYLE1
100
AcDbAlignedDimension
 13
2.022042374
 23
8.331799873
 33
0.0
 14
10.019542374
 24
8.331799873
 34
0.0
 50
0.0
100
AcDbRotatedDimension
  0
DIMENSION
  5
206
330
1F
100
AcDbEntity
  8
0
  6
Continuous
 62
     7
370
    18
100
AcDbDimension
  2
_D_4
 10
9.022042374
 20
6.2393490856
 30
0.0
 11
6.020792374
 21
6.2393490856
 31
0.0
 70
   160
  1
<>
 71
     2
 42
-1.0
  3
SLDDIMSTYLE1
100
AcDbAlignedDimension
 13
3.022042374
 23
7.483049873
 33
0.0
 14
9.022042374
 24
7.483049873
 34
0.0
100
AcDbRotatedDimension
  0
LINE
  5
210
330
1F
100
AcDbEntity
  8
0
  6
Continuous
 62
     7
370
    25
100
AcDbLine
 10
14.9749897669
 20
7.0008348602
 30
0.0
 11
15.0262550085
 21
7.0304296542
 31
0.0
  0
LINE
  5
211
330
1F
100
AcDbEntity
  8
0
  6
Continuous
 62
     7
370
    25
100
AcDbLine
 10
12.1587502108
 20
8.7920379883
 30
0.0
 11
12.1517413275
 21
8.7879918461
 31
0.0
  0
LINE
  5
212
330
1F
100
AcDbEntity
  8
0
  6
Continuous
 62
     7
370
    25
100
AcDbLine
 10
15.5254238725
 20
7.3185937057
 30
0.0
 11
15.5751466474
 21
7.3472980526
 31
0.0
  0
LINE
  5
213
330
1F
100
AcDbEntity
  8
0
  6
Continuous
 62
     7
370
    25
100
AcDbLine
 10
12.1707506098
 20
8.2787111956
 30
0.0
 11
12.2211319679
 21
8.2496266566
 31
0.0
  0
LINE
  5
214
330
1F
100
AcDbEntity
  8
0
  6
Continuous
 62
     7
370
    25
100
AcDbLine
 10
14.9479124929
 20
6.675489766
 30
0.0
 11
14.9982938511
 21
6.646405227
 31
0.0
  0
LINE
  5
215
330
1F
100
AcDbEntity
  8
0
  6
Continuous
 62
     7
370
    25
100
AcDbLine
 10
15.2203307552
 20
6.9567768664
 30
0.0
 11
15.2203307552
 21
7.0159760753
 31
0.0
  0
LINE
  5
216
330
1F
100
AcDbEntity
  8
0
  6
Continuous
 62
     7
370
    25
100
AcDbLine
 10
15.4678181286
 20
7.099648286
 30
0.0
 11
15.4678181286
 21
7.1588474949
 31
0.0
  0
ARC
  5
217
330
1F
100
AcDbEntity
  8
0
  6
Continuous
 62
     7
370
    25
100
AcDbCircle
 10
14.9583889083
 20
7.1485793017
 30
0.0
 40
0.0192100600946531
100
AcDbArc
 50
2.6054784857
 51
57.39452166
  0
LINE
  5
218
330
1F
100
AcDbEntity
  8
0
  6
Continuous
 62
     7
370
    25
100
AcDbLine
 10
14.9775791096
 20
7.0065579203
 30
0.0
 11
14.9775791096
 21
7.1494525624
 31
0.0
  0
ARC
  5
219
330
1F
100
AcDbEntity
  8
0
  6
Continuous
 62
     7
370
    25
100
AcDbCircle
 10
14.97219068
 20
7.0056838303
 30
0.0
 40
0.0054588649678563
100
AcDbArc
 50
230.7967147643
 51
9.2140369905
  0
LINE
  5
21A
330
1F
100
AcDbEntity
  8
0
  6
Continuous
 62
     7
370
    25
100
AcDbLine
 10
14.9388138679
 20
7.0187298578
 30
0.0
 11
14.9687402748
 21
7.0014537108
 31
0.0
  0
LWPOLYLINE
  5
21B
330
1F
100
AcDbEntity
  8
0
  6
Continuous
 62
     7
370
    25
100
AcDbPolyline
 90
       10
 70
   128
 43
0.0
 10
14.9388138679
 20
7.0187298578
 10
14.9362993209
 20
7.0222146718
 10
14.9333342231
 20
7.0248438404
 10
14.9302762092
 20
7.0263002472
 10
14.9274941206
 20
7.0264082279
 10
14.9253235184
 20
7.0251547586
 10
14.9240262092
 20
7.0226910261
 10
14.9237586676
 20
7.0193141929
 10
14.9245531632
 20
7.0154315549
 10
14.9263138679
 20
7.0115114155
  0
LINE
  5
21C
330
1F
100
AcDbEntity
  8
0
  6
Continuous
 62
     7
370
    25
100
AcDbLine
 10
14.9263138679
 20
6.9034648324
 30
0.0
 11
14.9263138679
 21
7.0115114155
 31
0.0
  0
LINE
  5
21D
330
1F
100
AcDbEntity
  8
0
  6
Continuous
 62
     7
370
    25
100
AcDbLine
 10
14.6674616407
 20
7.0528970424
 30
0.0
 11
14.9263138679
 21
6.9034648324
 31
0.0
  0
LWPOLYLINE
  5
21E
330
1F
100
AcDbEntity
  8
0
  6
Continuous
 62
     7
370
    25
100
AcDbPolyline
 90
       10
 70
   128
 43
0.0
 10
14.6674616407
 20
7.0528970424
 10
14.6649470936
 20
7.0563818564
 10
14.6619819959
 20
7.0590110251
 10
14.6589239819
 20
7.0604674319
 10
14.6561418933
 20
7.0605754126
 10
14.6539712911
 20
7.0593219433
 10
14.6526739819
 20
7.0568582107
 10
14.6524064403
 20
7.0534813775
 10
14.6532009359
 20
7.0495987395
 10
14.6549616407
 20
7.0456786002
  0
LINE
  5
21F
330
1F
100
AcDbEntity
  8
0
  6
Continuous
 62
     7
370
    25
100
AcDbLine
 10
14.6549616407
 20
7.00091393
 30
0.0
 11
14.6549616407
 21
7.0456786002
 31
0.0
  0
LINE
  5
220
330
1F
100
AcDbEntity
  8
0
  6
Continuous
 62
     7
370
    25
100
AcDbLine
 10
14.4516684411
 20
7.1182725961
 30
0.0
 11
14.6549616407
 21
7.00091393
 31
0.0
  0
LINE
  5
221
330
1F
100
AcDbEntity
  8
0
  6
Continuous
 62
     7
370
    25
100
AcDbLine
 10
14.4516684411
 20
7.1630372663
 30
0.0
 11
14.4516684411
 21
7.1182725961
 31
0.0
  0
LWPOLYLINE
  5
222
330
1F
100
AcDbEntity
  8
0
  6
Continuous
 62
     7
370
    25
100
AcDbPolyline
 90
       10
 70
   128
 43
0.0
 10
14.4516684411
 20
7.1630372663
 10
14.4534291458
 20
7.1649245391
 10
14.4542236414
 20
7.1678898721
 10
14.4539560998
 20
7.1715756022
 10
14.4526587906
 20
7.1755371761
 10
14.4504881884
 20
7.1792967694
 10
14.4477060998
 20
7.1824009197
 10
14.4446480859
 20
7.1844752207
 10
14.4416829881
 20
7.1852694811
 10
14.4391684411
 20
7.1846879013
  0
LINE
  5
223
330
1F
100
AcDbEntity
  8
0
  6
Continuous
 62
     7
370
    25
100
AcDbLine
 10
14.1724868938
 20
7.3386398816
 30
0.0
 11
14.4391684411
 21
7.1846879013
 31
0.0
  0
LWPOLYLINE
  5
224
330
1F
100
AcDbEntity
  8
0
  6
Continuous
 62
     7
370
    25
100
AcDbPolyline
 90
       10
 70
   128
 43
0.0
 10
14.1724868938
 20
7.3386398816
 10
14.1699723468
 20
7.3421246956
 10
14.167007249
 20
7.3447538642
 10
14.1639492351
 20
7.346210271
 10
14.1611671465
 20
7.3463182518
 10
14.1589965443
 20
7.3450647824
 10
14.1576992351
 20
7.3426010499
 10
14.1574316935
 20
7.3392242167
 10
14.158226189
 20
7.3353415787
 10
14.1599868938
 20
7.3314214394
  0
LINE
  5
225
330
1F
100
AcDbEntity
  8
0
  6
Continuous
 62
     7
370
    25
100
AcDbLine
 10
14.1599868938
 20
7.2866567691
 30
0.0
 11
14.1599868938
 21
7.3314214394
 31
0.0
  0
LINE
  5
226
330
1F
100
AcDbEntity
  8
0
  6
Continuous
 62
     7
370
    25
100
AcDbLine
 10
13.9566936942
 20
7.4040154352
 30
0.0
 11
14.1599868938
 21
7.2866567691
 31
0.0
  0
LINE
  5
227
330
1F
100
AcDbEntity
  8
0
  6
Continuous
 62
     7
370
    25
100
AcDbLine
 10
13.9566936942
 20
7.4487801054
 30
0.0
 11
13.9566936942
 21
7.4040154352
 31
0.0
  0
LWPOLYLINE
  5
228
330
1F
100
AcDbEntity
  8
0
  6
Continuous
 62
     7
370
    25
100
AcDbPolyline
 90
       10
 70
   128
 43
0.0
 10
13.9566936942
 20
7.4487801054
 10
13.958454399
 20
7.4506673783
 10
13.9592488946
 20
7.4536327112
 10
13.958981353
 20
7.4573184414
 10
13.9576840438
 20
7.4612800152
 10
13.9555134416
 20
7.4650396085
 10
13.952731353
 20
7.4681437589
 10
13.949673339
 20
7.4702180599
 10
13.9467082412
 20
7.4710123203
 10
13.9441936942
 20
7.4704307405
  0
LINE
  5
229
330
1F
100
AcDbEntity
  8
0
  6
Continuous
 62
     7
370
    25
100
AcDbLine
 10
13.677512147
 20
7.6243827207
 30
0.0
 11
13.9441936942
 21
7.4704307405
 31
0.0
  0
LWPOLYLINE
  5
22A
330
1F
100
AcDbEntity
  8
0
  6
Continuous
 62
     7
370
    25
100
AcDbPolyline
 90
       10
 70
   128
 43
0.0
 10
13.677512147
 20
7.6243827207
 10
13.6749976
 20
7.6278675347
 10
13.6720325022
 20
7.6304967034
 10
13.6689744882
 20
7.6319531101
 10
13.6661923996
 20
7.6320610909
 10
13.6640217974
 20
7.6308076216
 10
13.6627244882
 20
7.628343889
 10
13.6624569467
 20
7.6249670558
 10
13.6632514422
 20
7.6210844178
 10
13.665012147
 20
7.6171642785
  0
LINE
  5
22B
330
1F
100
AcDbEntity
  8
0
  6
Continuous
 62
     7
370
    25
100
AcDbLine
 10
13.665012147
 20
7.5723996083
 30
0.0
 11
13.665012147
 21
7.6171642785
 31
0.0
  0
LINE
  5
22C
330
1F
100
AcDbEntity
  8
0
  6
Continuous
 62
     7
370
    25
100
AcDbLine
 10
13.4617189474
 20
7.6897582743
 30
0.0
 11
13.665012147
 21
7.5723996083
 31
0.0
  0
LINE
  5
22D
330
1F
100
AcDbEntity
  8
0
  6
Continuous
 62
     7
370
    25
100
AcDbLine
 10
13.4617189474
 20
7.7345229446
 30
0.0
 11
13.4617189474
 21
7.6897582743
 31
0.0
  0
LWPOLYLINE
  5
22E
330
1F
100
AcDbEntity
  8
0
  6
Continuous
 62
     7
370
    25
100
AcDbPolyline
 90
       10
 70
   128
 43
0.0
 10
13.4617189474
 20
7.7345229446
 10
13.4634796522
 20
7.7364102174
 10
13.4642741477
 20
7.7393755504
 10
13.4640066062
 20
7.7430612805
 10
13.462709297
 20
7.7470228544
 10
13.4605386947
 20
7.7507824477
 10
13.4577566062
 20
7.753886598
 10
13.4546985922
 20
7.755960899
 10
13.4517334944
 20
7.7567551594
 10
13.4492189474
 20
7.7561735796
  0
LINE
  5
22F
330
1F
100
AcDbEntity
  8
0
  6
Continuous
 62
     7
370
    25
100
AcDbLine
 10
13.1825374002
 20
7.9101255599
 30
0.0
 11
13.4492189474
 21
7.7561735796
 31
0.0
  0
LWPOLYLINE
  5
230
330
1F
100
AcDbEntity
  8
0
  6
Continuous
 62
     7
370
    25
100
AcDbPolyline
 90
       10
 70
   128
 43
0.0
 10
13.1825374002
 20
7.9101255599
 10
13.1800228531
 20
7.9136103738
 10
13.1770577554
 20
7.9162395425
 10
13.1739997414
 20
7.9176959493
 10
13.1712176528
 20
7.91780393
 10
13.1690470506
 20
7.9165504607
 10
13.1677497414
 20
7.9140867282
 10
13.1674821998
 20
7.9107098949
 10
13.1682766954
 20
7.9068272569
 10
13.1700374002
 20
7.9029071176
  0
LINE
  5
231
330
1F
100
AcDbEntity
  8
0
  6
Continuous
 62
     7
370
    25
100
AcDbLine
 10
13.1700374002
 20
7.8581424474
 30
0.0
 11
13.1700374002
 21
7.9029071176
 31
0.0
  0
LINE
  5
232
330
1F
100
AcDbEntity
  8
0
  6
Continuous
 62
     7
370
    25
100
AcDbLine
 10
12.9667442006
 20
7.9755011135
 30
0.0
 11
13.1700374002
 21
7.8581424474
 31
0.0
  0
LINE
  5
233
330
1F
100
AcDbEntity
  8
0
  6
Continuous
 62
     7
370
    25
100
AcDbLine
 10
12.9667442006
 20
8.0202657837
 30
0.0
 11
12.9667442006
 21
7.9755011135
 31
0.0
  0
LWPOLYLINE
  5
234
330
1F
100
AcDbEntity
  8
0
  6
Continuous
 62
     7
370
    25
100
AcDbPolyline
 90
       10
 70
   128
 43
0.0
 10
12.9667442006
 20
8.0202657837
 10
12.9685049053
 20
8.0221530566
 10
12.9692994009
 20
8.0251183895
 10
12.9690318593
 20
8.0288041196
 10
12.9677345501
 20
8.0327656935
 10
12.9655639479
 20
8.0365252868
 10
12.9627818593
 20
8.0396294372
 10
12.9597238454
 20
8.0417037382
 10
12.9567587476
 20
8.0424979985
 10
12.9542442006
 20
8.0419164187
  0
LINE
  5
235
330
1F
100
AcDbEntity
  8
0
  6
Continuous
 62
     7
370
    25
100
AcDbLine
 10
12.6875626533
 20
8.195868399
 30
0.0
 11
12.9542442006
 21
8.0419164187
 31
0.0
  0
LWPOLYLINE
  5
236
330
1F
100
AcDbEntity
  8
0
  6
Continuous
 62
     7
370
    25
100
AcDbPolyline
 90
       10
 70
   128
 43
0.0
 10
12.6875626533
 20
8.195868399
 10
12.6850481063
 20
8.199353213
 10
12.6820830085
 20
8.2019823816
 10
12.6790249946
 20
8.2034387884
 10
12.676242906
 20
8.2035467692
 10
12.6740723038
 20
8.2022932998
 10
12.6727749946
 20
8.1998295673
 10
12.672507453
 20
8.1964527341
 10
12.6733019486
 20
8.1925700961
 10
12.6750626533
 20
8.1886499568
  0
LINE
  5
237
330
1F
100
AcDbEntity
  8
0
  6
Continuous
 62
     7
370
    25
100
AcDbLine
 10
12.6750626533
 20
8.1438852865
 30
0.0
 11
12.6750626533
 21
8.1886499568
 31
0.0
  0
LINE
  5
238
330
1F
100
AcDbEntity
  8
0
  6
Continuous
 62
     7
370
    25
100
AcDbLine
 10
12.4717694537
 20
8.2612439526
 30
0.0
 11
12.6750626533
 21
8.1438852865
 31
0.0
  0
LINE
  5
239
330
1F
100
AcDbEntity
  8
0
  6
Continuous
 62
     7
370
    25
100
AcDbLine
 10
12.4717694537
 20
8.3060086228
 30
0.0
 11
12.4717694537
 21
8.2612439526
 31
0.0
  0
LWPOLYLINE
  5
23A
330
1F
100
AcDbEntity
  8
0
  6
Continuous
 62
     7
370
    25
100
AcDbPolyline
 90
       10
 70
   128
 43
0.0
 10
12.4717694537
 20
8.3060086228
 10
12.4735301585
 20
8.3078958957
 10
12.4743246541
 20
8.3108612286
 10
12.4740571125
 20
8.3145469588
 10
12.4727598033
 20
8.3185085326
 10
12.4705892011
 20
8.322268126
 10
12.4678071125
 20
8.3253722763
 10
12.4647490985
 20
8.3274465773
 10
12.4617840008
 20
8.3282408377
 10
12.4592694537
 20
8.3276592579
  0
LINE
  5
23B
330
1F
100
AcDbEntity
  8
0
  6
Continuous
 62
     7
370
    25
100
AcDbLine
 10
12.2004172265
 20
8.4770914679
 30
0.0
 11
12.4592694537
 21
8.3276592579
 31
0.0
  0
LINE
  5
23C
330
1F
100
AcDbEntity
  8
0
  6
Continuous
 62
     7
370
    25
100
AcDbLine
 10
12.2004172265
 20
8.4770914679
 30
0.0
 11
12.2004172265
 21
8.5851380511
 31
0.0
  0
LWPOLYLINE
  5
23D
330
1F
100
AcDbEntity
  8
0
  6
Continuous
 62
     7
370
    25
100
AcDbPolyline
 90
       10
 70
   128
 43
0.0
 10
12.1879172265
 20
8.6067886861
 10
12.1904317735
 20
8.6073702659
 10
12.1933968713
 20
8.6065760055
 10
12.1964548852
 20
8.6045017045
 10
12.1992369738
 20
8.6013975542
 10
12.201407576
 20
8.5976379609
 10
12.2027048852
 20
8.593676387
 10
12.2029724268
 20
8.5899906569
 10
12.2021779312
 20
8.5870253239
 10
12.2004172265
 20
8.5851380511
  0
LINE
  5
23E
330
1F
100
AcDbEntity
  8
0
  6
Continuous
 62
     7
370
    25
100
AcDbLine
 10
12.1879172265
 20
8.6067886861
 30
0.0
 11
12.1579908196
 21
8.6240648331
 31
0.0
  0
ARC
  5
23F
330
1F
100
AcDbEntity
  8
0
  6
Continuous
 62
     7
370
    25
100
AcDbCircle
 10
12.1683421861
 20
8.6402474046
 30
0.0
 40
0.0192100600946452
100
AcDbArc
 50
182.6054784856
 51
237.39452166
  0
LINE
  5
240
330
1F
100
AcDbEntity
  8
0
  6
Continuous
 62
     7
370
    25
100
AcDbLine
 10
12.1491519848
 20
8.782268786
 30
0.0
 11
12.1491519848
 21
8.6393741439
 31
0.0
  0
ARC
  5
241
330
1F
100
AcDbEntity
  8
0
  6
Continuous
 62
     7
370
    25
100
AcDbCircle
 10
12.1545404144
 20
8.783142876
 30
0.0
 40
0.0054588649678569
100
AcDbArc
 50
50.7967147643
 51
189.2140369905
  0
LINE
  5
242
330
1F
100
AcDbEntity
  8
0
  6
Continuous
 62
     7
370
    25
100
AcDbLine
 10
12.1579908196
 20
8.7873729954
 30
0.0
 11
12.1879172265
 21
8.7700968485
 31
0.0
  0
LWPOLYLINE
  5
243
330
1F
100
AcDbEntity
  8
0
  6
Continuous
 62
     7
370
    25
100
AcDbPolyline
 90
       10
 70
   128
 43
0.0
 10
12.1879172265
 20
8.7700968485
 10
12.1904317735
 20
8.7666120345
 10
12.1933968713
 20
8.7639828659
 10
12.1964548852
 20
8.7625264591
 10
12.1992369738
 20
8.7624184783
 10
12.201407576
 20
8.7636719477
 10
12.2027048852
 20
8.7661356802
 10
12.2029724268
 20
8.7695125134
 10
12.2021779312
 20
8.7733951514
 10
12.2004172265
 20
8.7773152907
  0
LINE
  5
244
330
1F
100
AcDbEntity
  8
0
  6
Continuous
 62
     7
370
    25
100
AcDbLine
 10
12.2004172265
 20
8.7773152907
 30
0.0
 11
12.2004172265
 21
8.8853618739
 31
0.0
  0
LINE
  5
245
330
1F
100
AcDbEntity
  8
0
  6
Continuous
 62
     7
370
    25
100
AcDbLine
 10
14.9263138679
 20
7.3117352383
 30
0.0
 11
12.2004172265
 21
8.8853618739
 31
0.0
  0
LINE
  5
246
330
1F
100
AcDbEntity
  8
0
  6
Continuous
 62
     7
370
    25
100
AcDbLine
 10
14.9263138679
 20
7.2036886552
 30
0.0
 11
14.9263138679
 21
7.3117352383
 31
0.0
  0
LWPOLYLINE
  5
247
330
1F
100
AcDbEntity
  8
0
  6
Continuous
 62
     7
370
    25
100
AcDbPolyline
 90
       10
 70
   128
 43
0.0
 10
14.9388138679
 20
7.1820380202
 10
14.9362993209
 20
7.1814564404
 10
14.9333342231
 20
7.1822507007
 10
14.9302762092
 20
7.1843250017
 10
14.9274941206
 20
7.1874291521
 10
14.9253235184
 20
7.1911887454
 10
14.9240262092
 20
7.1951503193
 10
14.9237586676
 20
7.1988360494
 10
14.9245531632
 20
7.2018013823
 10
14.9263138679
 20
7.2036886552
  0
LINE
  5
248
330
1F
100
AcDbEntity
  8
0
  6
Continuous
 62
     7
370
    25
100
AcDbLine
 10
14.9687402748
 20
7.1647618732
 30
0.0
 11
14.9388138679
 21
7.1820380202
 31
0.0
  0
LINE
  5
249
330
1F
100
AcDbEntity
  8
0
  6
Continuous
 62
     7
370
    25
100
AcDbLine
 10
14.9775791096
 20
7.3413300324
 30
0.0
 11
14.9263138679
 21
7.3117352383
 31
0.0
  0
LINE
  5
24A
330
1F
100
AcDbEntity
  8
0
  6
Continuous
 62
     7
370
    25
100
AcDbLine
 10
14.9775791096
 20
7.3403095222
 30
0.0
 11
14.9775791096
 21
7.3413300324
 31
0.0
  0
LINE
  5
24B
330
1F
100
AcDbEntity
  8
0
  6
Continuous
 62
     7
370
    25
100
AcDbLine
 10
14.9263138679
 20
7.2036886552
 30
0.0
 11
14.9271977514
 21
7.2041989103
 31
0.0
  0
LINE
  5
24C
330
1F
100
AcDbEntity
  8
0
  6
Continuous
 62
     7
370
    25
100
AcDbLine
 10
14.9775791096
 20
7.3413300324
 30
0.0
 11
12.2516824681
 21
8.9149566679
 31
0.0
  0
LINE
  5
24D
330
1F
100
AcDbEntity
  8
0
  6
Continuous
 62
     7
370
    25
100
AcDbLine
 10
12.2516824681
 20
8.9149566679
 30
0.0
 11
12.2004172265
 21
8.8853618739
 31
0.0
  0
LINE
  5
24E
330
1F
100
AcDbEntity
  8
0
  6
Continuous
 62
     7
370
    25
100
AcDbLine
 10
15.0288443512
 20
7.1790473564
 30
0.0
 11
14.9775791096
 21
7.1494525624
 31
0.0
  0
ARC
  5
24F
330
1F
100
AcDbEntity
  8
0
  6
Continuous
 62
     7
370
    25
100
AcDbCircle
 10
15.0092952937
 20
7.1780463885
 30
0.0
 40
0.0195746669339503
100
AcDbArc
 50
2.9311488271
 51
50.7671269362
  0
LINE
  5
250
330
1F
100
AcDbEntity
  8
0
  6
Continuous
 62
     7
370
    25
100
AcDbLine
 10
14.9775791096
 20
7.0065579203
 30
0.0
 11
15.0288443512
 21
7.0361527143
 31
0.0
  0
LINE
  5
251
330
1F
100
AcDbEntity
  8
0
  6
Continuous
 62
     7
370
    25
100
AcDbLine
 10
15.0288443512
 20
7.0361527143
 30
0.0
 11
15.0288443512
 21
7.1790473564
 31
0.0
  0
LINE
  5
252
330
1F
100
AcDbEntity
  8
0
  6
Continuous
 62
     7
370
    25
100
AcDbLine
 10
14.9432340037
 20
7.1845897102
 30
0.0
 11
14.9388138679
 21
7.1820380202
 31
0.0
  0
ARC
  5
253
330
1F
100
AcDbEntity
  8
0
  6
Continuous
 62
     7
370
    25
100
AcDbCircle
 10
15.0228982818
 20
7.035395664
 30
0.0
 40
0.0059940693325007
100
AcDbArc
 50
304.0563508452
 51
7.2558295482
  0
LINE
  5
254
330
1F
100
AcDbEntity
  8
0
  6
Continuous
 62
     7
370
    25
100
AcDbLine
 10
14.9263138679
 20
7.0115114155
 30
0.0
 11
14.9271977514
 21
7.0120216706
 31
0.0
  0
LINE
  5
255
330
1F
100
AcDbEntity
  8
0
  6
Continuous
 62
     7
370
    25
100
AcDbLine
 10
14.9271977514
 20
6.9039750875
 30
0.0
 11
14.9263138679
 21
6.9034648324
 31
0.0
  0
LINE
  5
256
330
1F
100
AcDbEntity
  8
0
  6
Continuous
 62
     7
370
    25
100
AcDbLine
 10
14.6549616407
 20
7.0456786002
 30
0.0
 11
14.6598229998
 21
7.0484850031
 31
0.0
  0
LINE
  5
257
330
1F
100
AcDbEntity
  8
0
  6
Continuous
 62
     7
370
    25
100
AcDbLine
 10
14.6598229998
 20
7.0037203329
 30
0.0
 11
14.6549616407
 21
7.00091393
 31
0.0
  0
LINE
  5
258
330
1F
100
AcDbEntity
  8
0
  6
Continuous
 62
     7
370
    25
100
AcDbLine
 10
14.1599868938
 20
7.3314214394
 30
0.0
 11
14.1648482529
 21
7.3342278422
 31
0.0
  0
LINE
  5
259
330
1F
100
AcDbEntity
  8
0
  6
Continuous
 62
     7
370
    25
100
AcDbLine
 10
14.1648482529
 20
7.289463172
 30
0.0
 11
14.1599868938
 21
7.2866567691
 31
0.0
  0
LINE
  5
25A
330
1F
100
AcDbEntity
  8
0
  6
Continuous
 62
     7
370
    25
100
AcDbLine
 10
13.665012147
 20
7.6171642785
 30
0.0
 11
13.6698735061
 21
7.6199706814
 31
0.0
  0
LINE
  5
25B
330
1F
100
AcDbEntity
  8
0
  6
Continuous
 62
     7
370
    25
100
AcDbLine
 10
13.6698735061
 20
7.5752060111
 30
0.0
 11
13.665012147
 21
7.5723996083
 31
0.0
  0
LINE
  5
25C
330
1F
100
AcDbEntity
  8
0
  6
Continuous
 62
     7
370
    25
100
AcDbLine
 10
13.1700374002
 20
7.9029071176
 30
0.0
 11
13.1748987593
 21
7.9057135205
 31
0.0
  0
LINE
  5
25D
330
1F
100
AcDbEntity
  8
0
  6
Continuous
 62
     7
370
    25
100
AcDbLine
 10
13.1748987593
 20
7.8609488503
 30
0.0
 11
13.1700374002
 21
7.8581424474
 31
0.0
  0
LINE
  5
25E
330
1F
100
AcDbEntity
  8
0
  6
Continuous
 62
     7
370
    25
100
AcDbLine
 10
12.6750626533
 20
8.1886499568
 30
0.0
 11
12.6799240125
 21
8.1914563597
 31
0.0
  0
LINE
  5
25F
330
1F
100
AcDbEntity
  8
0
  6
Continuous
 62
     7
370
    25
100
AcDbLine
 10
12.6799240125
 20
8.1466916894
 30
0.0
 11
12.6750626533
 21
8.1438852865
 31
0.0
  0
LINE
  5
260
330
1F
100
AcDbEntity
  8
0
  6
Continuous
 62
     7
370
    25
100
AcDbLine
 10
12.1879172265
 20
8.7700968485
 30
0.0
 11
12.1923373622
 21
8.7726485385
 31
0.0
  0
ARC
  5
261
330
1F
100
AcDbEntity
  8
0
  6
Continuous
 62
     7
370
    25
100
AcDbCircle
 10
15.5090444735
 20
7.4657953021
 30
0.0
 40
0.0174342013806782
100
AcDbArc
 50
1.7277871448
 51
25.6075063772
  0
LINE
  5
262
330
1F
100
AcDbEntity
  8
0
  6
Continuous
 62
     7
370
    25
100
AcDbLine
 10
15.5264707485
 20
7.3234263187
 30
0.0
 11
15.5264707485
 21
7.4663209608
 31
0.0
  0
LWPOLYLINE
  5
263
330
1F
100
AcDbEntity
  8
0
  6
Continuous
 62
     7
370
    25
100
AcDbPolyline
 90
        3
 70
   128
 43
0.0
 10
15.5262876502
 20
7.3214652754
 10
15.5263009127
 20
7.3215331226
 10
15.5264707485
 20
7.3234263187
  0
LWPOLYLINE
  5
264
330
1F
100
AcDbEntity
  8
0
  6
Continuous
 62
     7
370
    25
100
AcDbPolyline
 90
        7
 70
   128
 43
0.0
 10
15.0021124569
 20
7.4910225673
 10
15.0015504295
 20
7.4924055745
 10
14.9993798273
 20
7.4961651678
 10
14.9965977387
 20
7.4992693181
 10
14.9935397248
 20
7.5013436192
 10
14.990574627
 20
7.5021378795
 10
14.98806008
 20
7.5015562997
  0
LINE
  5
265
330
1F
100
AcDbEntity
  8
0
  6
Continuous
 62
     7
370
    25
100
AcDbLine
 10
14.7213785327
 20
7.65550828
 30
0.0
 11
14.98806008
 21
7.5015562997
 31
0.0
  0
LWPOLYLINE
  5
266
330
1F
100
AcDbEntity
  8
0
  6
Continuous
 62
     7
370
    25
100
AcDbPolyline
 90
        7
 70
   128
 43
0.0
 10
14.7213785327
 20
7.65550828
 10
14.7188639857
 20
7.658993094
 10
14.7158988879
 20
7.6616222626
 10
14.7128408739
 20
7.6630786694
 10
14.7100587854
 20
7.6631866502
 10
14.7078881832
 20
7.6619331808
 10
14.7073646625
 20
7.661259468
  0
LWPOLYLINE
  5
267
330
1F
100
AcDbEntity
  8
0
  6
Continuous
 62
     7
370
    25
100
AcDbPolyline
 90
        7
 70
   128
 43
0.0
 10
14.50713771
 20
7.7767654064
 10
14.5065756827
 20
7.7781484136
 10
14.5044050805
 20
7.7819080069
 10
14.5016229919
 20
7.7850121573
 10
14.4985649779
 20
7.7870864583
 10
14.4955998801
 20
7.7878807187
 10
14.4930853331
 20
7.7872991389
  0
LINE
  5
268
330
1F
100
AcDbEntity
  8
0
  6
Continuous
 62
     7
370
    25
100
AcDbLine
 10
14.2264037859
 20
7.9412511191
 30
0.0
 11
14.4930853331
 21
7.7872991389
 31
0.0
  0
LWPOLYLINE
  5
269
330
1F
100
AcDbEntity
  8
0
  6
Continuous
 62
     7
370
    25
100
AcDbPolyline
 90
        7
 70
   128
 43
0.0
 10
14.2264037859
 20
7.9412511191
 10
14.2238892389
 20
7.9447359331
 10
14.2209241411
 20
7.9473651018
 10
14.2178661271
 20
7.9488215085
 10
14.2150840385
 20
7.9489294893
 10
14.2129134363
 20
7.94767602
 10
14.2123899157
 20
7.9470023072
  0
LWPOLYLINE
  5
26A
330
1F
100
AcDbEntity
  8
0
  6
Continuous
 62
     7
370
    25
100
AcDbPolyline
 90
        7
 70
   128
 43
0.0
 10
14.0121629632
 20
8.0625082456
 10
14.0116009359
 20
8.0638912528
 10
14.0094303336
 20
8.0676508461
 10
14.0066482451
 20
8.0707549964
 10
14.0035902311
 20
8.0728292974
 10
14.0006251333
 20
8.0736235578
 10
13.9981105863
 20
8.073041978
  0
LINE
  5
26B
330
1F
100
AcDbEntity
  8
0
  6
Continuous
 62
     7
370
    25
100
AcDbLine
 10
13.7314290391
 20
8.2269939583
 30
0.0
 11
13.9981105863
 21
8.073041978
 31
0.0
  0
LWPOLYLINE
  5
26C
330
1F
100
AcDbEntity
  8
0
  6
Continuous
 62
     7
370
    25
100
AcDbPolyline
 90
        7
 70
   128
 43
0.0
 10
13.7314290391
 20
8.2269939583
 10
13.728914492
 20
8.2304787722
 10
13.7259493943
 20
8.2331079409
 10
13.7228913803
 20
8.2345643477
 10
13.7201092917
 20
8.2346723284
 10
13.7179386895
 20
8.2334188591
 10
13.7174151688
 20
8.2327451463
  0
LWPOLYLINE
  5
26D
330
1F
100
AcDbEntity
  8
0
  6
Continuous
 62
     7
370
    25
100
AcDbPolyline
 90
        7
 70
   128
 43
0.0
 10
13.5171882164
 20
8.3482510847
 10
13.516626189
 20
8.3496340919
 10
13.5144555868
 20
8.3533936852
 10
13.5116734982
 20
8.3564978356
 10
13.5086154843
 20
8.3585721366
 10
13.5056503865
 20
8.3593663969
 10
13.5031358395
 20
8.3587848171
  0
LINE
  5
26E
330
1F
100
AcDbEntity
  8
0
  6
Continuous
 62
     7
370
    25
100
AcDbLine
 10
13.2364542922
 20
8.5127367974
 30
0.0
 11
13.5031358395
 21
8.3587848171
 31
0.0
  0
LWPOLYLINE
  5
26F
330
1F
100
AcDbEntity
  8
0
  6
Continuous
 62
     7
370
    25
100
AcDbPolyline
 90
        7
 70
   128
 43
0.0
 10
13.2364542922
 20
8.5127367974
 10
13.2339397452
 20
8.5162216114
 10
13.2309746474
 20
8.51885078
 10
13.2279166335
 20
8.5203071868
 10
13.2251345449
 20
8.5204151676
 10
13.2229639427
 20
8.5191616982
 10
13.222440422
 20
8.5184879854
  0
LWPOLYLINE
  5
270
330
1F
100
AcDbEntity
  8
0
  6
Continuous
 62
     7
370
    25
100
AcDbPolyline
 90
        7
 70
   128
 43
0.0
 10
13.0222134695
 20
8.6339939239
 10
13.0216514422
 20
8.635376931
 10
13.01948084
 20
8.6391365244
 10
13.0166987514
 20
8.6422406747
 10
13.0136407374
 20
8.6443149757
 10
13.0106756397
 20
8.6451092361
 10
13.0081610926
 20
8.6445276563
  0
LINE
  5
271
330
1F
100
AcDbEntity
  8
0
  6
Continuous
 62
     7
370
    25
100
AcDbLine
 10
12.7493088654
 20
8.7939598663
 30
0.0
 11
13.0081610926
 21
8.6445276563
 31
0.0
  0
LINE
  5
272
330
1F
100
AcDbEntity
  8
0
  6
Continuous
 62
     7
370
    25
100
AcDbLine
 10
12.7493088654
 20
8.7939598663
 30
0.0
 11
12.7493088654
 21
8.9020064495
 31
0.0
  0
LWPOLYLINE
  5
273
330
1F
100
AcDbEntity
  8
0
  6
Continuous
 62
     7
370
    25
100
AcDbPolyline
 90
        7
 70
   128
 43
0.0
 10
12.7476720561
 20
8.9188749199
 10
12.7481286127
 20
8.9182659526
 10
12.7502992149
 20
8.9145063593
 10
12.7515965241
 20
8.9105447854
 10
12.7518640657
 20
8.9068590553
 10
12.7510695701
 20
8.9038937223
 10
12.7493088654
 20
8.9020064495
  0
LWPOLYLINE
  5
274
330
1F
100
AcDbEntity
  8
0
  6
Continuous
 62
     7
370
    25
100
AcDbPolyline
 90
        7
 70
   128
 43
0.0
 10
12.7478590524
 20
9.0792329514
 10
12.7481286127
 20
9.0792868767
 10
12.7502992149
 20
9.0805403461
 10
12.7515965241
 20
9.0830040786
 10
12.7518640657
 20
9.0863809118
 10
12.7510695701
 20
9.0902635498
 10
12.7493088654
 20
9.0941836891
  0
LINE
  5
275
330
1F
100
AcDbEntity
  8
0
  6
Continuous
 62
     7
370
    25
100
AcDbLine
 10
12.7493088654
 20
9.0941836891
 30
0.0
 11
12.7493088654
 21
9.2022302723
 31
0.0
  0
LINE
  5
276
330
1F
100
AcDbEntity
  8
0
  6
Continuous
 62
     7
370
    25
100
AcDbLine
 10
15.4752055068
 20
7.6286036367
 30
0.0
 11
12.7493088654
 21
9.2022302723
 31
0.0
  0
LINE
  5
277
330
1F
100
AcDbEntity
  8
0
  6
Continuous
 62
     7
370
    25
100
AcDbLine
 10
15.4752055068
 20
7.6275831266
 30
0.0
 11
15.4752055068
 21
7.6286036367
 31
0.0
  0
LINE
  5
278
330
1F
100
AcDbEntity
  8
0
  6
Continuous
 62
     7
370
    25
100
AcDbLine
 10
15.5264707485
 20
7.6581984308
 30
0.0
 11
15.4752055068
 21
7.6286036367
 31
0.0
  0
LINE
  5
279
330
1F
100
AcDbEntity
  8
0
  6
Continuous
 62
     7
370
    25
100
AcDbLine
 10
15.5264707485
 20
7.6571779207
 30
0.0
 11
15.5264707485
 21
7.6581984308
 31
0.0
  0
LINE
  5
27A
330
1F
100
AcDbEntity
  8
0
  6
Continuous
 62
     7
370
    25
100
AcDbLine
 10
12.800574107
 20
9.2318250663
 30
0.0
 11
12.7493088654
 21
9.2022302723
 31
0.0
  0
LINE
  5
27B
330
1F
100
AcDbEntity
  8
0
  6
Continuous
 62
     7
370
    25
100
AcDbLine
 10
15.5264707485
 20
7.6581984308
 30
0.0
 11
12.800574107
 21
9.2318250663
 31
0.0
  0
LINE
  5
27C
330
1F
100
AcDbEntity
  8
0
  6
Continuous
 62
     7
370
    25
100
AcDbLine
 10
15.5777359901
 20
7.4959157548
 30
0.0
 11
15.5264707485
 21
7.4663209608
 31
0.0
  0
ARC
  5
27D
330
1F
100
AcDbEntity
  8
0
  6
Continuous
 62
     7
370
    25
100
AcDbCircle
 10
15.5584277842
 20
7.4950060555
 30
0.0
 40
0.0193296240958051
100
AcDbArc
 50
2.6974756063
 51
43.1361801178
  0
LINE
  5
27E
330
1F
100
AcDbEntity
  8
0
  6
Continuous
 62
     7
370
    25
100
AcDbLine
 10
15.5264707485
 20
7.3234263187
 30
0.0
 11
15.5777359901
 21
7.3530211127
 31
0.0
  0
LINE
  5
27F
330
1F
100
AcDbEntity
  8
0
  6
Continuous
 62
     7
370
    25
100
AcDbLine
 10
15.5777359901
 20
7.3530211127
 30
0.0
 11
15.5777359901
 21
7.4959157548
 31
0.0
  0
ARC
  5
280
330
1F
100
AcDbEntity
  8
0
  6
Continuous
 62
     7
370
    25
100
AcDbCircle
 10
15.5717899207
 20
7.3522640624
 30
0.0
 40
0.0059940693216513
100
AcDbArc
 50
304.0563507814
 51
7.255829612
  0
LWPOLYLINE
  5
281
330
1F
100
AcDbEntity
  8
0
  6
Continuous
 62
     7
370
    25
100
AcDbPolyline
 90
        7
 70
   128
 43
0.0
 10
12.6868694489
 20
8.7579143585
 10
12.689383996
 20
8.7613991725
 10
12.6923490937
 20
8.7640283411
 10
12.6954071077
 20
8.7654847479
 10
12.6981891963
 20
8.7655927287
 10
12.7003597985
 20
8.7643392593
 10
12.7013378588
 20
8.7628060984
  0
LINE
  5
282
330
1F
100
AcDbEntity
  8
0
  6
Continuous
 62
     7
370
    25
100
AcDbLine
 10
12.6052933257
 20
8.710821465
 30
0.0
 11
12.6868694489
 21
8.7579143585
 31
0.0
  0
LINE
  5
283
330
1F
100
AcDbEntity
  8
0
  6
Continuous
 62
     7
370
    25
100
AcDbLine
 10
12.2029760447
 20
8.7694613065
 30
0.0
 11
12.2004172265
 21
8.7679841322
 31
0.0
  0
LINE
  5
284
330
1F
100
AcDbEntity
  8
0
  6
Continuous
 62
     7
370
    25
100
AcDbLine
 10
12.2004172265
 20
8.7679841322
 30
0.0
 11
12.2004172265
 21
8.8853618739
 31
0.0
  0
LINE
  5
285
330
1F
100
AcDbEntity
  8
0
  6
Continuous
 62
     7
370
    25
100
AcDbLine
 10
12.2004172265
 20
8.8853618739
 30
0.0
 11
12.800574107
 21
9.2318250663
 31
0.0
  0
ARC
  5
286
330
1F
100
AcDbEntity
  8
0
  6
Continuous
 62
     7
370
    25
100
AcDbCircle
 10
12.7614932232
 20
9.0779811618
 30
0.0
 40
0.0137499569044436
100
AcDbArc
 50
135.3332428733
 51
207.6081220438
  0
LWPOLYLINE
  5
287
330
1F
100
AcDbEntity
  8
0
  6
Continuous
 62
     7
370
    25
100
AcDbPolyline
 90
        7
 70
   128
 43
0.0
 10
12.7514037677
 20
8.9113785857
 10
12.7513730015
 20
8.9113855893
 10
12.7492023993
 20
8.9126390587
 10
12.7479050901
 20
8.9151027912
 10
12.7476375485
 20
8.9184796244
 10
12.7484320441
 20
8.9223622624
 10
12.7493088654
 20
8.9245810046
  0
LINE
  5
288
330
1F
100
AcDbEntity
  8
0
  6
Continuous
 62
     7
370
    25
100
AcDbLine
 10
12.3767807135
 20
8.31556953
 30
0.0
 11
12.2711279046
 21
8.2545774617
 31
0.0
  0
LWPOLYLINE
  5
289
330
1F
100
AcDbEntity
  8
0
  6
Continuous
 62
     7
370
    25
100
AcDbPolyline
 90
       14
 70
   128
 43
0.0
 10
12.2004172265
 20
8.2954111373
 10
12.2009327869
 20
8.2858664521
 10
12.2024719503
 20
8.2770562034
 10
12.205012272
 20
8.2691088644
 10
12.2085167086
 20
8.2621403252
 10
12.2129341573
 20
8.2562522027
 10
12.218200202
 20
8.2515303592
 10
12.2242380517
 20
8.2480436496
 10
12.2309596611
 20
8.2458429181
 10
12.2382670139
 20
8.2449602563
 10
12.2460535526
 20
8.2454085354
 10
12.2542057317
 20
8.2471812184
 10
12.2626046742
 20
8.2502524557
 10
12.2711279046
 20
8.2545774617
  0
LINE
  5
28A
330
1F
100
AcDbEntity
  8
0
  6
Continuous
 62
     7
370
    25
100
AcDbLine
 10
12.2004172265
 20
8.5944692096
 30
0.0
 11
12.2004172265
 21
8.2954111373
 31
0.0
  0
LINE
  5
28B
330
1F
100
AcDbEntity
  8
0
  6
Continuous
 62
     7
370
    25
100
AcDbLine
 10
12.2022233661
 20
8.5955118719
 30
0.0
 11
12.2004172265
 21
8.5944692096
 31
0.0
  0
LINE
  5
28C
330
1F
100
AcDbEntity
  8
0
  6
Continuous
 62
     7
370
    25
100
AcDbLine
 10
12.2004172265
 20
8.8853618739
 30
0.0
 11
12.1500358683
 21
8.9144464129
 31
0.0
  0
LINE
  5
28D
330
1F
100
AcDbEntity
  8
0
  6
Continuous
 62
     7
370
    25
100
AcDbLine
 10
12.2004172265
 20
8.7679841322
 30
0.0
 11
12.1500358683
 21
8.7970686711
 31
0.0
  0
LINE
  5
28E
330
1F
100
AcDbEntity
  8
0
  6
Continuous
 62
     7
370
    25
100
AcDbLine
 10
12.1500358683
 20
8.7970686711
 30
0.0
 11
12.1500358683
 21
8.9144464129
 31
0.0
  0
LINE
  5
28F
330
1F
100
AcDbEntity
  8
0
  6
Continuous
 62
     7
370
    25
100
AcDbLine
 10
12.800574107
 20
9.2318250663
 30
0.0
 11
12.7501927488
 21
9.2609096053
 31
0.0
  0
LINE
  5
290
330
1F
100
AcDbEntity
  8
0
  6
Continuous
 62
     7
370
    25
100
AcDbLine
 10
12.1500358683
 20
8.9144464129
 30
0.0
 11
12.7501927488
 21
9.2609096053
 31
0.0
  0
LINE
  5
291
330
1F
100
AcDbEntity
  8
0
  6
Continuous
 62
     7
370
    25
100
AcDbLine
 10
12.2004172265
 20
8.5944692096
 30
0.0
 11
12.1500358683
 21
8.6235537486
 31
0.0
  0
LINE
  5
292
330
1F
100
AcDbEntity
  8
0
  6
Continuous
 62
     7
370
    25
100
AcDbLine
 10
12.1549834447
 20
8.6264099237
 30
0.0
 11
12.1500358683
 21
8.6235537486
 31
0.0
  0
LINE
  5
293
330
1F
100
AcDbEntity
  8
0
  6
Continuous
 62
     7
370
    25
100
AcDbLine
 10
12.1500358683
 20
8.3244956763
 30
0.0
 11
12.2004172265
 21
8.2954111373
 31
0.0
  0
LINE
  5
294
330
1F
100
AcDbEntity
  8
0
  6
Continuous
 62
     7
370
    25
100
AcDbLine
 10
12.1500358683
 20
8.6235537486
 30
0.0
 11
12.1500358683
 21
8.3244956763
 31
0.0
  0
LWPOLYLINE
  5
295
330
1F
100
AcDbEntity
  8
0
  6
Continuous
 62
     7
370
    25
100
AcDbPolyline
 90
        8
 70
   128
 43
0.0
 10
12.1707506098
 20
8.2787111956
 10
12.1678188438
 20
8.2806148982
 10
12.1625527992
 20
8.2853367417
 10
12.1581353504
 20
8.2912248641
 10
12.1546309138
 20
8.2981934034
 10
12.1520905921
 20
8.3061407424
 10
12.1505514288
 20
8.3149509911
 10
12.1500358683
 20
8.3244956763
  0
LINE
  5
296
330
1F
100
AcDbEntity
  8
0
  6
Continuous
 62
     7
370
    25
100
AcDbLine
 10
14.9271977514
 20
7.3112249833
 30
0.0
 11
14.9775791096
 21
7.2821404443
 31
0.0
  0
LINE
  5
297
330
1F
100
AcDbEntity
  8
0
  6
Continuous
 62
     7
370
    25
100
AcDbLine
 10
15.5273546319
 20
7.6576881757
 30
0.0
 11
14.9271977514
 21
7.3112249833
 31
0.0
  0
LINE
  5
298
330
1F
100
AcDbEntity
  8
0
  6
Continuous
 62
     7
370
    25
100
AcDbLine
 10
15.5273546319
 20
7.6576881757
 30
0.0
 11
15.5777359901
 21
7.6286036367
 31
0.0
  0
LINE
  5
299
330
1F
100
AcDbEntity
  8
0
  6
Continuous
 62
     7
370
    25
100
AcDbLine
 10
15.5777359901
 20
7.6286036367
 30
0.0
 11
14.9775791096
 21
7.2821404443
 31
0.0
  0
LWPOLYLINE
  5
29A
330
1F
100
AcDbEntity
  8
0
  6
Continuous
 62
     7
370
    25
100
AcDbPolyline
 90
       10
 70
   128
 43
0.0
 10
15.3380674455
 20
7.0220463731
 10
15.336256594
 20
7.019697737
 10
15.3332914963
 20
7.0170685683
 10
15.3302334823
 20
7.0156121615
 10
15.3274513937
 20
7.0155041808
 10
15.3252807915
 20
7.0167576501
 10
15.3239834823
 20
7.0192213826
 10
15.3237159407
 20
7.0225982159
 10
15.3245104363
 20
7.0264808539
 10
15.326271141
 20
7.0304009932
  0
LWPOLYLINE
  5
29B
330
1F
100
AcDbEntity
  8
0
  6
Continuous
 62
     7
370
    25
100
AcDbPolyline
 90
       10
 70
   128
 43
0.0
 10
15.476531332
 20
7.1171443551
 10
15.4782920368
 20
7.1152570822
 10
15.4790865324
 20
7.1122917493
 10
15.4788189908
 20
7.1086060191
 10
15.4775216816
 20
7.1046444453
 10
15.4753510794
 20
7.1008848519
 10
15.4725689908
 20
7.0977807016
 10
15.4695109768
 20
7.0957064006
 10
15.4665458791
 20
7.0949121402
 10
15.4650018234
 20
7.0950853002
  0
LINE
  5
29C
330
1F
100
AcDbEntity
  8
0
  6
Continuous
 62
     7
370
    25
100
AcDbLine
 10
15.476531332
 20
7.1474744867
 30
0.0
 11
15.476531332
 21
7.1171443551
 31
0.0
  0
LWPOLYLINE
  5
29D
330
1F
100
AcDbEntity
  8
0
  6
Continuous
 62
     7
370
    25
100
AcDbPolyline
 90
       10
 70
   128
 43
0.0
 10
15.464031332
 20
7.1546929289
 10
15.4665458791
 20
7.1581777429
 10
15.4695109768
 20
7.1608069115
 10
15.4725689908
 20
7.1622633183
 10
15.4753510794
 20
7.1623712991
 10
15.4775216816
 20
7.1611178297
 10
15.4788189908
 20
7.1586540972
 10
15.4790865324
 20
7.155277264
 10
15.4782920368
 20
7.151394626
 10
15.476531332
 20
7.1474744867
  0
LINE
  5
29E
330
1F
100
AcDbEntity
  8
0
  6
Continuous
 62
     7
370
    25
100
AcDbLine
 10
15.338771141
 20
7.0823817598
 30
0.0
 11
15.464031332
 21
7.1546929289
 31
0.0
  0
LWPOLYLINE
  5
29F
330
1F
100
AcDbEntity
  8
0
  6
Continuous
 62
     7
370
    25
100
AcDbPolyline
 90
       10
 70
   128
 43
0.0
 10
15.326271141
 20
7.0607311248
 10
15.3245104363
 20
7.0626183976
 10
15.3237159407
 20
7.0655837306
 10
15.3239834823
 20
7.0692694607
 10
15.3252807915
 20
7.0732310346
 10
15.3274513937
 20
7.0769906279
 10
15.3302334823
 20
7.0800947782
 10
15.3332914963
 20
7.0821690792
 10
15.336256594
 20
7.0829633396
 10
15.338771141
 20
7.0823817598
  0
LINE
  5
2A0
330
1F
100
AcDbEntity
  8
0
  6
Continuous
 62
     7
370
    25
100
AcDbLine
 10
15.326271141
 20
7.0607311248
 30
0.0
 11
15.326271141
 21
7.0304009932
 31
0.0
  0
LINE
  5
2A1
330
1F
100
AcDbEntity
  8
0
  6
Continuous
 62
     7
370
    25
100
AcDbLine
 10
15.2165439586
 20
7.0118215093
 30
0.0
 11
15.0912837676
 21
6.9395103402
 31
0.0
  0
LWPOLYLINE
  5
2A2
330
1F
100
AcDbEntity
  8
0
  6
Continuous
 62
     7
370
    25
100
AcDbPolyline
 90
       10
 70
   128
 43
0.0
 10
15.0912837676
 20
6.9395103402
 10
15.0887692206
 20
6.94009192
 10
15.0858041228
 20
6.9392976597
 10
15.0827461089
 20
6.9372233587
 10
15.0799640203
 20
6.9341192083
 10
15.0777934181
 20
6.930359615
 10
15.0764961089
 20
6.9263980411
 10
15.0762285673
 20
6.922712311
 10
15.0770230629
 20
6.9197469781
 10
15.0787837676
 20
6.9178597052
  0
LINE
  5
2A3
330
1F
100
AcDbEntity
  8
0
  6
Continuous
 62
     7
370
    25
100
AcDbLine
 10
15.0787837676
 20
6.9178597052
 30
0.0
 11
15.0787837676
 21
6.8875295736
 31
0.0
  0
LWPOLYLINE
  5
2A4
330
1F
100
AcDbEntity
  8
0
  6
Continuous
 62
     7
370
    25
100
AcDbPolyline
 90
       10
 70
   128
 43
0.0
 10
15.0787837676
 20
6.8875295736
 10
15.0770230629
 20
6.8836094343
 10
15.0762285673
 20
6.8797267963
 10
15.0764961089
 20
6.8763499631
 10
15.0777934181
 20
6.8738862305
 10
15.0799640203
 20
6.8726327612
 10
15.0827461089
 20
6.872740742
 10
15.0858041228
 20
6.8741971487
 10
15.0887692206
 20
6.8768263174
 10
15.0905800721
 20
6.8791749536
  0
LWPOLYLINE
  5
2A5
330
1F
100
AcDbEntity
  8
0
  6
Continuous
 62
     7
370
    25
100
AcDbPolyline
 90
       10
 70
   128
 43
0.0
 10
15.21751445
 20
6.9522138807
 10
15.2190585056
 20
6.9520407207
 10
15.2220236034
 20
6.952834981
 10
15.2250816174
 20
6.954909282
 10
15.227863706
 20
6.9580134324
 10
15.2300343082
 20
6.9617730257
 10
15.2313316174
 20
6.9657345996
 10
15.231599159
 20
6.9694203297
 10
15.2308046634
 20
6.9723856626
 10
15.2290439586
 20
6.9742729355
  0
LINE
  5
2A6
330
1F
100
AcDbEntity
  8
0
  6
Continuous
 62
     7
370
    25
100
AcDbLine
 10
15.2290439586
 20
7.0046030671
 30
0.0
 11
15.2290439586
 21
6.9742729355
 31
0.0
  0
LWPOLYLINE
  5
2A7
330
1F
100
AcDbEntity
  8
0
  6
Continuous
 62
     7
370
    25
100
AcDbPolyline
 90
       10
 70
   128
 43
0.0
 10
15.2290439586
 20
7.0046030671
 10
15.2308046634
 20
7.0085232064
 10
15.231599159
 20
7.0124058444
 10
15.2313316174
 20
7.0157826776
 10
15.2300343082
 20
7.0182464102
 10
15.227863706
 20
7.0194998795
 10
15.2250816174
 20
7.0193918987
 10
15.2220236034
 20
7.017935492
 10
15.2190585056
 20
7.0153063233
 10
15.2165439586
 20
7.0118215093
  0
LINE
  5
2A8
330
1F
100
AcDbEntity
  8
0
  6
Continuous
 62
     7
370
    25
100
AcDbLine
 10
15.5273546319
 20
7.4668312158
 30
0.0
 11
15.5269126902
 21
7.4665760883
 31
0.0
  0
LINE
  5
2A9
330
1F
100
AcDbEntity
  8
0
  6
Continuous
 62
     7
370
    25
100
AcDbLine
 10
15.5269126902
 20
7.4665760883
 30
0.0
 11
15.5269126902
 21
7.3236814462
 31
0.0
  0
LINE
  5
2AA
330
1F
100
AcDbEntity
  8
0
  6
Continuous
 62
     7
370
    25
100
AcDbLine
 10
15.5269126902
 20
7.3236814462
 30
0.0
 11
15.5273546319
 21
7.3239365737
 31
0.0
  0
LINE
  5
2AB
330
1F
100
AcDbEntity
  8
0
  6
Continuous
 62
     7
370
    25
100
AcDbLine
 10
15.5273546319
 20
7.3230609721
 30
0.0
 11
15.5273546319
 21
7.3239365737
 31
0.0
  0
LWPOLYLINE
  5
2AC
330
1F
100
AcDbEntity
  8
0
  6
Continuous
 62
     7
370
    25
100
AcDbPolyline
 90
       10
 70
   128
 43
0.0
 10
15.5398546319
 20
7.3158425299
 10
15.5373400849
 20
7.3123577159
 10
15.5343749872
 20
7.3097285473
 10
15.5313169732
 20
7.3082721405
 10
15.5285348846
 20
7.3081641597
 10
15.5263642824
 20
7.3094176291
 10
15.5250669732
 20
7.3118813616
 10
15.5247994316
 20
7.3152581948
 10
15.5255939272
 20
7.3191408328
 10
15.5273546319
 20
7.3230609721
  0
LINE
  5
2AD
330
1F
100
AcDbEntity
  8
0
  6
Continuous
 62
     7
370
    25
100
AcDbLine
 10
15.5398546319
 20
7.3158425299
 30
0.0
 11
15.5777359901
 21
7.3377109725
 31
0.0
  0
LINE
  5
2AE
330
1F
100
AcDbEntity
  8
0
  6
Continuous
 62
     7
370
    25
100
AcDbLine
 10
15.5777359901
 20
7.3377109725
 30
0.0
 11
15.5777359901
 21
7.0386529001
 31
0.0
  0
ARC
  5
2AF
330
1F
100
AcDbEntity
  8
0
  6
Continuous
 62
     7
370
    25
100
AcDbCircle
 10
15.4246439002
 20
7.0453910018
 30
0.0
 40
0.1532403015206237
100
AcDbArc
 50
302.5201547614
 51
357.479845093
  0
LINE
  5
2B0
330
1F
100
AcDbEntity
  8
0
  6
Continuous
 62
     7
370
    25
100
AcDbLine
 10
15.0482897877
 20
6.6513560321
 30
0.0
 11
15.507025312
 21
6.9161784134
 31
0.0
  0
LWPOLYLINE
  5
2B1
330
1F
100
AcDbEntity
  8
0
  6
Continuous
 62
     7
370
    25
100
AcDbPolyline
 90
       14
 70
   128
 43
0.0
 10
14.9775791096
 20
6.6921897077
 10
14.97809467
 20
6.6826450225
 10
14.9796338334
 20
6.6738347738
 10
14.9821741551
 20
6.6658874348
 10
14.9856785917
 20
6.6589188956
 10
14.9900960405
 20
6.6530307731
 10
14.9953620851
 20
6.6483089296
 10
15.0013999348
 20
6.64482222
 10
15.0081215442
 20
6.6426214885
 10
15.0154288971
 20
6.6417388267
 10
15.0232154357
 20
6.6421871058
 10
15.0313676148
 20
6.6439597888
 10
15.0397665573
 20
6.6470310261
 10
15.0482897877
 20
6.6513560321
  0
LINE
  5
2B2
330
1F
100
AcDbEntity
  8
0
  6
Continuous
 62
     7
370
    25
100
AcDbLine
 10
14.9775791096
 20
6.99124778
 30
0.0
 11
14.9775791096
 21
6.6921897077
 31
0.0
  0
LINE
  5
2B3
330
1F
100
AcDbEntity
  8
0
  6
Continuous
 62
     7
370
    25
100
AcDbLine
 10
15.0154604677
 20
7.0131162226
 30
0.0
 11
14.9775791096
 21
6.99124778
 31
0.0
  0
LWPOLYLINE
  5
2B4
330
1F
100
AcDbEntity
  8
0
  6
Continuous
 62
     7
370
    25
100
AcDbPolyline
 90
       10
 70
   128
 43
0.0
 10
15.0154604677
 20
7.0131162226
 10
15.0179750147
 20
7.0125346428
 10
15.0209401125
 20
7.0133289032
 10
15.0239981265
 20
7.0154032042
 10
15.0267802151
 20
7.0185073546
 10
15.0289508173
 20
7.0222669479
 10
15.0302481265
 20
7.0262285217
 10
15.0305156681
 20
7.0299142519
 10
15.0297211725
 20
7.0328795848
 10
15.0279604677
 20
7.0347668577
  0
LINE
  5
2B5
330
1F
100
AcDbEntity
  8
0
  6
Continuous
 62
     7
370
    25
100
AcDbLine
 10
15.0279604677
 20
7.0347668577
 30
0.0
 11
15.0279604677
 21
7.0356424593
 31
0.0
  0
LINE
  5
2B6
330
1F
100
AcDbEntity
  8
0
  6
Continuous
 62
     7
370
    25
100
AcDbLine
 10
15.0284024095
 20
7.0358975868
 30
0.0
 11
15.0279604677
 21
7.0356424593
 31
0.0
  0
LINE
  5
2B7
330
1F
100
AcDbEntity
  8
0
  6
Continuous
 62
     7
370
    25
100
AcDbLine
 10
15.0284024095
 20
7.1787922289
 30
0.0
 11
15.0284024095
 21
7.0358975868
 31
0.0
  0
LINE
  5
2B8
330
1F
100
AcDbEntity
  8
0
  6
Continuous
 62
     7
370
    25
100
AcDbLine
 10
15.0279604677
 20
7.1785371013
 30
0.0
 11
15.0284024095
 21
7.1787922289
 31
0.0
  0
LINE
  5
2B9
330
1F
100
AcDbEntity
  8
0
  6
Continuous
 62
     7
370
    25
100
AcDbLine
 10
15.0279604677
 20
7.1794127029
 30
0.0
 11
15.0279604677
 21
7.1785371013
 31
0.0
  0
LWPOLYLINE
  5
2BA
330
1F
100
AcDbEntity
  8
0
  6
Continuous
 62
     7
370
    25
100
AcDbPolyline
 90
       10
 70
   128
 43
0.0
 10
15.0279604677
 20
7.1794127029
 10
15.0297211725
 20
7.1833328422
 10
15.0305156681
 20
7.1872154802
 10
15.0302481265
 20
7.1905923135
 10
15.0289508173
 20
7.193056046
 10
15.0267802151
 20
7.1943095153
 10
15.0239981265
 20
7.1942015346
 10
15.0209401125
 20
7.1927451278
 10
15.0179750147
 20
7.1901159591
 10
15.0154604677
 20
7.1866311452
  0
LINE
  5
2BB
330
1F
100
AcDbEntity
  8
0
  6
Continuous
 62
     7
370
    25
100
AcDbLine
 10
15.0154604677
 20
7.1866311452
 30
0.0
 11
14.9775791096
 21
7.1647627026
 31
0.0
  0
LINE
  5
2BC
330
1F
100
AcDbEntity
  8
0
  6
Continuous
 62
     7
370
    25
100
AcDbLine
 10
14.9775791096
 20
7.1647627026
 30
0.0
 11
14.9775791096
 21
7.2821404443
 31
0.0
  0
LINE
  5
2BD
330
1F
100
AcDbEntity
  8
0
  6
Continuous
 62
     7
370
    25
100
AcDbLine
 10
15.5777359901
 20
7.511225895
 30
0.0
 11
15.5777359901
 21
7.6286036367
 31
0.0
  0
LINE
  5
2BE
330
1F
100
AcDbEntity
  8
0
  6
Continuous
 62
     7
370
    25
100
AcDbLine
 10
15.5398546319
 20
7.4893574524
 30
0.0
 11
15.5777359901
 21
7.511225895
 31
0.0
  0
LWPOLYLINE
  5
2BF
330
1F
100
AcDbEntity
  8
0
  6
Continuous
 62
     7
370
    25
100
AcDbPolyline
 90
       10
 70
   128
 43
0.0
 10
15.5273546319
 20
7.4677068174
 10
15.5255939272
 20
7.4695940903
 10
15.5247994316
 20
7.4725594232
 10
15.5250669732
 20
7.4762451533
 10
15.5263642824
 20
7.4802067272
 10
15.5285348846
 20
7.4839663205
 10
15.5313169732
 20
7.4870704709
 10
15.5343749872
 20
7.4891447719
 10
15.5373400849
 20
7.4899390322
 10
15.5398546319
 20
7.4893574524
  0
LINE
  5
2C0
330
1F
100
AcDbEntity
  8
0
  6
Continuous
 62
     7
370
    25
100
AcDbLine
 10
15.5273546319
 20
7.4677068174
 30
0.0
 11
15.5273546319
 21
7.4668312158
 31
0.0
  0
LINE
  5
2C1
330
1F
100
AcDbEntity
  8
0
  6
Continuous
 62
     7
370
    25
100
AcDbLine
 10
14.9271977514
 20
7.1938472416
 30
0.0
 11
14.9775791096
 21
7.1647627026
 31
0.0
  0
LINE
  5
2C2
330
1F
100
AcDbEntity
  8
0
  6
Continuous
 62
     7
370
    25
100
AcDbLine
 10
14.9271977514
 20
7.1938472416
 30
0.0
 11
14.9271977514
 21
7.3112249833
 31
0.0
  0
LINE
  5
2C3
330
1F
100
AcDbEntity
  8
0
  6
Continuous
 62
     7
370
    25
100
AcDbLine
 10
15.0279278838
 20
7.1794315132
 30
0.0
 11
15.0279604677
 21
7.1794127029
 31
0.0
  0
LINE
  5
2C4
330
1F
100
AcDbEntity
  8
0
  6
Continuous
 62
     7
370
    25
100
AcDbLine
 10
14.9271977514
 20
7.020332319
 30
0.0
 11
14.9775791096
 21
6.99124778
 31
0.0
  0
LINE
  5
2C5
330
1F
100
AcDbEntity
  8
0
  6
Continuous
 62
     7
370
    25
100
AcDbLine
 10
15.0058622417
 20
7.0186571606
 30
0.0
 11
15.0154604677
 21
7.0131162226
 31
0.0
  0
LINE
  5
2C6
330
1F
100
AcDbEntity
  8
0
  6
Continuous
 62
     7
370
    25
100
AcDbLine
 10
14.934076694
 20
7.0243034481
 30
0.0
 11
14.9271977514
 21
7.020332319
 31
0.0
  0
LINE
  5
2C7
330
1F
100
AcDbEntity
  8
0
  6
Continuous
 62
     7
370
    25
100
AcDbLine
 10
14.9271977514
 20
6.7212742467
 30
0.0
 11
14.9775791096
 21
6.6921897077
 31
0.0
  0
LINE
  5
2C8
330
1F
100
AcDbEntity
  8
0
  6
Continuous
 62
     7
370
    25
100
AcDbLine
 10
14.9271977514
 20
7.020332319
 30
0.0
 11
14.9271977514
 21
6.7212742467
 31
0.0
  0
LINE
  5
2C9
330
1F
100
AcDbEntity
  8
0
  6
Continuous
 62
     7
370
    25
100
AcDbLine
 10
15.0279278838
 20
7.034785668
 30
0.0
 11
15.0279604677
 21
7.0347668577
 31
0.0
  0
LWPOLYLINE
  5
2CA
330
1F
100
AcDbEntity
  8
0
  6
Continuous
 62
     7
370
    25
100
AcDbPolyline
 90
        8
 70
   128
 43
0.0
 10
14.9479124929
 20
6.675489766
 10
14.9449807269
 20
6.6773934686
 10
14.9397146823
 20
6.6821153121
 10
14.9352972335
 20
6.6880034345
 10
14.931792797
 20
6.6949719738
 10
14.9292524752
 20
6.7029193128
 10
14.9277133119
 20
6.7117295615
 10
14.9271977514
 20
6.7212742467
  0
LINE
  5
2CB
330
1F
100
AcDbEntity
  8
0
  6
Continuous
 62
     7
370
    25
100
AcDbLine
 10
15.2203307552
 20
7.0096330924
 30
0.0
 11
15.2290439586
 21
7.0046030671
 31
0.0
  0
LINE
  5
2CC
330
1F
100
AcDbEntity
  8
0
  6
Continuous
 62
     7
370
    25
100
AcDbLine
 10
15.2290439586
 20
6.9742729355
 30
0.0
 11
15.2203307552
 21
6.9793029608
 31
0.0
  0
LINE
  5
2CD
330
1F
100
AcDbEntity
  8
0
  6
Continuous
 62
     7
370
    25
100
AcDbLine
 10
15.5398546319
 20
7.3158425299
 30
0.0
 11
15.5302564059
 21
7.3213834678
 31
0.0
  0
LINE
  5
2CE
330
1F
100
AcDbEntity
  8
0
  6
Continuous
 62
     7
370
    25
100
AcDbLine
 10
15.5681377641
 20
7.3432519104
 30
0.0
 11
15.5777359901
 21
7.3377109725
 31
0.0
  0
LINE
  5
2CF
330
1F
100
AcDbEntity
  8
0
  6
Continuous
 62
     7
370
    25
100
AcDbLine
 10
15.476531332
 20
7.1474744867
 30
0.0
 11
15.4678181286
 21
7.1525045119
 31
0.0
  0
LINE
  5
2D0
330
1F
100
AcDbEntity
  8
0
  6
Continuous
 62
     7
370
    25
100
AcDbLine
 10
15.4678181286
 20
7.1221743803
 30
0.0
 11
15.476531332
 21
7.1171443551
 31
0.0
  0
LWPOLYLINE
  5
2D1
330
1F
100
AcDbEntity
  8
0
  6
Continuous
 62
     7
370
    25
100
AcDbPolyline
 90
        7
 70
   128
 43
0.0
 10
13.2328127877
 20
8.5173738846
 10
13.231870137
 20
8.5172561196
 10
13.2275289326
 20
8.5172561196
 10
13.2234495348
 20
8.5181132645
 10
13.2201239793
 20
8.51972417
 10
13.2179533771
 20
8.521894537
 10
13.2172332606
 20
8.5238328628
  0
LWPOLYLINE
  5
2D2
330
1F
100
AcDbEntity
  8
0
  6
Continuous
 62
     7
370
    25
100
AcDbPolyline
 90
        7
 70
   128
 43
0.0
 10
13.5241246381
 20
8.3466682416
 10
13.5207669955
 20
8.347083956
 10
13.5170074022
 20
8.348337018
 10
13.5142169298
 20
8.3502568204
 10
13.5127321504
 20
8.3526118066
 10
13.5127321504
 20
8.3551179305
 10
13.5128211352
 20
8.3553806659
  0
LWPOLYLINE
  5
2D3
330
1F
100
AcDbEntity
  8
0
  6
Continuous
 62
     7
370
    25
100
AcDbPolyline
 90
        7
 70
   128
 43
0.0
 10
13.7277875346
 20
8.2316310454
 10
13.7268448839
 20
8.2315132805
 10
13.7225036794
 20
8.2315132805
 10
13.7184242817
 20
8.2323704254
 10
13.7150987261
 20
8.2339813308
 10
13.7129281239
 20
8.2361516979
 10
13.7122080074
 20
8.2380900236
  0
LWPOLYLINE
  5
2D4
330
1F
100
AcDbEntity
  8
0
  6
Continuous
 62
     7
370
    25
100
AcDbPolyline
 90
        7
 70
   128
 43
0.0
 10
14.0190993849
 20
8.0609254025
 10
14.0157417423
 20
8.0613411169
 10
14.011982149
 20
8.0625941789
 10
14.0091916766
 20
8.0645139812
 10
14.0077068972
 20
8.0668689674
 10
14.0077068972
 20
8.0693750914
 10
14.007795882
 20
8.0696378267
  0
LWPOLYLINE
  5
2D5
330
1F
100
AcDbEntity
  8
0
  6
Continuous
 62
     7
370
    25
100
AcDbPolyline
 90
        7
 70
   128
 43
0.0
 10
14.2227622814
 20
7.9458882063
 10
14.2218196307
 20
7.9457704414
 10
14.2174784263
 20
7.9457704414
 10
14.2133990285
 20
7.9466275862
 10
14.2100734729
 20
7.9482384917
 10
14.2079028707
 20
7.9504088587
 10
14.2071827543
 20
7.9523471845
  0
LWPOLYLINE
  5
2D6
330
1F
100
AcDbEntity
  8
0
  6
Continuous
 62
     7
370
    25
100
AcDbPolyline
 90
        7
 70
   128
 43
0.0
 10
14.5140741317
 20
7.7751825633
 10
14.5107164892
 20
7.7755982777
 10
14.5069568958
 20
7.7768513397
 10
14.5041664234
 20
7.7787711421
 10
14.502681644
 20
7.7811261283
 10
14.502681644
 20
7.7836322523
 10
14.5027706288
 20
7.7838949876
  0
LWPOLYLINE
  5
2D7
330
1F
100
AcDbEntity
  8
0
  6
Continuous
 62
     7
370
    25
100
AcDbPolyline
 90
        7
 70
   128
 43
0.0
 10
14.7177370282
 20
7.6601453672
 10
14.7167943775
 20
7.6600276022
 10
14.7124531731
 20
7.6600276022
 10
14.7083737753
 20
7.6608847471
 10
14.7050482198
 20
7.6624956525
 10
14.7028776176
 20
7.6646660196
 10
14.7021575011
 20
7.6666043454
  0
LWPOLYLINE
  5
2D8
330
1F
100
AcDbEntity
  8
0
  6
Continuous
 62
     7
370
    25
100
AcDbPolyline
 90
        7
 70
   128
 43
0.0
 10
15.0090488785
 20
7.4894397242
 10
15.005691236
 20
7.4898554386
 10
15.0019316427
 20
7.4911085006
 10
14.9991411702
 20
7.4930283029
 10
14.9976563909
 20
7.4953832891
 10
14.9976563909
 20
7.4978894131
 10
14.9977453757
 20
7.4981521484
  0
ARC
  5
2D9
330
1F
100
AcDbEntity
  8
0
  6
Continuous
 62
     7
370
    25
100
AcDbCircle
 10
15.4619711528
 20
7.159132471
 30
0.0
 40
0.0058140530560019
100
AcDbArc
 50
292.0832249668
 51
2.9053611546
  0
LINE
  5
2DA
330
1F
100
AcDbEntity
  8
0
  6
Continuous
 62
     7
370
    25
100
AcDbLine
 10
15.3404132767
 20
7.0823092344
 30
0.0
 11
15.4641569634
 21
7.1537449442
 31
0.0
  0
ARC
  5
2DB
330
1F
100
AcDbEntity
  8
0
  6
Continuous
 62
     7
370
    25
100
AcDbCircle
 10
15.3317804176
 20
7.0987091859
 30
0.0
 40
0.0185333392943182
100
AcDbArc
 50
265.6852137277
 51
297.76211245
  0
ARC
  5
2DC
330
1F
100
AcDbEntity
  8
0
  6
Continuous
 62
     7
370
    25
100
AcDbCircle
 10
15.2144837794
 20
7.0162610514
 30
0.0
 40
0.0058140530559542
100
AcDbArc
 50
292.0832249666
 51
2.9053611563
  0
LINE
  5
2DD
330
1F
100
AcDbEntity
  8
0
  6
Continuous
 62
     7
370
    25
100
AcDbLine
 10
15.0929259033
 20
6.9394378148
 30
0.0
 11
15.21666959
 21
7.0108735246
 31
0.0
  0
ARC
  5
2DE
330
1F
100
AcDbEntity
  8
0
  6
Continuous
 62
     7
370
    25
100
AcDbCircle
 10
15.0842930442
 20
6.9558377663
 30
0.0
 40
0.0185333392942874
100
AcDbArc
 50
265.6852137273
 51
297.7621124501
  0
LINE
  5
2DF
330
1F
100
AcDbEntity
  8
0
  6
Continuous
 62
     7
370
    25
100
AcDbLine
 10
14.9267558097
 20
6.9026994498
 30
0.0
 11
14.9271977514
 21
6.9029545773
 31
0.0
  0
LINE
  5
2E0
330
1F
100
AcDbEntity
  8
0
  6
Continuous
 62
     7
370
    25
100
AcDbLine
 10
14.6598229998
 20
7.0567964809
 30
0.0
 11
14.9267558097
 21
6.9026994498
 31
0.0
  0
LINE
  5
2E1
330
1F
100
AcDbEntity
  8
0
  6
Continuous
 62
     7
370
    25
100
AcDbLine
 10
14.6598229998
 20
7.0567964809
 30
0.0
 11
14.6627238547
 21
7.0584711088
 31
0.0
  0
LINE
  5
2E2
330
1F
100
AcDbEntity
  8
0
  6
Continuous
 62
     7
370
    25
100
AcDbLine
 10
14.4496456227
 20
7.1803860973
 30
0.0
 11
14.4476909654
 21
7.1792576977
 31
0.0
  0
LINE
  5
2E3
330
1F
100
AcDbEntity
  8
0
  6
Continuous
 62
     7
370
    25
100
AcDbLine
 10
14.1648482529
 20
7.34253932
 30
0.0
 11
14.4476909654
 21
7.1792576977
 31
0.0
  0
LINE
  5
2E4
330
1F
100
AcDbEntity
  8
0
  6
Continuous
 62
     7
370
    25
100
AcDbLine
 10
14.1648482529
 20
7.34253932
 30
0.0
 11
14.1677491079
 21
7.3442139479
 31
0.0
  0
LINE
  5
2E5
330
1F
100
AcDbEntity
  8
0
  6
Continuous
 62
     7
370
    25
100
AcDbLine
 10
13.9546708758
 20
7.4661289364
 30
0.0
 11
13.9527162186
 21
7.4650005368
 31
0.0
  0
LINE
  5
2E6
330
1F
100
AcDbEntity
  8
0
  6
Continuous
 62
     7
370
    25
100
AcDbLine
 10
13.6698735061
 20
7.6282821592
 30
0.0
 11
13.9527162186
 21
7.4650005368
 31
0.0
  0
LINE
  5
2E7
330
1F
100
AcDbEntity
  8
0
  6
Continuous
 62
     7
370
    25
100
AcDbLine
 10
13.6698735061
 20
7.6282821592
 30
0.0
 11
13.672774361
 21
7.6299567871
 31
0.0
  0
LINE
  5
2E8
330
1F
100
AcDbEntity
  8
0
  6
Continuous
 62
     7
370
    25
100
AcDbLine
 10
13.459696129
 20
7.7518717756
 30
0.0
 11
13.4577414718
 21
7.7507433759
 31
0.0
  0
LINE
  5
2E9
330
1F
100
AcDbEntity
  8
0
  6
Continuous
 62
     7
370
    25
100
AcDbLine
 10
13.1748987593
 20
7.9140249983
 30
0.0
 11
13.4577414718
 21
7.7507433759
 31
0.0
  0
LINE
  5
2EA
330
1F
100
AcDbEntity
  8
0
  6
Continuous
 62
     7
370
    25
100
AcDbLine
 10
13.1748987593
 20
7.9140249983
 30
0.0
 11
13.1777996142
 21
7.9156996262
 31
0.0
  0
LINE
  5
2EB
330
1F
100
AcDbEntity
  8
0
  6
Continuous
 62
     7
370
    25
100
AcDbLine
 10
12.9647213822
 20
8.0376146147
 30
0.0
 11
12.9627667249
 21
8.0364862151
 31
0.0
  0
LINE
  5
2EC
330
1F
100
AcDbEntity
  8
0
  6
Continuous
 62
     7
370
    25
100
AcDbLine
 10
12.6799240125
 20
8.1997678374
 30
0.0
 11
12.9627667249
 21
8.0364862151
 31
0.0
  0
LINE
  5
2ED
330
1F
100
AcDbEntity
  8
0
  6
Continuous
 62
     7
370
    25
100
AcDbLine
 10
12.6799240125
 20
8.1997678374
 30
0.0
 11
12.6828248674
 21
8.2014424653
 31
0.0
  0
LINE
  5
2EE
330
1F
100
AcDbEntity
  8
0
  6
Continuous
 62
     7
370
    25
100
AcDbLine
 10
12.4697466354
 20
8.3233574538
 30
0.0
 11
12.4677919781
 21
8.3222290542
 31
0.0
  0
LINE
  5
2EF
330
1F
100
AcDbEntity
  8
0
  6
Continuous
 62
     7
370
    25
100
AcDbLine
 10
12.2008591682
 20
8.4763260853
 30
0.0
 11
12.4677919781
 21
8.3222290542
 31
0.0
  0
LINE
  5
2F0
330
1F
100
AcDbEntity
  8
0
  6
Continuous
 62
     7
370
    25
100
AcDbLine
 10
12.2008591682
 20
8.4763260853
 30
0.0
 11
12.2013011099
 21
8.4765812129
 31
0.0
  0
LWPOLYLINE
  5
2F1
330
1F
100
AcDbEntity
  8
0
  6
Continuous
 62
     7
370
    25
100
AcDbPolyline
 90
        7
 70
   128
 43
0.0
 10
12.6906831209
 20
8.7627100377
 10
12.6936633128
 20
8.7621785532
 10
12.6980045173
 20
8.7621785532
 10
12.702083915
 20
8.7630356981
 10
12.7054094706
 20
8.7646466035
 10
12.7075800728
 20
8.7668169705
 10
12.708333915
 20
8.7692850209
  0
LINE
  5
2F2
330
1F
100
AcDbEntity
  8
0
  6
Continuous
 62
     7
370
    25
100
AcDbLine
 10
12.708333915
 20
8.7692850209
 30
0.0
 11
12.7501927488
 21
8.7934496113
 31
0.0
  0
LWPOLYLINE
  5
2F3
330
1F
100
AcDbEntity
  8
0
  6
Continuous
 62
     7
370
    25
100
AcDbPolyline
 90
        7
 70
   128
 43
0.0
 10
13.0291498912
 20
8.6324110808
 10
13.0257922487
 20
8.6328267952
 10
13.0220326553
 20
8.6340798571
 10
13.0192421829
 20
8.6359996595
 10
13.0177574036
 20
8.6383546457
 10
13.0177574036
 20
8.6408607697
 10
13.0178463883
 20
8.641123505
  0
LINE
  5
2F4
330
1F
100
AcDbEntity
  8
0
  6
Continuous
 62
     7
370
    25
100
AcDbLine
 10
14.9267558097
 20
6.8435002409
 30
0.0
 11
14.9267558097
 21
6.9026994498
 31
0.0
  0
LINE
  5
2F5
330
1F
100
AcDbEntity
  8
0
  6
Continuous
 62
     7
370
    25
100
AcDbLine
 10
14.6598229998
 20
7.0567964809
 30
0.0
 11
14.6598229998
 21
6.997597272
 31
0.0
  0
LINE
  5
2F6
330
1F
100
AcDbEntity
  8
0
  6
Continuous
 62
     7
370
    25
100
AcDbLine
 10
14.6598229998
 20
6.997597272
 30
0.0
 11
14.9267558097
 21
6.8435002409
 31
0.0
  0
LINE
  5
2F7
330
1F
100
AcDbEntity
  8
0
  6
Continuous
 62
     7
370
    25
100
AcDbLine
 10
14.9267558097
 20
6.8435002409
 30
0.0
 11
14.9271977514
 21
6.8437553685
 31
0.0
  0
LINE
  5
2F8
330
1F
100
AcDbEntity
  8
0
  6
Continuous
 62
     7
370
    25
100
AcDbLine
 10
15.0929259033
 20
6.9394378148
 30
0.0
 11
15.0929259033
 21
6.880238606
 31
0.0
  0
ARC
  5
2F9
330
1F
100
AcDbEntity
  8
0
  6
Continuous
 62
     7
370
    25
100
AcDbCircle
 10
15.0840421095
 20
6.8975331235
 30
0.0
 40
0.0194427911874198
100
AcDbArc
 50
246.3052510557
 51
297.18851754
  0
LINE
  5
2FA
330
1F
100
AcDbEntity
  8
0
  6
Continuous
 62
     7
370
    25
100
AcDbLine
 10
15.21666959
 20
6.9516743157
 30
0.0
 11
15.21666959
 21
7.0108735246
 31
0.0
  0
LINE
  5
2FB
330
1F
100
AcDbEntity
  8
0
  6
Continuous
 62
     7
370
    25
100
AcDbLine
 10
15.0929259033
 20
6.880238606
 30
0.0
 11
15.21666959
 21
6.9516743157
 31
0.0
  0
ARC
  5
2FC
330
1F
100
AcDbEntity
  8
0
  6
Continuous
 62
     7
370
    25
100
AcDbCircle
 10
15.2140750419
 20
6.9574006962
 30
0.0
 40
0.0062867409811645
100
AcDbArc
 50
294.3746582935
 51
354.3052007488
  0
LINE
  5
2FD
330
1F
100
AcDbEntity
  8
0
  6
Continuous
 62
     7
370
    25
100
AcDbLine
 10
15.3404132767
 20
7.0823092344
 30
0.0
 11
15.3404132767
 21
7.0231100255
 31
0.0
  0
ARC
  5
2FE
330
1F
100
AcDbEntity
  8
0
  6
Continuous
 62
     7
370
    25
100
AcDbCircle
 10
15.3315294829
 20
7.0404045431
 30
0.0
 40
0.0194427911875457
100
AcDbArc
 50
246.3052510581
 51
297.1885175399
  0
LINE
  5
2FF
330
1F
100
AcDbEntity
  8
0
  6
Continuous
 62
     7
370
    25
100
AcDbLine
 10
15.4641569634
 20
7.0945457353
 30
0.0
 11
15.4641569634
 21
7.1537449442
 31
0.0
  0
LINE
  5
300
330
1F
100
AcDbEntity
  8
0
  6
Continuous
 62
     7
370
    25
100
AcDbLine
 10
15.3404132767
 20
7.0231100255
 30
0.0
 11
15.4641569634
 21
7.0945457353
 31
0.0
  0
ARC
  5
301
330
1F
100
AcDbEntity
  8
0
  6
Continuous
 62
     7
370
    25
100
AcDbCircle
 10
15.4615624153
 20
7.1002721157
 30
0.0
 40
0.0062867409811719
100
AcDbArc
 50
294.3746582936
 51
354.3052007488
  0
LINE
  5
302
330
1F
100
AcDbEntity
  8
0
  6
Continuous
 62
     7
370
    25
100
AcDbLine
 10
14.4476909654
 20
7.1200584888
 30
0.0
 11
14.4476909654
 21
7.1792576977
 31
0.0
  0
LINE
  5
303
330
1F
100
AcDbEntity
  8
0
  6
Continuous
 62
     7
370
    25
100
AcDbLine
 10
14.4516684411
 20
7.1223546366
 30
0.0
 11
14.4476909654
 21
7.1200584888
 31
0.0
  0
LINE
  5
304
330
1F
100
AcDbEntity
  8
0
  6
Continuous
 62
     7
370
    25
100
AcDbLine
 10
14.1648482529
 20
7.34253932
 30
0.0
 11
14.1648482529
 21
7.2833401112
 31
0.0
  0
LINE
  5
305
330
1F
100
AcDbEntity
  8
0
  6
Continuous
 62
     7
370
    25
100
AcDbLine
 10
14.1648482529
 20
7.2833401112
 30
0.0
 11
14.4476909654
 21
7.1200584888
 31
0.0
  0
LINE
  5
306
330
1F
100
AcDbEntity
  8
0
  6
Continuous
 62
     7
370
    25
100
AcDbLine
 10
13.9527162186
 20
7.4058013279
 30
0.0
 11
13.9527162186
 21
7.4650005368
 31
0.0
  0
LINE
  5
307
330
1F
100
AcDbEntity
  8
0
  6
Continuous
 62
     7
370
    25
100
AcDbLine
 10
13.9566936942
 20
7.4080974758
 30
0.0
 11
13.9527162186
 21
7.4058013279
 31
0.0
  0
LINE
  5
308
330
1F
100
AcDbEntity
  8
0
  6
Continuous
 62
     7
370
    25
100
AcDbLine
 10
13.6698735061
 20
7.6282821592
 30
0.0
 11
13.6698735061
 21
7.5690829503
 31
0.0
  0
LINE
  5
309
330
1F
100
AcDbEntity
  8
0
  6
Continuous
 62
     7
370
    25
100
AcDbLine
 10
13.6698735061
 20
7.5690829503
 30
0.0
 11
13.9527162186
 21
7.4058013279
 31
0.0
  0
LINE
  5
30A
330
1F
100
AcDbEntity
  8
0
  6
Continuous
 62
     7
370
    25
100
AcDbLine
 10
13.4577414718
 20
7.6915441671
 30
0.0
 11
13.4577414718
 21
7.7507433759
 31
0.0
  0
LINE
  5
30B
330
1F
100
AcDbEntity
  8
0
  6
Continuous
 62
     7
370
    25
100
AcDbLine
 10
13.1748987593
 20
7.9140249983
 30
0.0
 11
13.1748987593
 21
7.8548257894
 31
0.0
  0
LINE
  5
30C
330
1F
100
AcDbEntity
  8
0
  6
Continuous
 62
     7
370
    25
100
AcDbLine
 10
13.1748987593
 20
7.8548257894
 30
0.0
 11
13.4577414718
 21
7.6915441671
 31
0.0
  0
LINE
  5
30D
330
1F
100
AcDbEntity
  8
0
  6
Continuous
 62
     7
370
    25
100
AcDbLine
 10
13.4617189474
 20
7.6938403149
 30
0.0
 11
13.4577414718
 21
7.6915441671
 31
0.0
  0
LINE
  5
30E
330
1F
100
AcDbEntity
  8
0
  6
Continuous
 62
     7
370
    25
100
AcDbLine
 10
12.9627667249
 20
7.9772870062
 30
0.0
 11
12.9627667249
 21
8.0364862151
 31
0.0
  0
LINE
  5
30F
330
1F
100
AcDbEntity
  8
0
  6
Continuous
 62
     7
370
    25
100
AcDbLine
 10
12.9667442006
 20
7.979583154
 30
0.0
 11
12.9627667249
 21
7.9772870062
 31
0.0
  0
LINE
  5
310
330
1F
100
AcDbEntity
  8
0
  6
Continuous
 62
     7
370
    25
100
AcDbLine
 10
12.6799240125
 20
8.1997678374
 30
0.0
 11
12.6799240125
 21
8.1405686286
 31
0.0
  0
LINE
  5
311
330
1F
100
AcDbEntity
  8
0
  6
Continuous
 62
     7
370
    25
100
AcDbLine
 10
12.6799240125
 20
8.1405686286
 30
0.0
 11
12.9627667249
 21
7.9772870062
 31
0.0
  0
LINE
  5
312
330
1F
100
AcDbEntity
  8
0
  6
Continuous
 62
     7
370
    25
100
AcDbLine
 10
12.2008591682
 20
8.4171268765
 30
0.0
 11
12.2008591682
 21
8.4763260853
 31
0.0
  0
LINE
  5
313
330
1F
100
AcDbEntity
  8
0
  6
Continuous
 62
     7
370
    25
100
AcDbLine
 10
12.4677919781
 20
8.2630298454
 30
0.0
 11
12.4677919781
 21
8.3222290542
 31
0.0
  0
LINE
  5
314
330
1F
100
AcDbEntity
  8
0
  6
Continuous
 62
     7
370
    25
100
AcDbLine
 10
12.2008591682
 20
8.4171268765
 30
0.0
 11
12.4677919781
 21
8.2630298454
 31
0.0
  0
LINE
  5
315
330
1F
100
AcDbEntity
  8
0
  6
Continuous
 62
     7
370
    25
100
AcDbLine
 10
12.4717694537
 20
8.2653259932
 30
0.0
 11
12.4677919781
 21
8.2630298454
 31
0.0
  0
LINE
  5
316
330
1F
100
AcDbEntity
  8
0
  6
Continuous
 62
     8
370
    25
100
AcDbLine
 10
14.9687402748
 20
7.1647618732
 30
0.0
 11
14.9731604105
 21
7.1673135632
 31
0.0
  0
LINE
  5
317
330
1F
100
AcDbEntity
  8
0
  6
Continuous
 62
     8
370
    25
100
AcDbLine
 10
12.1624109553
 20
8.7899246855
 30
0.0
 11
12.1579908196
 21
8.7873729954
 31
0.0
  0
ENDSEC
  0
SECTION
  2
OBJECTS
  0
DICTIONARY
  5
C
330
0
100
AcDbDictionary
281
     1
  3
ACAD_GROUP
350
D
  3
ACAD_LAYOUT
350
1A
  3
ACAD_MLINESTYLE
350
17
  3
ACAD_PLOTSETTINGS
350
19
  3
ACAD_PLOTSTYLENAME
350
E
  3
ACAD_SCALELIST
350
47
  0
DICTIONARY
  5
D
102
{ACAD_REACTORS
330
C
102
}
330
C
100
AcDbDictionary
281
     1
  0
DICTIONARY
  5
1A
102
{ACAD_REACTORS
330
C
102
}
330
C
100
AcDbDictionary
281
     1
  3
Layout1
350
1E
  3
Layout2
350
26
  3
Model
350
22
  0
DICTIONARY
  5
17
102
{ACAD_REACTORS
330
C
102
}
330
C
100
AcDbDictionary
281
     1
  3
Standard
350
18
  0
DICTIONARY
  5
19
102
{ACAD_REACTORS
330
C
102
}
330
C
100
AcDbDictionary
281
     1
  0
ACDBDICTIONARYWDFLT
  5
E
102
{ACAD_REACTORS
330
C
102
}
330
C
100
AcDbDictionary
281
     1
  3
Normal
350
F
100
AcDbDictionaryWithDefault
340
F
  0
DICTIONARY
  5
47
102
{ACAD_REACTORS
330
C
102
}
330
C
100
AcDbDictionary
281
     1
  3
A0
350
48
  3
A1
350
49
  3
A2
350
4A
  3
A3
350
4B
  3
A4
350
4C
  3
A5
350
4D
  3
A6
350
4E
  3
A7
350
4F
  3
A8
350
50
  3
A9
350
51
  3
B0
350
52
  3
B1
350
53
  3
B2
350
54
  3
B3
350
55
  3
B4
350
56
  3
B5
350
57
  3
B6
350
58
  3
B7
350
59
  3
B8
350
5A
  3
B9
350
5B
  3
C0
350
5C
  3
C1
350
5D
  3
C2
350
5E
  3
C3
350
5F
  3
C4
350
60
  3
C5
350
61
  3
C6
350
62
  3
C7
350
63
  3
C8
350
64
  3
C9
350
65
  3
D0
350
66
  3
D1
350
67
  3
D2
350
68
  0
LAYOUT
  5
1E
102
{ACAD_REACTORS
330
1A
102
}
330
1A
100
AcDbPlotSettings
  1

  2
none_device
  4

  6

 40
0.0
 41
0.0
 42
0.0
 43
0.0
 44
0.0
 45
0.0
 46
0.0
 47
0.0
 48
0.0
 49
0.0
140
0.0
141
0.0
142
1.0
143
1.0
 70
   688
 72
     0
 73
     0
 74
     5
  7

 75
    16
147
1.0
148
0.0
149
0.0
100
AcDbLayout
  1
Layout1
 70
     1
 71
     1
 10
0.0
 20
0.0
 11
12.0
 21
9.0
 12
0.0
 22
0.0
 32
0.0
 14
1.0000000000E+20
 24
1.0000000000E+20
 34
1.0000000000E+20
 15
-1.0000000000E+20
 25
-1.0000000000E+20
 35
-1.0000000000E+20
146
0.0
 13
0.0
 23
0.0
 33
0.0
 16
1.0
 26
0.0
 36
0.0
 17
0.0
 27
1.0
 37
0.0
 76
     0
330
1B
  0
LAYOUT
  5
26
102
{ACAD_REACTORS
330
1A
102
}
330
1A
100
AcDbPlotSettings
  1

  2
none_device
  4

  6

 40
0.0
 41
0.0
 42
0.0
 43
0.0
 44
0.0
 45
0.0
 46
0.0
 47
0.0
 48
0.0
 49
0.0
140
0.0
141
0.0
142
1.0
143
1.0
 70
   688
 72
     0
 73
     0
 74
     5
  7

 75
    16
147
1.0
148
0.0
149
0.0
100
AcDbLayout
  1
Layout2
 70
     1
 71
     2
 10
0.0
 20
0.0
 11
0.0
 21
0.0
 12
0.0
 22
0.0
 32
0.0
 14
0.0
 24
0.0
 34
0.0
 15
0.0
 25
0.0
 35
0.0
146
0.0
 13
0.0
 23
0.0
 33
0.0
 16
1.0
 26
0.0
 36
0.0
 17
0.0
 27
1.0
 37
0.0
 76
     0
330
23
  0
LAYOUT
  5
22
102
{ACAD_REACTORS
330
1A
102
}
330
1A
100
AcDbPlotSettings
  1

  2
none_device
  4
Letter_(8.50_x_11.00_Inches)
  6

 40
6.35
 41
6.35
 42
6.35000508
 43
6.35000508
 44
215.9
 45
279.4
 46
0.0
 47
0.0
 48
0.0
 49
0.0
140
0.0
141
0.0
142
1.0
143
1.0
 70
  1712
 72
     0
 73
     0
 74
     0
  7

 75
     0
147
1.0
148
0.0
149
0.0
100
AcDbLayout
  1
Model
 70
     1
 71
     0
 10
0.0
 20
0.0
 11
17.0
 21
11.0
 12
0.0
 22
0.0
 32
0.0
 14
0.0
 24
0.0
 34
0.0
 15
17.0
 25
11.0
 35
0.0
146
0.0
 13
0.0
 23
0.0
 33
0.0
 16
1.0
 26
0.0
 36
0.0
 17
0.0
 27
1.0
 37
0.0
 76
     0
330
1F
331
29
  0
MLINESTYLE
  5
18
102
{ACAD_REACTORS
330
17
102
}
330
17
100
AcDbMlineStyle
  2
Standard
 70
     0
  3

 62
   256
 51
90.0
 52
90.0
 71
     2
 49
0.5
 62
   256
  6
BYLAYER
 49
-0.5
 62
   256
  6
BYLAYER
  0
ACDBPLACEHOLDER
  5
F
102
{ACAD_REACTORS
330
E
102
}
330
E
  0
SCALE
  5
48
102
{ACAD_REACTORS
330
47
102
}
330
47
100
AcDbScale
 70
     0
300
1:1
140
1.0
141
1.0
290
     1
  0
SCALE
  5
49
102
{ACAD_REACTORS
330
47
102
}
330
47
100
AcDbScale
 70
     0
300
1:2
140
1.0
141
2.0
290
     0
  0
SCALE
  5
4A
102
{ACAD_REACTORS
330
47
102
}
330
47
100
AcDbScale
 70
     0
300
1:4
140
1.0
141
4.0
290
     0
  0
SCALE
  5
4B
102
{ACAD_REACTORS
330
47
102
}
330
47
100
AcDbScale
 70
     0
300
1:5
140
1.0
141
5.0
290
     0
  0
SCALE
  5
4C
102
{ACAD_REACTORS
330
47
102
}
330
47
100
AcDbScale
 70
     0
300
1:8
140
1.0
141
8.0
290
     0
  0
SCALE
  5
4D
102
{ACAD_REACTORS
330
47
102
}
330
47
100
AcDbScale
 70
     0
300
1:10
140
1.0
141
10.0
290
     0
  0
SCALE
  5
4E
102
{ACAD_REACTORS
330
47
102
}
330
47
100
AcDbScale
 70
     0
300
1:16
140
1.0
141
16.0
290
     0
  0
SCALE
  5
4F
102
{ACAD_REACTORS
330
47
102
}
330
47
100
AcDbScale
 70
     0
300
1:20
140
1.0
141
20.0
290
     0
  0
SCALE
  5
50
102
{ACAD_REACTORS
330
47
102
}
330
47
100
AcDbScale
 70
     0
300
1:30
140
1.0
141
30.0
290
     0
  0
SCALE
  5
51
102
{ACAD_REACTORS
330
47
102
}
330
47
100
AcDbScale
 70
     0
300
1:40
140
1.0
141
40.0
290
     0
  0
SCALE
  5
52
102
{ACAD_REACTORS
330
47
102
}
330
47
100
AcDbScale
 70
     0
300
1:50
140
1.0
141
50.0
290
     0
  0
SCALE
  5
53
102
{ACAD_REACTORS
330
47
102
}
330
47
100
AcDbScale
 70
     0
300
1:100
140
1.0
141
100.0
290
     0
  0
SCALE
  5
54
102
{ACAD_REACTORS
330
47
102
}
330
47
100
AcDbScale
 70
     0
300
2:1
140
2.0
141
1.0
290
     0
  0
SCALE
  5
55
102
{ACAD_REACTORS
330
47
102
}
330
47
100
AcDbScale
 70
     0
300
4:1
140
4.0
141
1.0
290
     0
  0
SCALE
  5
56
102
{ACAD_REACTORS
330
47
102
}
330
47
100
AcDbScale
 70
     0
300
8:1
140
8.0
141
1.0
290
     0
  0
SCALE
  5
57
102
{ACAD_REACTORS
330
47
102
}
330
47
100
AcDbScale
 70
     0
300
10:1
140
10.0
141
1.0
290
     0
  0
SCALE
  5
58
102
{ACAD_REACTORS
330
47
102
}
330
47
100
AcDbScale
 70
     0
300
100:1
140
100.0
141
1.0
290
     0
  0
SCALE
  5
59
102
{ACAD_REACTORS
330
47
102
}
330
47
100
AcDbScale
 70
     0
300
1/128" = 1'-0"
140
0.0078125
141
12.0
290
     0
  0
SCALE
  5
5A
102
{ACAD_REACTORS
330
47
102
}
330
47
100
AcDbScale
 70
     0
300
1/64" = 1'-0"
140
0.015625
141
12.0
290
     0
  0
SCALE
  5
5B
102
{ACAD_REACTORS
330
47
102
}
330
47
100
AcDbScale
 70
     0
300
1/32" = 1'-0"
140
0.03125
141
12.0
290
     0
  0
SCALE
  5
5C
102
{ACAD_REACTORS
330
47
102
}
330
47
100
AcDbScale
 70
     0
300
1/16" = 1'-0"
140
0.0625
141
12.0
290
     0
  0
SCALE
  5
5D
102
{ACAD_REACTORS
330
47
102
}
330
47
100
AcDbScale
 70
     0
300
3/32" = 1'-0"
140
0.09375
141
12.0
290
     0
  0
SCALE
  5
5E
102
{ACAD_REACTORS
330
47
102
}
330
47
100
AcDbScale
 70
     0
300
1/8" = 1'-0"
140
0.125
141
12.0
290
     0
  0
SCALE
  5
5F
102
{ACAD_REACTORS
330
47
102
}
330
47
100
AcDbScale
 70
     0
300
3/16" = 1'-0"
140
0.1875
141
12.0
290
     0
  0
SCALE
  5
60
102
{ACAD_REACTORS
330
47
102
}
330
47
100
AcDbScale
 70
     0
300
1/4" = 1'-0"
140
0.25
141
12.0
290
     0
  0
SCALE
  5
61
102
{ACAD_REACTORS
330
47
102
}
330
47
100
AcDbScale
 70
     0
300
3/8" = 1'-0"
140
0.375
141
12.0
290
     0
  0
SCALE
  5
62
102
{ACAD_REACTORS
330
47
102
}
330
47
100
AcDbScale
 70
     0
300
1/2" = 1'-0"
140
0.5
141
12.0
290
     0
  0
SCALE
  5
63
102
{ACAD_REACTORS
330
47
102
}
330
47
100
AcDbScale
 70
     0
300
3/4" = 1'-0"
140
0.75
141
12.0
290
     0
  0
SCALE
  5
64
102
{ACAD_REACTORS
330
47
102
}
330
47
100
AcDbScale
 70
     0
300
1" = 1'-0"
140
1.0
141
12.0
290
     0
  0
SCALE
  5
65
102
{ACAD_REACTORS
330
47
102
}
330
47
100
AcDbScale
 70
     0
300
1-1/2" = 1'-0"
140
1.5
141
12.0
290
     0
  0
SCALE
  5
66
102
{ACAD_REACTORS
330
47
102
}
330
47
100
AcDbScale
 70
     0
300
3" = 1'-0"
140
3.0
141
12.0
290
     0
  0
SCALE
  5
67
102
{ACAD_REACTORS
330
47
102
}
330
47
100
AcDbScale
 70
     0
300
6" = 1'-0"
140
6.0
141
12.0
290
     0
  0
SCALE
  5
68
102
{ACAD_REACTORS
330
47
102
}
330
47
100
AcDbScale
 70
     0
300
1'-0" = 1'-0"
140
12.0
141
12.0
290
     0
  0
ENDSEC
  0
EOF
